<?xml version="1.0" encoding="utf-8"?>
<!-- Generator: Adobe Illustrator 16.0.0, SVG Export Plug-In . SVG Version: 6.00 Build 0)  -->
<!DOCTYPE svg PUBLIC "-//W3C//DTD SVG 1.1//EN" "http://www.w3.org/Graphics/SVG/1.1/DTD/svg11.dtd">
<svg version="1.1" id="Layer_1" xmlns="http://www.w3.org/2000/svg" xmlns:xlink="http://www.w3.org/1999/xlink" x="0px" y="0px"
	 width="1728px" height="1296px" viewBox="-187.653 244.347 1728 1296" enable-background="new -187.653 244.347 1728 1296"
	 xml:space="preserve">
<desc>Output from Flights of Ideas SVG Sketchup Plugin</desc>
<path id="face0-cut" fill="none" stroke="#000000" stroke-width="0.001" stroke-linecap="round" stroke-linejoin="round" d="
	M211.587,796.354"/>
<path id="face1-cut" fill="none" stroke="#000000" stroke-width="0.001" stroke-linecap="round" stroke-linejoin="round" d="
	M1158.113,990.611"/>
<path id="face2-cut" fill="none" stroke="#000000" stroke-width="0.001" stroke-linecap="round" stroke-linejoin="round" d="
	M701.732,311.235"/>
<path id="face3-cut" fill="none" stroke="#000000" stroke-width="0.001" stroke-linecap="round" stroke-linejoin="round" d="
	M1203.113,1036.188"/>
<path id="face4-cut" fill="none" stroke="#000000" stroke-width="0.001" stroke-linecap="round" stroke-linejoin="round" d="
	M962.732,311.235"/>
<path id="face5-cut" fill="none" stroke="#000000" stroke-width="0.001" stroke-linecap="round" stroke-linejoin="round" d="
	M962.732,419.235"/>
<path id="face6-cut" fill="none" stroke="#000000" stroke-width="0.001" stroke-linecap="round" stroke-linejoin="round" d="
	M107.475,338.785"/>
<path id="face7-cut" fill="none" stroke="#000000" stroke-width="0.001" stroke-linecap="round" stroke-linejoin="round" d="
	M107.475,482.785"/>
<path id="face8-cut" fill="none" stroke="#000000" stroke-width="0.001" stroke-linecap="round" stroke-linejoin="round" d="
	M107.475,734.785"/>
<path id="face9-cut" fill="none" stroke="#000000" stroke-width="0.001" stroke-linecap="round" stroke-linejoin="round" d="
	M107.475,410.785"/>
<path id="face10-cut" fill="none" stroke="#000000" stroke-width="0.001" stroke-linecap="round" stroke-linejoin="round" d="
	M107.475,374.785"/>
<path id="face11-cut" fill="none" stroke="#000000" stroke-width="0.001" stroke-linecap="round" stroke-linejoin="round" d="
	M107.475,626.785"/>
<path id="face12-cut" fill="none" stroke="#000000" stroke-width="0.001" stroke-linecap="round" stroke-linejoin="round" d="
	M107.475,662.785"/>
<path id="face13-cut" fill="none" stroke="#000000" stroke-width="0.001" stroke-linecap="round" stroke-linejoin="round" d="
	M107.475,518.785"/>
<path id="face14-cut" fill="none" stroke="#000000" stroke-width="0.001" stroke-linecap="round" stroke-linejoin="round" d="
	M107.475,698.785"/>
<path id="face15-cut" fill="none" stroke="#000000" stroke-width="0.001" stroke-linecap="round" stroke-linejoin="round" d="
	M107.475,446.785"/>
<path id="face16-cut" fill="none" stroke="#000000" stroke-width="0.001" stroke-linecap="round" stroke-linejoin="round" d="
	M107.475,554.785"/>
<path id="face17-cut" fill="none" stroke="#000000" stroke-width="0.001" stroke-linecap="round" stroke-linejoin="round" d="
	M107.475,590.785"/>
<path id="face18-cut" fill="none" stroke="#000000" stroke-width="0.001" stroke-linecap="round" stroke-linejoin="round" d="
	M386.475,302.785"/>
<path id="face19-cut" fill="none" stroke="#000000" stroke-width="0.001" stroke-linecap="round" stroke-linejoin="round" d="
	M260.475,734.785"/>
<path id="face21-cut" fill="none" stroke="#000000" stroke-width="0.001" stroke-linecap="round" stroke-linejoin="round" d="
	M701.732,725.236"/>
<path id="face22-cut" fill="none" stroke="#000000" stroke-width="0.001" stroke-linecap="round" stroke-linejoin="round" d="
	M845.732,725.236"/>
<path id="face23-cut" fill="none" stroke="#000000" stroke-width="0.001" stroke-linecap="round" stroke-linejoin="round" d="
	M962.732,383.235"/>
<path id="face24-cut" fill="none" stroke="#000000" stroke-width="0.001" stroke-linecap="round" stroke-linejoin="round" d="
	M962.732,347.235"/>
<path id="face25-cut" fill="none" stroke="#000000" stroke-width="0.001" stroke-linecap="round" stroke-linejoin="round" d="
	M1124.566,946.892"/>
<path id="face26-cut" fill="none" stroke="#000000" stroke-width="0.001" stroke-linecap="round" stroke-linejoin="round" d="
	M107.475,554.785"/>
<path id="face27-cut" fill="none" stroke="#000000" stroke-width="0.001" stroke-linecap="round" stroke-linejoin="round" d="
	M845.732,311.235"/>
<path id="face28-cut" fill="none" stroke="#000000" stroke-width="0.001" stroke-linecap="round" stroke-linejoin="round" d="
	M404.475,734.785"/>
<path id="face29-cut" fill="none" stroke="#000000" stroke-width="0.001" stroke-linecap="round" stroke-linejoin="round" d="
	M488.724,807.589"/>
<path id="face30-cut" fill="none" stroke="#000000" stroke-width="0.001" stroke-linecap="round" stroke-linejoin="round" d="
	M20.499,796.354"/>
<path id="face31-cut" fill="none" stroke="#000000" stroke-width="0.001" stroke-linecap="round" stroke-linejoin="round" d="
	M962.732,671.235"/>
<path id="face32-cut" fill="none" stroke="#000000" stroke-width="0.001" stroke-linecap="round" stroke-linejoin="round" d="
	M1528.525,567.272"/>
<path id="face33-cut" fill="none" stroke="#000000" stroke-width="0.001" stroke-linecap="round" stroke-linejoin="round" d="
	M962.732,563.236"/>
<path id="face34-cut" fill="none" stroke="#000000" stroke-width="0.001" stroke-linecap="round" stroke-linejoin="round" d="
	M962.732,455.235"/>
<path id="face35-cut" fill="none" stroke="#000000" stroke-width="0.001" stroke-linecap="round" stroke-linejoin="round" d="
	M962.732,527.235"/>
<path id="face36-cut" fill="none" stroke="#000000" stroke-width="0.001" stroke-linecap="round" stroke-linejoin="round" d="
	M962.732,671.235"/>
<path id="face37-cut" fill="none" stroke="#000000" stroke-width="0.001" stroke-linecap="round" stroke-linejoin="round" d="
	M962.732,599.235"/>
<path id="face38-cut" fill="none" stroke="#000000" stroke-width="0.001" stroke-linecap="round" stroke-linejoin="round" d="
	M962.732,491.235"/>
<path id="face39-cut" fill="none" stroke="#000000" stroke-width="0.001" stroke-linecap="round" stroke-linejoin="round" d="
	M962.732,707.235"/>
<path id="face40-cut" fill="none" stroke="#000000" stroke-width="0.001" stroke-linecap="round" stroke-linejoin="round" d="
	M962.732,635.236"/>
<path id="face41-cut" fill="none" stroke="#000000" stroke-width="0.001" stroke-linecap="round" stroke-linejoin="round" d="
	M242.475,302.785"/>
<path id="face0-interior" fill="none" stroke="#000000" stroke-width="0.001" stroke-linecap="round" stroke-linejoin="round" d="
	M211.587,778.354h-18v18h-18v-18h-18v18h-18v-18h-18v18h-18v-18h-18v18h-18v18h18v18h-18v18h18v18h-18v18h18v18h-18v18h18v18h-18v18
	h18v18h-18v18h18v18h-18v18h18v18h-18v18h18v18h-18v18h18v18h-18v18h18v18h-18v18h18v18.001h18v18h18v-18h18v18h18v-18h18v18h18v-18
	h18v18h18v-18h18v18h18v-18h-7.456v-18.001h43.456v-18h-43.456v-18h43.456v-18h-43.456v-18h43.456v-18h-43.456v-18h43.456v-18
	h-43.456v-18h43.456v-18h-43.456v-18h43.456v-18h-43.456v-18h43.456v-18h-43.456v-18h43.456v-18h-43.456v-18h43.456v-18h-43.456v-18
	h43.456v-18h-43.456v-18h43.456v-18h-54v-18h-18v18h-18V778.354"/>
<path id="face1-interior" fill="none" stroke="#000000" stroke-width="0.001" stroke-linecap="round" stroke-linejoin="round" d="
	M1175.479,997.804l18.635,2.453l18.635-2.453l17.365-7.192l14.911-11.442l11.442-14.912l7.193-17.365l2.453-18.635l-2.453-18.635
	l-7.193-17.365l-11.442-14.911l-14.911-11.442l-17.365-7.193l-18.635-2.453l-18.635,2.453l-17.365,7.193l-14.912,11.442
	l-11.441,14.911l-7.193,17.365l-2.453,18.635l2.453,18.635l7.193,17.365l11.441,14.912l14.912,11.442L1175.479,997.804"/>
<path id="face2-interior" fill="none" stroke="#000000" stroke-width="0.001" stroke-linecap="round" stroke-linejoin="round" d="
	M701.732,293.235h-18v18h18V293.235"/>
<path id="face3-interior" fill="none" stroke="#000000" stroke-width="0.001" stroke-linecap="round" stroke-linejoin="round" d="
	M1202.807,1033.858l-0.899-2.171l-1.431-1.863l-1.863-1.431l-2.171-0.899l-2.329-0.307l-2.329,0.307l-2.171,0.899l-1.864,1.431
	l-1.431,1.863l-0.898,2.171l-0.307,2.329l0.307,2.33l0.898,2.17l1.431,1.864l1.864,1.431l2.171,0.898l2.329,0.307l2.329-0.307
	l2.171-0.898l1.863-1.431l1.431-1.864l0.899-2.17l0.307-2.33L1202.807,1033.858"/>
<path id="face4-interior" fill="none" stroke="#000000" stroke-width="0.001" stroke-linecap="round" stroke-linejoin="round" d="
	M980.732,311.235v-18h-18v18H980.732"/>
<path id="face5-interior" fill="none" stroke="#000000" stroke-width="0.001" stroke-linecap="round" stroke-linejoin="round" d="
	M980.732,419.235v-18h-18v18H980.732"/>
<path id="face6-interior" fill="none" stroke="#000000" stroke-width="0.001" stroke-linecap="round" stroke-linejoin="round" d="
	M125.475,338.785v-18h-18v18H125.475"/>
<path id="face7-interior" fill="none" stroke="#000000" stroke-width="0.001" stroke-linecap="round" stroke-linejoin="round" d="
	M125.475,482.785v-18h-18v18H125.475"/>
<path id="face8-interior" fill="none" stroke="#000000" stroke-width="0.001" stroke-linecap="round" stroke-linejoin="round" d="
	M125.475,734.785v-18h-18v18H125.475"/>
<path id="face9-interior" fill="none" stroke="#000000" stroke-width="0.001" stroke-linecap="round" stroke-linejoin="round" d="
	M125.475,410.785v-18h-18v18H125.475"/>
<path id="face10-interior" fill="none" stroke="#000000" stroke-width="0.001" stroke-linecap="round" stroke-linejoin="round" d="
	M125.475,374.785v-18h-18v18H125.475"/>
<path id="face11-interior" fill="none" stroke="#000000" stroke-width="0.001" stroke-linecap="round" stroke-linejoin="round" d="
	M125.475,626.785v-18h-18v18H125.475"/>
<path id="face12-interior" fill="none" stroke="#000000" stroke-width="0.001" stroke-linecap="round" stroke-linejoin="round" d="
	M125.475,662.785v-18h-18v18H125.475"/>
<path id="face13-interior" fill="none" stroke="#000000" stroke-width="0.001" stroke-linecap="round" stroke-linejoin="round" d="
	M125.475,518.785v-18h-18v18H125.475"/>
<path id="face14-interior" fill="none" stroke="#000000" stroke-width="0.001" stroke-linecap="round" stroke-linejoin="round" d="
	M125.475,698.785v-18h-18v18H125.475"/>
<path id="face15-interior" fill="none" stroke="#000000" stroke-width="0.001" stroke-linecap="round" stroke-linejoin="round" d="
	M125.475,446.785v-18h-18v18H125.475"/>
<path id="face16-interior" fill="none" stroke="#000000" stroke-width="0.001" stroke-linecap="round" stroke-linejoin="round" d="
	M125.475,554.785v-18h-18v18H125.475"/>
<path id="face17-interior" fill="none" stroke="#000000" stroke-width="0.001" stroke-linecap="round" stroke-linejoin="round" d="
	M125.475,590.785v-18h-18v18H125.475"/>
<path id="face18-interior" fill="none" stroke="#000000" stroke-width="0.001" stroke-linecap="round" stroke-linejoin="round" d="
	M386.475,320.785h18v-18h-18V320.785"/>
<path id="face19-interior" fill="none" stroke="#000000" stroke-width="0.001" stroke-linecap="round" stroke-linejoin="round" d="
	M260.475,716.785h-18v18h18V716.785"/>
<path id="face20-interior" fill="none" stroke="#000000" stroke-width="0.001" stroke-linecap="round" stroke-linejoin="round" d="
	M521.475,374.785v18h18v18h-18v18h18v18h-18v18h18v18h-18v18h18v18h-18v18h18v18h-18v18h18v18h-18v18h18v18h-18v18h18v18h-18v18h18
	v18h-18v18h18v18h-18v18h18v18h-540v-504h522v18h18v18h-18v18h18v18h-18v18h18v18H521.475 M1186.714,1115.707v18h-18v-18h-18v18h-18
	v-18h-18v18h-18v-18h-17.28v18h-38.056l-12.728-12.728l12.728-12.729l-12.219-12.219l-12.728,12.729l-13.237-13.237l12.728-12.728
	l-12.728-12.729l-12.728,12.729l-12.729-12.729l12.729-12.728l-12.729-12.729l-12.728,12.729l-12.729-12.729l12.729-12.728
	l-12.219-12.219l-12.729,12.728l-13.236-13.236l12.728-12.729L926.827,993.7l-12.729,12.728l-25.456-25.455l12.729-12.729
	l12.728,12.729l82.223-82.223l-12.728-12.729l13.236-13.236l12.729,12.728l89.095-89.096l-12.728-12.728l12.728-12.729
	l12.729,12.729l82.731-82.731l82.731,82.731l12.728-12.729l12.729,12.729l-12.729,12.728l89.096,89.096l12.728-12.728l13.237,13.236
	l-12.728,12.729l82.222,82.223l-12.728,12.728l12.728,12.728l-13.236,13.237l-12.729-12.728l-12.219,12.219l12.729,12.728
	l-12.729,12.728l-12.728-12.728l-12.728,12.728l12.728,12.729l-12.728,12.728l-12.729-12.728l-12.728,12.728l12.728,12.729
	l-13.236,13.236l-12.729-12.728l-12.219,12.219l12.728,12.728l-25.456,25.456h-34.854v-18h-17.28v18h-18v-18h-18v18h-18v-18h-18v18
	h-18v-18H1186.714 M470.724,789.589h18v18h18v-18h18v18h18v-18h18v18h18v-18h18v18h55.336v18h-43.488v18h43.488v18h-43.488v18
	h43.488v18h-43.488v18h43.488v18h-43.488v18h43.488v18h-43.488v18h43.488v18h-43.488v18h43.488v18h-43.488v18h43.488v18h-43.488v18
	h43.488v18h-43.488v18h43.488v18h-43.488v18h43.488v18h-43.488v18h-8.646v18h-18v-18h-18v18h-18v-18h-18v18h-18v-18h-18v18h-18v-18
	h-18v18h-18v-18h-18v18h-18v-18h-18v18h-18v-18H310.59v-18h43.455v-18H310.59v-18h43.455v-18H310.59v-18h43.455v-18H310.59v-18
	h43.455v-18H310.59v-18h43.455v-18H310.59v-18h43.455v-18H310.59v-18h43.455v-18H310.59v-18h43.455v-18H310.59v-18h43.455v-18
	H310.59v-18h43.455v-18H310.59v-18h43.455v-18h8.679v-18h18v18h18v-18h18v18h18v-18h18v18h18V789.589 M2.499,778.354h18v18h18v18h18
	v18h-18v18h18v18h-18v18h18v18h-18v18h18v18h-18v18h18v18h-18v18h18v18h-18v18h18v18h-18v18h18v18h-18v18h18v18h-18v18h18v18h-18v18
	h18v18.001h-18v18h-18v-18h-18v18h-18v-18h-18v18h-18v-18h-18v18h-18v-18h-18v18h-18v-18h-54v-18.001h43.456v-18h-43.456v-18h43.456
	v-18h-43.456v-18h43.456v-18h-43.456v-18h43.456v-18h-43.456v-18h43.456v-18h-43.456v-18h43.456v-18h-43.456v-18h43.456v-18h-43.456
	v-18h43.456v-18h-43.456v-18h43.456v-18h-43.456v-18h43.456v-18h-43.456v-18h43.456v-18h-7.456v-18h18v18h18v-18h18v18h18v-18h18v18
	h18v-18h18v18h18V778.354 M566.732,653.236v-18h-18v-18.001h18v-18h-18v-18h18v-17.999h-18v-18.001h18v-18h-18v-18h18v-18h-18v-18
	h18v-18h-18v-18h18v-18h-18v-18h18v-18h-18v-18h18v-18h-18v-18h18v-18h-18v-18h18v-18h-18v-18h540v504h-522v-17.999h-18v-18h18
	v-18.001h-18v-18h18v-18h-18v-17.999H566.732 M1510.525,549.272h18v18h-18v18h18v18h-18v18h18v18.72h-18v17.28h18v37.336
	l-13.237,13.236l-12.728-12.728l-12.219,12.219l12.728,12.729l-12.728,12.728l-12.729-12.728l-12.728,12.728l12.728,12.728
	l-12.728,12.729l-12.728-12.729l-12.729,12.729l12.729,12.728l-12.729,12.728l-12.728-12.728l-12.728,12.728l12.728,12.729
	l-12.728,12.728l-12.729-12.728l-12.219,12.219l12.729,12.728l-25.966,25.966l-12.728-12.729l12.728-12.728l-82.222-82.223
	l-12.729,12.728l-13.236-13.236l12.728-12.729l-89.096-89.096l-12.728,12.729l-12.729-12.729l12.729-12.728l-82.731-82.731
	l82.731-82.731l-12.729-12.728l12.729-12.729l12.728,12.729l88.587-88.587l-12.729-12.728l13.237-13.237l12.728,12.728
	l82.731-82.731l12.729,12.729l12.728-12.729l12.729,12.729l-12.729,12.728l12.219,12.219l12.729-12.728l13.236,13.237
	l-12.728,12.728l12.728,12.728l12.729-12.728l12.728,12.728l-12.728,12.729l12.728,12.728l12.728-12.728l12.729,12.728
	l-12.729,12.728l12.22,12.219l12.728-12.728l25.965,25.965v34.854h-18v17.28h18v18h-18v18h18v18h-18v18h18v18h-18V549.272"/>
<path id="face21-interior" fill="none" stroke="#000000" stroke-width="0.001" stroke-linecap="round" stroke-linejoin="round" d="
	M701.732,707.235h-18v18.001h18V707.235"/>
<path id="face22-interior" fill="none" stroke="#000000" stroke-width="0.001" stroke-linecap="round" stroke-linejoin="round" d="
	M845.732,707.235h-18v18.001h18V707.235"/>
<path id="face23-interior" fill="none" stroke="#000000" stroke-width="0.001" stroke-linecap="round" stroke-linejoin="round" d="
	M980.732,383.235v-18h-18v18H980.732"/>
<path id="face24-interior" fill="none" stroke="#000000" stroke-width="0.001" stroke-linecap="round" stroke-linejoin="round" d="
	M980.732,347.235v-18h-18v18H980.732"/>
<path id="face25-interior" fill="none" stroke="#000000" stroke-width="0.001" stroke-linecap="round" stroke-linejoin="round" d="
	M1124.566,946.892"/>
<path id="face26-interior" fill="none" stroke="#000000" stroke-width="0.001" stroke-linecap="round" stroke-linejoin="round" d="
	M260.475,320.785h-18v-18h18V320.785 M404.475,734.785h-18v-18h18V734.785"/>
<path id="face27-interior" fill="none" stroke="#000000" stroke-width="0.001" stroke-linecap="round" stroke-linejoin="round" d="
	M845.732,293.235h-18v18h18V293.235"/>
<path id="face28-interior" fill="none" stroke="#000000" stroke-width="0.001" stroke-linecap="round" stroke-linejoin="round" d="
	M404.475,734.785"/>
<path id="face29-interior" fill="none" stroke="#000000" stroke-width="0.001" stroke-linecap="round" stroke-linejoin="round" d="
	M488.724,807.589"/>
<path id="face30-interior" fill="none" stroke="#000000" stroke-width="0.001" stroke-linecap="round" stroke-linejoin="round" d="
	M20.499,796.354"/>
<path id="face31-interior" fill="none" stroke="#000000" stroke-width="0.001" stroke-linecap="round" stroke-linejoin="round" d="
	M980.732,437.235v18h-18v-18H980.732 M980.732,581.235v18h-18v-18H980.732 M962.732,545.235h18v18.001h-18V545.235 M962.732,509.235
	h18v18h-18V509.235 M962.732,473.235h18v18h-18V473.235 M962.732,689.235h18v18h-18V689.235 M980.732,617.235v18.001h-18v-18.001
	H980.732 M962.732,653.236h18v17.999h-18V653.236"/>
<path id="face32-interior" fill="none" stroke="#000000" stroke-width="0.001" stroke-linecap="round" stroke-linejoin="round" d="
	M1528.525,567.272"/>
<path id="face33-interior" fill="none" stroke="#000000" stroke-width="0.001" stroke-linecap="round" stroke-linejoin="round" d="
	M962.732,563.236"/>
<path id="face34-interior" fill="none" stroke="#000000" stroke-width="0.001" stroke-linecap="round" stroke-linejoin="round" d="
	M962.732,455.235"/>
<path id="face35-interior" fill="none" stroke="#000000" stroke-width="0.001" stroke-linecap="round" stroke-linejoin="round" d="
	M962.732,527.235"/>
<path id="face36-interior" fill="none" stroke="#000000" stroke-width="0.001" stroke-linecap="round" stroke-linejoin="round" d="
	M962.732,671.235"/>
<path id="face37-interior" fill="none" stroke="#000000" stroke-width="0.001" stroke-linecap="round" stroke-linejoin="round" d="
	M962.732,599.235"/>
<path id="face38-interior" fill="none" stroke="#000000" stroke-width="0.001" stroke-linecap="round" stroke-linejoin="round" d="
	M962.732,491.235"/>
<path id="face39-interior" fill="none" stroke="#000000" stroke-width="0.001" stroke-linecap="round" stroke-linejoin="round" d="
	M962.732,707.235"/>
<path id="face40-interior" fill="none" stroke="#000000" stroke-width="0.001" stroke-linecap="round" stroke-linejoin="round" d="
	M962.732,635.236"/>
<path id="face41-interior" fill="none" stroke="#000000" stroke-width="0.001" stroke-linecap="round" stroke-linejoin="round" d="
	M242.475,302.785"/>
<path id="face0-interior_1_" fill="none" stroke="#000000" stroke-width="0.001" stroke-linecap="round" stroke-linejoin="round" d="
	M211.587,796.354"/>
<path id="face1-interior_1_" fill="none" stroke="#000000" stroke-width="0.001" stroke-linecap="round" stroke-linejoin="round" d="
	M1158.113,990.611"/>
<path id="face2-interior_1_" fill="none" stroke="#000000" stroke-width="0.001" stroke-linecap="round" stroke-linejoin="round" d="
	M701.732,311.235"/>
<path id="face3-interior_1_" fill="none" stroke="#000000" stroke-width="0.001" stroke-linecap="round" stroke-linejoin="round" d="
	M1203.113,1036.188"/>
<path id="face4-interior_1_" fill="none" stroke="#000000" stroke-width="0.001" stroke-linecap="round" stroke-linejoin="round" d="
	M962.732,311.235"/>
<path id="face5-interior_1_" fill="none" stroke="#000000" stroke-width="0.001" stroke-linecap="round" stroke-linejoin="round" d="
	M962.732,419.235"/>
<path id="face6-interior_1_" fill="none" stroke="#000000" stroke-width="0.001" stroke-linecap="round" stroke-linejoin="round" d="
	M107.475,338.785"/>
<path id="face7-interior_1_" fill="none" stroke="#000000" stroke-width="0.001" stroke-linecap="round" stroke-linejoin="round" d="
	M107.475,482.785"/>
<path id="face8-interior_1_" fill="none" stroke="#000000" stroke-width="0.001" stroke-linecap="round" stroke-linejoin="round" d="
	M107.475,734.785"/>
<path id="face9-interior_1_" fill="none" stroke="#000000" stroke-width="0.001" stroke-linecap="round" stroke-linejoin="round" d="
	M107.475,410.785"/>
<path id="face10-interior_1_" fill="none" stroke="#000000" stroke-width="0.001" stroke-linecap="round" stroke-linejoin="round" d="
	M107.475,374.785"/>
<path id="face11-interior_1_" fill="none" stroke="#000000" stroke-width="0.001" stroke-linecap="round" stroke-linejoin="round" d="
	M107.475,626.785"/>
<path id="face12-interior_1_" fill="none" stroke="#000000" stroke-width="0.001" stroke-linecap="round" stroke-linejoin="round" d="
	M107.475,662.785"/>
<path id="face13-interior_1_" fill="none" stroke="#000000" stroke-width="0.001" stroke-linecap="round" stroke-linejoin="round" d="
	M107.475,518.785"/>
<path id="face14-interior_1_" fill="none" stroke="#000000" stroke-width="0.001" stroke-linecap="round" stroke-linejoin="round" d="
	M107.475,698.785"/>
<path id="face15-interior_1_" fill="none" stroke="#000000" stroke-width="0.001" stroke-linecap="round" stroke-linejoin="round" d="
	M107.475,446.785"/>
<path id="face16-interior_1_" fill="none" stroke="#000000" stroke-width="0.001" stroke-linecap="round" stroke-linejoin="round" d="
	M107.475,554.785"/>
<path id="face17-interior_1_" fill="none" stroke="#000000" stroke-width="0.001" stroke-linecap="round" stroke-linejoin="round" d="
	M107.475,590.785"/>
<path id="face18-interior_1_" fill="none" stroke="#000000" stroke-width="0.001" stroke-linecap="round" stroke-linejoin="round" d="
	M386.475,302.785"/>
<path id="face19-interior_1_" fill="none" stroke="#000000" stroke-width="0.001" stroke-linecap="round" stroke-linejoin="round" d="
	M260.475,734.785"/>
<path id="face20-interior_1_" fill="none" stroke="#000000" stroke-width="0.001" stroke-linecap="round" stroke-linejoin="round" d="
	M1510.525,531.272"/>
<path id="face21-interior_1_" fill="none" stroke="#000000" stroke-width="0.001" stroke-linecap="round" stroke-linejoin="round" d="
	M701.732,725.236"/>
<path id="face22-interior_1_" fill="none" stroke="#000000" stroke-width="0.001" stroke-linecap="round" stroke-linejoin="round" d="
	M845.732,725.236"/>
<path id="face23-interior_1_" fill="none" stroke="#000000" stroke-width="0.001" stroke-linecap="round" stroke-linejoin="round" d="
	M962.732,383.235"/>
<path id="face24-interior_1_" fill="none" stroke="#000000" stroke-width="0.001" stroke-linecap="round" stroke-linejoin="round" d="
	M962.732,347.235"/>
<path id="face25-interior_1_" fill="none" stroke="#000000" stroke-width="0.001" stroke-linecap="round" stroke-linejoin="round" d="
	M1124.566,946.892"/>
<path id="face26-interior_1_" fill="none" stroke="#000000" stroke-width="0.001" stroke-linecap="round" stroke-linejoin="round" d="
	M107.475,554.785"/>
<path id="face27-interior_1_" fill="none" stroke="#000000" stroke-width="0.001" stroke-linecap="round" stroke-linejoin="round" d="
	M845.732,311.235"/>
<path id="face28-interior_1_" fill="none" stroke="#000000" stroke-width="0.001" stroke-linecap="round" stroke-linejoin="round" d="
	M404.475,734.785"/>
<path id="face29-interior_1_" fill="none" stroke="#000000" stroke-width="0.001" stroke-linecap="round" stroke-linejoin="round" d="
	M488.724,807.589"/>
<path id="face30-interior_1_" fill="none" stroke="#000000" stroke-width="0.001" stroke-linecap="round" stroke-linejoin="round" d="
	M20.499,796.354"/>
<path id="face31-interior_1_" fill="none" stroke="#000000" stroke-width="0.001" stroke-linecap="round" stroke-linejoin="round" d="
	M962.732,671.235"/>
<path id="face32-interior_1_" fill="none" stroke="#000000" stroke-width="0.001" stroke-linecap="round" stroke-linejoin="round" d="
	M1528.525,567.272"/>
<path id="face33-interior_1_" fill="none" stroke="#000000" stroke-width="0.001" stroke-linecap="round" stroke-linejoin="round" d="
	M962.732,563.236"/>
<path id="face34-interior_1_" fill="none" stroke="#000000" stroke-width="0.001" stroke-linecap="round" stroke-linejoin="round" d="
	M962.732,455.235"/>
<path id="face35-interior_1_" fill="none" stroke="#000000" stroke-width="0.001" stroke-linecap="round" stroke-linejoin="round" d="
	M962.732,527.235"/>
<path id="face36-interior_1_" fill="none" stroke="#000000" stroke-width="0.001" stroke-linecap="round" stroke-linejoin="round" d="
	M962.732,671.235"/>
<path id="face37-interior_1_" fill="none" stroke="#000000" stroke-width="0.001" stroke-linecap="round" stroke-linejoin="round" d="
	M962.732,599.235"/>
<path id="face38-interior_1_" fill="none" stroke="#000000" stroke-width="0.001" stroke-linecap="round" stroke-linejoin="round" d="
	M962.732,491.235"/>
<path id="face39-interior_1_" fill="none" stroke="#000000" stroke-width="0.001" stroke-linecap="round" stroke-linejoin="round" d="
	M962.732,707.235"/>
<path id="face40-interior_1_" fill="none" stroke="#000000" stroke-width="0.001" stroke-linecap="round" stroke-linejoin="round" d="
	M962.732,635.236"/>
<path id="face41-interior_1_" fill="none" stroke="#000000" stroke-width="0.001" stroke-linecap="round" stroke-linejoin="round" d="
	M242.475,302.785"/>
</svg>
