<?xml version="1.0" encoding="utf-8"?>
<!-- Generator: Adobe Illustrator 16.0.0, SVG Export Plug-In . SVG Version: 6.00 Build 0)  -->
<!DOCTYPE svg PUBLIC "-//W3C//DTD SVG 1.1//EN" "http://www.w3.org/Graphics/SVG/1.1/DTD/svg11.dtd">
<svg version="1.1" id="Layer_1" xmlns="http://www.w3.org/2000/svg" xmlns:xlink="http://www.w3.org/1999/xlink" x="0px" y="0px"
	 width="1728px" height="1296px" viewBox="-187.653 244.347 1728 1296" enable-background="new -187.653 244.347 1728 1296"
	 xml:space="preserve">
<desc>Output from Flights of Ideas SVG Sketchup Plugin</desc>
<path id="face0-cut" fill="none" stroke="#000000" stroke-width="0.001" stroke-linecap="round" stroke-linejoin="round" d="
	M1232.17,423.732"/>
<path id="face1-cut" fill="none" stroke="#000000" stroke-width="0.001" stroke-linecap="round" stroke-linejoin="round" d="
	M763.735,409.743"/>
<path id="face2-cut" fill="none" stroke="#000000" stroke-width="0.001" stroke-linecap="round" stroke-linejoin="round" d="
	M664.233,546.695"/>
<path id="face3-cut" fill="none" stroke="#000000" stroke-width="0.001" stroke-linecap="round" stroke-linejoin="round" d="
	M319.694,454.671"/>
<path id="face4-cut" fill="none" stroke="#000000" stroke-width="0.001" stroke-linecap="round" stroke-linejoin="round" d="
	M1397.809,430.685"/>
<path id="face5-cut" fill="none" stroke="#000000" stroke-width="0.001" stroke-linecap="round" stroke-linejoin="round" d="
	M1531.504,438.294"/>
<path id="face6-cut" fill="none" stroke="#000000" stroke-width="0.001" stroke-linecap="round" stroke-linejoin="round" d="
	M657.358,525.535"/>
<path id="face7-cut" fill="none" stroke="#000000" stroke-width="0.001" stroke-linecap="round" stroke-linejoin="round" d="
	M1531.87,425.496"/>
<path id="face9-cut" fill="none" stroke="#000000" stroke-width="0.001" stroke-linecap="round" stroke-linejoin="round" d="
	M-38.324,469.757"/>
<path id="face10-cut" fill="none" stroke="#000000" stroke-width="0.001" stroke-linecap="round" stroke-linejoin="round" d="
	M936.243,419.143"/>
<path id="face11-cut" fill="none" stroke="#000000" stroke-width="0.001" stroke-linecap="round" stroke-linejoin="round" d="
	M1380.203,424.822"/>
<path id="face12-cut" fill="none" stroke="#000000" stroke-width="0.001" stroke-linecap="round" stroke-linejoin="round" d="
	M1228.729,486.462"/>
<path id="face13-cut" fill="none" stroke="#000000" stroke-width="0.001" stroke-linecap="round" stroke-linejoin="round" d="
	M657.358,293.951"/>
<path id="face14-cut" fill="none" stroke="#000000" stroke-width="0.001" stroke-linecap="round" stroke-linejoin="round" d="
	M1083.691,423.499"/>
<path id="face15-cut" fill="none" stroke="#000000" stroke-width="0.001" stroke-linecap="round" stroke-linejoin="round" d="
	M1246.729,486.462"/>
<path id="face16-cut" fill="none" stroke="#000000" stroke-width="0.001" stroke-linecap="round" stroke-linejoin="round" d="
	M521.236,481.307"/>
<path id="face17-cut" fill="none" stroke="#000000" stroke-width="0.001" stroke-linecap="round" stroke-linejoin="round" d="
	M521.236,338.18"/>
<path id="face18-cut" fill="none" stroke="#000000" stroke-width="0.001" stroke-linecap="round" stroke-linejoin="round" d="
	M1120.729,486.462"/>
<path id="face0-interior" fill="none" stroke="#000000" stroke-width="0.001" stroke-linecap="round" stroke-linejoin="round" d="
	M1232.17,348.091h-18v-18h18v-75.642h-144v75.642h18v18h-18v75.642h144V348.091"/>
<path id="face1-interior" fill="none" stroke="#000000" stroke-width="0.001" stroke-linecap="round" stroke-linejoin="round" d="
	M719.274,348.548l-14.562,10.58l36.773,50.615l-36.773,50.614l14.562,10.58l44.461-61.194L719.274,348.548"/>
<path id="face2-interior" fill="none" stroke="#000000" stroke-width="0.001" stroke-linecap="round" stroke-linejoin="round" d="
	M485.236,312.024v195.438l185.872,60.394l114.876-158.112L671.108,251.631L485.236,312.024 M575.176,517.759l-71.939-23.375v-75.641
	h18v62.563l59.502,19.333L575.176,517.759 M575.176,301.728l5.562,17.119l-59.502,19.333v62.563h-18v-75.642L575.176,301.728
	 M708.694,333.985l-14.562,10.581l-36.773-50.615l-59.502,19.333l-5.562-17.119l71.938-23.374L708.694,333.985 M592.295,523.32
	l5.562-17.118l59.502,19.333l36.773-50.615l14.562,10.58l-44.461,61.195L592.295,523.32"/>
<path id="face3-interior" fill="none" stroke="#000000" stroke-width="0.001" stroke-linecap="round" stroke-linejoin="round" d="
	M314.133,471.79l17.118,5.562l5.562-17.119l59.501,19.333l36.774-50.614l14.562,10.58l10.58-14.562l-14.562-10.58l36.773-50.614
	l-36.773-50.615l14.562-10.58l-10.58-14.562l-14.562,10.58l-36.774-50.615l-59.501,19.334l-5.562-17.119l-17.118,5.562l5.562,17.119
	l-59.501,19.333v62.562h-18v18.001h18v62.562l59.501,19.333L314.133,471.79"/>
<path id="face4-interior" fill="none" stroke="#000000" stroke-width="0.001" stroke-linecap="round" stroke-linejoin="round" d="
	M1271.493,430.685l57.868,79.648l-14.562,10.58l10.58,14.562l14.562-10.58l57.867,79.648v-57.535h-17.999v-26.3h17.999v-18h-17.999
	v-26.3h17.999v-45.725H1271.493"/>
<path id="face5-interior" fill="none" stroke="#000000" stroke-width="0.001" stroke-linecap="round" stroke-linejoin="round" d="
	M1405.188,438.294l57.868,79.648l-14.562,10.58l10.58,14.562l14.562-10.58l57.868,79.648v-57.535h-18v-26.3h18v-18h-18v-26.3h18
	v-45.725H1405.188"/>
<path id="face6-interior" fill="none" stroke="#000000" stroke-width="0.001" stroke-linecap="round" stroke-linejoin="round" d="
	M657.358,525.535"/>
<path id="face7-interior" fill="none" stroke="#000000" stroke-width="0.001" stroke-linecap="round" stroke-linejoin="round" d="
	M1531.87,349.854h-18v-18h18v-75.642h-144v75.642h18v18h-18v75.642h144V349.854"/>
<path id="face8-interior" fill="none" stroke="#000000" stroke-width="0.001" stroke-linecap="round" stroke-linejoin="round" d="
	M1065.691,347.857h18v75.642h-144v-75.642h18v-18h-18v-75.641h144v75.641h-18V347.857 M222.175,385.115l-99.502,136.953
	l-160.997-52.312V300.475l160.997-52.311L222.175,385.115 M918.243,343.502h18v75.641h-144v-75.641h18v-18h-18V249.86h144v75.642
	h-18V343.502 M1255.729,512.762h-162v-70.6h162V512.762 M1362.203,349.181h18v75.642h-144v-75.642h18v-18h-18V255.54h144v75.641h-18
	V349.181"/>
<path id="face9-interior" fill="none" stroke="#000000" stroke-width="0.001" stroke-linecap="round" stroke-linejoin="round" d="
	M-38.324,469.757"/>
<path id="face10-interior" fill="none" stroke="#000000" stroke-width="0.001" stroke-linecap="round" stroke-linejoin="round" d="
	M936.243,419.143"/>
<path id="face11-interior" fill="none" stroke="#000000" stroke-width="0.001" stroke-linecap="round" stroke-linejoin="round" d="
	M1380.203,424.822"/>
<path id="face12-interior" fill="none" stroke="#000000" stroke-width="0.001" stroke-linecap="round" stroke-linejoin="round" d="
	M1102.729,468.462h18v18h-18V468.462 M1228.729,468.462h18v18h-18V468.462"/>
<path id="face13-interior" fill="none" stroke="#000000" stroke-width="0.001" stroke-linecap="round" stroke-linejoin="round" d="
	M657.358,293.951"/>
<path id="face14-interior" fill="none" stroke="#000000" stroke-width="0.001" stroke-linecap="round" stroke-linejoin="round" d="
	M1083.691,423.499"/>
<path id="face15-interior" fill="none" stroke="#000000" stroke-width="0.001" stroke-linecap="round" stroke-linejoin="round" d="
	M1246.729,486.462"/>
<path id="face16-interior" fill="none" stroke="#000000" stroke-width="0.001" stroke-linecap="round" stroke-linejoin="round" d="
	M521.236,481.307"/>
<path id="face17-interior" fill="none" stroke="#000000" stroke-width="0.001" stroke-linecap="round" stroke-linejoin="round" d="
	M521.236,338.18"/>
<path id="face18-interior" fill="none" stroke="#000000" stroke-width="0.001" stroke-linecap="round" stroke-linejoin="round" d="
	M1120.729,486.462"/>
<path id="face0-interior_1_" fill="none" stroke="#000000" stroke-width="0.001" stroke-linecap="round" stroke-linejoin="round" d="
	M1232.17,423.732"/>
<path id="face1-interior_1_" fill="none" stroke="#000000" stroke-width="0.001" stroke-linecap="round" stroke-linejoin="round" d="
	M763.735,409.743"/>
<path id="face2-interior_1_" fill="none" stroke="#000000" stroke-width="0.001" stroke-linecap="round" stroke-linejoin="round" d="
	M664.233,546.695"/>
<path id="face3-interior_1_" fill="none" stroke="#000000" stroke-width="0.001" stroke-linecap="round" stroke-linejoin="round" d="
	M319.694,454.671"/>
<path id="face4-interior_1_" fill="none" stroke="#000000" stroke-width="0.001" stroke-linecap="round" stroke-linejoin="round" d="
	M1397.809,430.685"/>
<path id="face5-interior_1_" fill="none" stroke="#000000" stroke-width="0.001" stroke-linecap="round" stroke-linejoin="round" d="
	M1531.504,438.294"/>
<path id="face6-interior_1_" fill="none" stroke="#000000" stroke-width="0.001" stroke-linecap="round" stroke-linejoin="round" d="
	M657.358,525.535"/>
<path id="face7-interior_1_" fill="none" stroke="#000000" stroke-width="0.001" stroke-linecap="round" stroke-linejoin="round" d="
	M1531.87,425.496"/>
<path id="face8-interior_1_" fill="none" stroke="#000000" stroke-width="0.001" stroke-linecap="round" stroke-linejoin="round" d="
	M1362.203,331.181"/>
<path id="face9-interior_1_" fill="none" stroke="#000000" stroke-width="0.001" stroke-linecap="round" stroke-linejoin="round" d="
	M-38.324,469.757"/>
<path id="face10-interior_1_" fill="none" stroke="#000000" stroke-width="0.001" stroke-linecap="round" stroke-linejoin="round" d="
	M936.243,419.143"/>
<path id="face11-interior_1_" fill="none" stroke="#000000" stroke-width="0.001" stroke-linecap="round" stroke-linejoin="round" d="
	M1380.203,424.822"/>
<path id="face12-interior_1_" fill="none" stroke="#000000" stroke-width="0.001" stroke-linecap="round" stroke-linejoin="round" d="
	M1228.729,486.462"/>
<path id="face13-interior_1_" fill="none" stroke="#000000" stroke-width="0.001" stroke-linecap="round" stroke-linejoin="round" d="
	M657.358,293.951"/>
<path id="face14-interior_1_" fill="none" stroke="#000000" stroke-width="0.001" stroke-linecap="round" stroke-linejoin="round" d="
	M1083.691,423.499"/>
<path id="face15-interior_1_" fill="none" stroke="#000000" stroke-width="0.001" stroke-linecap="round" stroke-linejoin="round" d="
	M1246.729,486.462"/>
<path id="face16-interior_1_" fill="none" stroke="#000000" stroke-width="0.001" stroke-linecap="round" stroke-linejoin="round" d="
	M521.236,481.307"/>
<path id="face17-interior_1_" fill="none" stroke="#000000" stroke-width="0.001" stroke-linecap="round" stroke-linejoin="round" d="
	M521.236,338.18"/>
<path id="face18-interior_1_" fill="none" stroke="#000000" stroke-width="0.001" stroke-linecap="round" stroke-linejoin="round" d="
	M1120.729,486.462"/>
</svg>
