<?xml version="1.0" standalone="no"?>
<!DOCTYPE svg PUBLIC "-//W3C//DTD SVG 1.1//EN" "http://www.w3.org/Graphics/SVG/1.1/DTD/svg11.dtd">
<svg width="477.20000000000005mm" height="629.6000000000001mm"
 viewBox="0 0 477.20000000000005 629.6000000000001"
 xmlns="http://www.w3.org/2000/svg" version="1.1"
 xmlns:xlink="http://www.w3.org/1999/xlink">
<desc>Output from Flights of Ideas SVG Sketchup Plugin</desc>

  <path id="face0-cut"
 style="fill:none;stroke:#000000;stroke-width:1;stroke-miterlimit:4;stroke-dasharray:none;stroke-linejoin:round;stroke-linecap:round"
        d="M 430.6014369437603,510.88210090399224 M 430.6014369437602,504.5321009039922 M 436.9514369437601,504.5321009039921 M 436.9514369437602,510.88210090399224 M 463.6359277602178,510.88210090399224 M 463.63592776021767,460.08210090399217 M 436.9514369437601,460.08210090399217 M 436.9514369437602,466.4321009039922 M 430.60143694376006,466.4321009039923 M 430.60143694376006,460.0821009039923 M 403.91694612730237,460.0821009039923 M 403.9169461273025,510.88210090399224 "
  />
  <path id="face1-cut"
 style="fill:none;stroke:#000000;stroke-width:1;stroke-miterlimit:4;stroke-dasharray:none;stroke-linejoin:round;stroke-linecap:round"
        d="M 430.44012584837446,329.94398612354183 M 426.70768949631724,324.80672820926105 M 408.85191929161795,337.77970463326596 M 390.99614908691876,324.80672820926105 M 387.26371273486154,329.94398612354195 M 408.85191929161795,345.6287362903896 "
  />
  <path id="face2-cut"
 style="fill:none;stroke:#000000;stroke-width:1;stroke-miterlimit:4;stroke-dasharray:none;stroke-linejoin:round;stroke-linecap:round"
        d="M 443.32495516090955,247.38067297614214 M 374.3788834223262,247.38067297614225 M 353.0733755597098,312.95228377607515 M 408.85191929161795,353.47776794751326 M 464.6304630235262,312.95228377607503 M 370.7464673266327,279.10913185115254 M 378.9924284751604,253.73067297614227 M 405.676919291618,253.73067297614216 M 405.676919291618,260.0806729761422 M 383.60597352799437,260.0806729761421 M 376.7856762051068,281.0713897654334 M 446.9573712566032,279.1091318511524 M 440.91816237812895,281.0713897654333 M 434.0978650552415,260.0806729761422 M 412.026919291618,260.0806729761422 M 412.0269192916181,253.73067297614216 M 438.7114101080756,253.73067297614216 M 435.57738376265536,326.2115497714846 M 431.84494741059814,321.0742918572037 M 449.70071761529744,308.1013154331988 M 442.88042029241,287.11059864390757 M 448.91962917088415,285.1483407296266 M 457.16559031941176,310.5267996046369 M 387.26371273486154,329.94398612354195 M 390.99614908691876,324.80672820926105 M 408.85191929161795,337.77970463326596 M 426.70768949631724,324.80672820926105 M 430.44012584837446,329.94398612354183 M 408.85191929161795,345.6287362903896 M 368.78420941235186,285.1483407296268 M 374.823418290826,287.1105986439076 M 368.00312096793857,308.1013154331988 M 385.85889117263775,321.07429185720383 M 382.12645482058053,326.2115497714847 M 360.53824826382413,310.526799604637 "
  />
  <path id="face3-cut"
 style="fill:none;stroke:#000000;stroke-width:1;stroke-miterlimit:4;stroke-dasharray:none;stroke-linejoin:round;stroke-linecap:round"
        d="M 386.96300770671326,187.01892441103695 M 385.00074979243243,193.05813328951115 M 391.03995867090657,195.02039120379214 M 384.21966134801914,216.01110799308339 M 402.0754315527182,228.9840844170883 M 398.3429952006611,234.12134233136914 M 403.480253114942,237.85377868342624 M 407.2126894669991,232.71652076914546 M 425.0684596716985,245.6894971931505 M 442.9242298763978,232.7165207691454 M 446.6566662284549,237.8537786834264 M 451.7939241427358,234.1213423313693 M 448.0614877906786,228.9840844170883 M 465.917257995378,216.01110799308339 M 459.09696067249047,195.02039120379214 M 465.1361695509647,193.05813328951132 M 463.1739116366839,187.01892441103712 M 457.1347027582095,188.98118232531806 M 450.3144054353221,167.99046553602665 M 428.2434596716987,167.99046553602687 M 428.2434596716986,161.64046553602685 M 421.89345967169857,161.64046553602685 M 421.8934596716987,167.9904655360267 M 399.82251390807494,167.99046553602682 M 393.0022165851875,188.98118232531795 "
  />
  <path id="face4-cut"
 style="fill:none;stroke:#000000;stroke-width:1;stroke-miterlimit:4;stroke-dasharray:none;stroke-linejoin:round;stroke-linecap:round"
        d="M 401.4641479618499,524.7545277119688 M 373.36597261899044,545.1690470579078 M 369.6335362669331,540.0317891436268 M 364.4962783526522,543.7642254956842 M 368.22871470470943,548.9014834099651 M 340.13053936184997,569.3160027559042 M 360.42769613916835,569.316002755904 M 360.42769613916835,562.9660027559041 M 369.7055951975741,562.9660027559041 M 369.7055951975741,569.316002755904 M 376.0555951975741,569.316002755904 M 376.0555951975741,562.9660027559041 M 385.3334942559799,562.966002755904 M 385.3334942559799,569.316002755904 M 401.46414796185,569.316002755904 "
  />
  <path id="face5-cut"
 style="fill:none;stroke:#000000;stroke-width:1;stroke-miterlimit:4;stroke-dasharray:none;stroke-linejoin:round;stroke-linecap:round"
        d="M 398.7797488483708,571.9189822942359 M 370.6815735055113,592.3335016401751 M 366.949137153454,587.1962437258941 M 361.8118792391731,590.9286800779514 M 365.54431559123043,596.0659379922323 M 337.44614024837097,616.4804573381714 M 357.74329702568923,616.4804573381713 M 357.74329702568923,610.1304573381713 M 367.021196084095,610.1304573381713 M 367.021196084095,616.4804573381713 M 373.371196084095,616.4804573381713 M 373.371196084095,610.1304573381713 M 382.64909514250076,610.1304573381713 M 382.64909514250076,616.4804573381712 M 398.779748848371,616.4804573381712 "
  />
  <path id="face6-cut"
 style="fill:none;stroke:#000000;stroke-width:1;stroke-miterlimit:4;stroke-dasharray:none;stroke-linejoin:round;stroke-linecap:round"
        d="M 374.823418290826,287.1105986439076 M 368.78420941235186,285.1483407296268 M 360.53824826382413,310.526799604637 M 382.12645482058053,326.2115497714847 M 385.85889117263775,321.07429185720383 M 368.00312096793857,308.1013154331988 "
  />
  <path id="face7-cut"
 style="fill:none;stroke:#000000;stroke-width:1;stroke-miterlimit:4;stroke-dasharray:none;stroke-linejoin:round;stroke-linecap:round"
        d="M 429.979268730473,616.6097738606373 M 429.9792687304729,610.2597738606372 M 436.3292687304729,610.2597738606372 M 436.329268730473,616.6097738606373 M 463.0137595469306,616.6097738606372 M 463.0137595469306,565.8097738606373 M 436.3292687304729,565.8097738606373 M 436.329268730473,572.1597738606373 M 429.9792687304729,572.1597738606373 M 429.9792687304729,565.8097738606374 M 403.2947779140153,565.8097738606374 M 403.2947779140154,616.6097738606373 "
  />
  <path id="face8-cut"
 style="fill:none;stroke:#000000;stroke-width:1;stroke-miterlimit:4;stroke-dasharray:none;stroke-linejoin:round;stroke-linecap:round"
        d="M 10.000000000000085,10.0 L 10.0,619.6000000000001 L 467.20000000000005,619.5999999999999 L 467.20000000000005,10.000000000000085 L 10.000000000000085,10.0 M 385.00074979243243,193.05813328951115 M 386.96300770671326,187.01892441103695 M 393.0022165851875,188.98118232531795 M 399.82251390807494,167.99046553602682 M 421.8934596716987,167.9904655360267 M 421.89345967169857,161.64046553602685 M 428.2434596716986,161.64046553602685 M 428.2434596716987,167.99046553602687 M 450.3144054353221,167.99046553602665 M 457.1347027582095,188.98118232531806 M 463.1739116366839,187.01892441103712 M 465.1361695509647,193.05813328951132 M 459.09696067249047,195.02039120379214 M 465.917257995378,216.01110799308339 M 448.0614877906786,228.9840844170883 M 451.7939241427358,234.1213423313693 M 446.6566662284549,237.8537786834264 M 442.9242298763978,232.7165207691454 M 425.0684596716985,245.6894971931505 M 407.2126894669991,232.71652076914546 M 403.480253114942,237.85377868342624 M 398.3429952006611,234.12134233136914 M 402.0754315527182,228.9840844170883 M 384.21966134801914,216.01110799308339 M 391.03995867090657,195.02039120379214 M 430.68365257889093,452.1524076041316 M 430.68365257889093,458.50240760413163 M 403.99916176243323,458.50240760413163 M 403.9991617624331,407.7024076041317 M 430.6836525788908,407.7024076041317 M 430.6836525788908,414.0524076041317 M 437.03365257889084,414.0524076041316 M 437.03365257889084,407.70240760413157 M 463.7181433953484,407.70240760413157 M 463.71814339534853,458.50240760413163 M 437.03365257889084,458.50240760413163 M 437.03365257889084,452.1524076041315 M 374.3788834223262,247.38067297614225 M 443.32495516090955,247.38067297614214 M 464.6304630235262,312.95228377607503 M 408.85191929161795,353.47776794751326 M 353.0733755597098,312.95228377607515 M 370.6815735055113,592.3335016401751 M 398.7797488483708,571.9189822942359 M 398.779748848371,616.4804573381712 M 382.64909514250076,616.4804573381712 M 382.64909514250076,610.1304573381713 M 373.371196084095,610.1304573381713 M 373.371196084095,616.4804573381713 M 367.021196084095,616.4804573381713 M 367.021196084095,610.1304573381713 M 357.74329702568923,610.1304573381713 M 357.74329702568923,616.4804573381713 M 337.44614024837097,616.4804573381714 M 365.54431559123043,596.0659379922323 M 361.8118792391731,590.9286800779514 M 366.949137153454,587.1962437258941 M 373.36597261899044,545.1690470579078 M 401.4641479618499,524.7545277119688 M 401.46414796185,569.316002755904 M 385.3334942559799,569.316002755904 M 385.3334942559799,562.966002755904 M 376.0555951975741,562.9660027559041 M 376.0555951975741,569.316002755904 M 369.7055951975741,569.316002755904 M 369.7055951975741,562.9660027559041 M 360.42769613916835,562.9660027559041 M 360.42769613916835,569.316002755904 M 340.13053936184997,569.3160027559042 M 368.22871470470943,548.9014834099651 M 364.4962783526522,543.7642254956842 M 369.6335362669331,540.0317891436268 M 429.9792687304729,610.2597738606372 M 429.979268730473,616.6097738606373 M 403.2947779140154,616.6097738606373 M 403.2947779140153,565.8097738606374 M 429.9792687304729,565.8097738606374 M 429.9792687304729,572.1597738606373 M 436.329268730473,572.1597738606373 M 436.3292687304729,565.8097738606373 M 463.0137595469306,565.8097738606373 M 463.0137595469306,616.6097738606372 M 436.329268730473,616.6097738606373 M 436.3292687304729,610.2597738606372 M 430.6014369437602,504.5321009039922 M 430.6014369437603,510.88210090399224 M 403.9169461273025,510.88210090399224 M 403.91694612730237,460.0821009039923 M 430.60143694376006,460.0821009039923 M 430.60143694376006,466.4321009039923 M 436.9514369437602,466.4321009039922 M 436.9514369437601,460.08210090399217 M 463.63592776021767,460.08210090399217 M 463.6359277602178,510.88210090399224 M 436.9514369437602,510.88210090399224 M 436.9514369437601,504.5321009039921 M 417.5398631105953,154.57830608439883 M 369.2261920828015,119.47636939864607 M 387.6803722941378,62.68024277015148 M 447.39935392705297,62.68024277015148 M 465.85353413838914,119.47636939864607 M 432.22046984986866,400.13569214695036 M 432.22046984986866,406.48569214695044 M 405.53597903341097,406.48569214695044 M 405.53597903341085,355.68569214695043 M 432.22046984986855,355.68569214695043 M 432.22046984986855,362.03569214695045 M 438.5704698498686,362.03569214695034 M 438.5704698498686,355.6856921469504 M 465.25496066632616,355.6856921469504 M 465.25496066632627,406.4856921469503 M 438.5704698498686,406.48569214695044 M 438.5704698498686,400.13569214695025 M 372.5093074607181,519.1931012280004 M 372.509307460718,462.04310122800047 M 397.4151055775295,462.04310122800047 M 397.41510557752963,519.1931012280004 M 430.2169187698985,556.7548276846397 M 430.2169187698986,563.1048276846398 M 403.5324279534409,563.1048276846398 M 403.5324279534408,512.3048276846398 M 430.2169187698985,512.3048276846398 M 430.2169187698985,518.6548276846399 M 436.5669187698986,518.6548276846397 M 436.5669187698985,512.3048276846398 M 463.2514095863561,512.3048276846398 M 463.2514095863561,563.1048276846398 M 436.5669187698986,563.1048276846398 M 436.5669187698985,556.7548276846396 "
  />
  <path id="face9-cut"
 style="fill:none;stroke:#000000;stroke-width:1;stroke-miterlimit:4;stroke-dasharray:none;stroke-linejoin:round;stroke-linecap:round"
        d="M 369.2261920828015,119.47636939864607 M 417.5398631105953,154.57830608439883 M 465.85353413838914,119.47636939864607 M 447.39935392705297,62.68024277015148 M 387.6803722941378,62.68024277015148 "
  />
  <path id="face10-cut"
 style="fill:none;stroke:#000000;stroke-width:1;stroke-miterlimit:4;stroke-dasharray:none;stroke-linejoin:round;stroke-linecap:round"
        d="M 432.22046984986866,406.48569214695044 M 432.22046984986866,400.13569214695036 M 438.5704698498686,400.13569214695025 M 438.5704698498686,406.48569214695044 M 465.25496066632627,406.4856921469503 M 465.25496066632616,355.6856921469504 M 438.5704698498686,355.6856921469504 M 438.5704698498686,362.03569214695034 M 432.22046984986855,362.03569214695045 M 432.22046984986855,355.68569214695043 M 405.53597903341085,355.68569214695043 M 405.53597903341097,406.48569214695044 "
  />
  <path id="face11-cut"
 style="fill:none;stroke:#000000;stroke-width:1;stroke-miterlimit:4;stroke-dasharray:none;stroke-linejoin:round;stroke-linecap:round"
        d="M 430.2169187698986,563.1048276846398 M 430.2169187698985,556.7548276846397 M 436.5669187698985,556.7548276846396 M 436.5669187698986,563.1048276846398 M 463.2514095863561,563.1048276846398 M 463.2514095863561,512.3048276846398 M 436.5669187698985,512.3048276846398 M 436.5669187698986,518.6548276846397 M 430.2169187698985,518.6548276846399 M 430.2169187698985,512.3048276846398 M 403.5324279534408,512.3048276846398 M 403.5324279534409,563.1048276846398 "
  />
  <path id="face12-cut"
 style="fill:none;stroke:#000000;stroke-width:1;stroke-miterlimit:4;stroke-dasharray:none;stroke-linejoin:round;stroke-linecap:round"
        d="M 372.509307460718,462.04310122800047 M 372.5093074607181,519.1931012280004 M 397.41510557752963,519.1931012280004 M 397.4151055775295,462.04310122800047 M 388.13720651912377,465.21810122800053 M 388.13720651912377,471.56810122800056 M 381.78720651912374,471.56810122800056 M 381.78720651912374,465.21810122800053 M 388.1372065191239,509.66810122800047 M 388.1372065191239,516.0181012280004 M 381.78720651912386,516.0181012280004 M 381.78720651912386,509.6681012280006 "
  />
  <path id="face13-cut"
 style="fill:none;stroke:#000000;stroke-width:1;stroke-miterlimit:4;stroke-dasharray:none;stroke-linejoin:round;stroke-linecap:round"
        d="M 431.84494741059814,321.0742918572037 M 435.57738376265536,326.2115497714846 M 457.16559031941176,310.5267996046369 M 448.91962917088415,285.1483407296266 M 442.88042029241,287.11059864390757 M 449.70071761529744,308.1013154331988 "
  />
  <path id="face14-cut"
 style="fill:none;stroke:#000000;stroke-width:1;stroke-miterlimit:4;stroke-dasharray:none;stroke-linejoin:round;stroke-linecap:round"
        d="M 430.68365257889093,458.50240760413163 M 430.68365257889093,452.1524076041316 M 437.03365257889084,452.1524076041315 M 437.03365257889084,458.50240760413163 M 463.71814339534853,458.50240760413163 M 463.7181433953484,407.70240760413157 M 437.03365257889084,407.70240760413157 M 437.03365257889084,414.0524076041316 M 430.6836525788908,414.0524076041317 M 430.6836525788908,407.7024076041317 M 403.9991617624331,407.7024076041317 M 403.99916176243323,458.50240760413163 "
  />
  <path id="face15-cut"
 style="fill:none;stroke:#000000;stroke-width:1;stroke-miterlimit:4;stroke-dasharray:none;stroke-linejoin:round;stroke-linecap:round"
        d="M 388.1372065191239,516.0181012280004 M 388.1372065191239,509.66810122800047 M 381.78720651912386,509.6681012280006 M 381.78720651912386,516.0181012280004 "
  />
  <path id="face16-cut"
 style="fill:none;stroke:#000000;stroke-width:1;stroke-miterlimit:4;stroke-dasharray:none;stroke-linejoin:round;stroke-linecap:round"
        d="M 405.676919291618,260.0806729761422 M 405.676919291618,253.73067297614216 M 378.9924284751604,253.73067297614227 M 370.7464673266327,279.10913185115254 M 376.7856762051068,281.0713897654334 M 383.60597352799437,260.0806729761421 "
  />
  <path id="face17-cut"
 style="fill:none;stroke:#000000;stroke-width:1;stroke-miterlimit:4;stroke-dasharray:none;stroke-linejoin:round;stroke-linecap:round"
        d="M 440.91816237812895,281.0713897654333 M 446.9573712566032,279.1091318511524 M 438.7114101080756,253.73067297614216 M 412.0269192916181,253.73067297614216 M 412.026919291618,260.0806729761422 M 434.0978650552415,260.0806729761422 "
  />
  <path id="face18-cut"
 style="fill:none;stroke:#000000;stroke-width:1;stroke-miterlimit:4;stroke-dasharray:none;stroke-linejoin:round;stroke-linecap:round"
        d="M 388.13720651912377,471.56810122800056 M 388.13720651912377,465.21810122800053 M 381.78720651912374,465.21810122800053 M 381.78720651912374,471.56810122800056 "
  />
  <path id="face0-interior"
 style="fill:none;stroke:#000000;stroke-width:1;stroke-miterlimit:4;stroke-dasharray:none;stroke-linejoin:round;stroke-linecap:round"
        d="M 430.6014369437603,510.88210090399224 L 430.6014369437602,504.5321009039922 L 436.9514369437601,504.5321009039921 L 436.9514369437602,510.88210090399224 L 463.6359277602178,510.88210090399224 L 463.63592776021767,460.08210090399217 L 436.9514369437601,460.08210090399217 L 436.9514369437602,466.4321009039922 L 430.60143694376006,466.4321009039923 L 430.60143694376006,460.0821009039923 L 403.91694612730237,460.0821009039923 L 403.9169461273025,510.88210090399224 L 430.6014369437603,510.88210090399224 "
  />
  <path id="face1-interior"
 style="fill:none;stroke:#000000;stroke-width:1;stroke-miterlimit:4;stroke-dasharray:none;stroke-linejoin:round;stroke-linecap:round"
        d="M 430.44012584837446,329.94398612354183 L 426.70768949631724,324.80672820926105 L 408.85191929161795,337.77970463326596 L 390.99614908691876,324.80672820926105 L 387.26371273486154,329.94398612354195 L 408.85191929161795,345.6287362903896 L 430.44012584837446,329.94398612354183 "
  />
  <path id="face2-interior"
 style="fill:none;stroke:#000000;stroke-width:1;stroke-miterlimit:4;stroke-dasharray:none;stroke-linejoin:round;stroke-linecap:round"
        d="M 443.32495516090955,247.38067297614214 L 374.3788834223262,247.38067297614225 L 353.0733755597098,312.95228377607515 L 408.85191929161795,353.47776794751326 L 464.6304630235262,312.95228377607503 L 443.32495516090955,247.38067297614214 M 370.7464673266327,279.10913185115254 L 378.9924284751604,253.73067297614227 L 405.676919291618,253.73067297614216 L 405.676919291618,260.0806729761422 L 383.60597352799437,260.0806729761421 L 376.7856762051068,281.0713897654334 L 370.7464673266327,279.10913185115254 M 446.9573712566032,279.1091318511524 L 440.91816237812895,281.0713897654333 L 434.0978650552415,260.0806729761422 L 412.026919291618,260.0806729761422 L 412.0269192916181,253.73067297614216 L 438.7114101080756,253.73067297614216 L 446.9573712566032,279.1091318511524 M 435.57738376265536,326.2115497714846 L 431.84494741059814,321.0742918572037 L 449.70071761529744,308.1013154331988 L 442.88042029241,287.11059864390757 L 448.91962917088415,285.1483407296266 L 457.16559031941176,310.5267996046369 L 435.57738376265536,326.2115497714846 M 387.26371273486154,329.94398612354195 M 390.99614908691876,324.80672820926105 M 408.85191929161795,337.77970463326596 M 426.70768949631724,324.80672820926105 M 430.44012584837446,329.94398612354183 M 408.85191929161795,345.6287362903896 M 368.78420941235186,285.1483407296268 L 374.823418290826,287.1105986439076 L 368.00312096793857,308.1013154331988 L 385.85889117263775,321.07429185720383 L 382.12645482058053,326.2115497714847 L 360.53824826382413,310.526799604637 L 368.78420941235186,285.1483407296268 "
  />
  <path id="face3-interior"
 style="fill:none;stroke:#000000;stroke-width:1;stroke-miterlimit:4;stroke-dasharray:none;stroke-linejoin:round;stroke-linecap:round"
        d="M 386.96300770671326,187.01892441103695 L 385.00074979243243,193.05813328951115 L 391.03995867090657,195.02039120379214 L 384.21966134801914,216.01110799308339 L 402.0754315527182,228.9840844170883 L 398.3429952006611,234.12134233136914 L 403.480253114942,237.85377868342624 L 407.2126894669991,232.71652076914546 L 425.0684596716985,245.6894971931505 L 442.9242298763978,232.7165207691454 L 446.6566662284549,237.8537786834264 L 451.7939241427358,234.1213423313693 L 448.0614877906786,228.9840844170883 L 465.917257995378,216.01110799308339 L 459.09696067249047,195.02039120379214 L 465.1361695509647,193.05813328951132 L 463.1739116366839,187.01892441103712 L 457.1347027582095,188.98118232531806 L 450.3144054353221,167.99046553602665 L 428.2434596716987,167.99046553602687 L 428.2434596716986,161.64046553602685 L 421.89345967169857,161.64046553602685 L 421.8934596716987,167.9904655360267 L 399.82251390807494,167.99046553602682 L 393.0022165851875,188.98118232531795 L 386.96300770671326,187.01892441103695 "
  />
  <path id="face4-interior"
 style="fill:none;stroke:#000000;stroke-width:1;stroke-miterlimit:4;stroke-dasharray:none;stroke-linejoin:round;stroke-linecap:round"
        d="M 401.4641479618499,524.7545277119688 L 373.36597261899044,545.1690470579078 L 369.6335362669331,540.0317891436268 L 364.4962783526522,543.7642254956842 L 368.22871470470943,548.9014834099651 L 340.13053936184997,569.3160027559042 L 360.42769613916835,569.316002755904 L 360.42769613916835,562.9660027559041 L 369.7055951975741,562.9660027559041 L 369.7055951975741,569.316002755904 L 376.0555951975741,569.316002755904 L 376.0555951975741,562.9660027559041 L 385.3334942559799,562.966002755904 L 385.3334942559799,569.316002755904 L 401.46414796185,569.316002755904 L 401.4641479618499,524.7545277119688 "
  />
  <path id="face5-interior"
 style="fill:none;stroke:#000000;stroke-width:1;stroke-miterlimit:4;stroke-dasharray:none;stroke-linejoin:round;stroke-linecap:round"
        d="M 398.7797488483708,571.9189822942359 L 370.6815735055113,592.3335016401751 L 366.949137153454,587.1962437258941 L 361.8118792391731,590.9286800779514 L 365.54431559123043,596.0659379922323 L 337.44614024837097,616.4804573381714 L 357.74329702568923,616.4804573381713 L 357.74329702568923,610.1304573381713 L 367.021196084095,610.1304573381713 L 367.021196084095,616.4804573381713 L 373.371196084095,616.4804573381713 L 373.371196084095,610.1304573381713 L 382.64909514250076,610.1304573381713 L 382.64909514250076,616.4804573381712 L 398.779748848371,616.4804573381712 L 398.7797488483708,571.9189822942359 "
  />
  <path id="face6-interior"
 style="fill:none;stroke:#000000;stroke-width:1;stroke-miterlimit:4;stroke-dasharray:none;stroke-linejoin:round;stroke-linecap:round"
        d="M 374.823418290826,287.1105986439076 M 368.78420941235186,285.1483407296268 M 360.53824826382413,310.526799604637 M 382.12645482058053,326.2115497714847 M 385.85889117263775,321.07429185720383 M 368.00312096793857,308.1013154331988 "
  />
  <path id="face7-interior"
 style="fill:none;stroke:#000000;stroke-width:1;stroke-miterlimit:4;stroke-dasharray:none;stroke-linejoin:round;stroke-linecap:round"
        d="M 429.979268730473,616.6097738606373 L 429.9792687304729,610.2597738606372 L 436.3292687304729,610.2597738606372 L 436.329268730473,616.6097738606373 L 463.0137595469306,616.6097738606372 L 463.0137595469306,565.8097738606373 L 436.3292687304729,565.8097738606373 L 436.329268730473,572.1597738606373 L 429.9792687304729,572.1597738606373 L 429.9792687304729,565.8097738606374 L 403.2947779140153,565.8097738606374 L 403.2947779140154,616.6097738606373 L 429.979268730473,616.6097738606373 "
  />
  <path id="face8-interior"
 style="fill:none;stroke:#000000;stroke-width:1;stroke-miterlimit:4;stroke-dasharray:none;stroke-linejoin:round;stroke-linecap:round"
        d="M 10.000000000000085,10.0 M 10.0,619.6000000000001 M 467.20000000000005,619.5999999999999 M 467.20000000000005,10.000000000000085 M 385.00074979243243,193.05813328951115 M 386.96300770671326,187.01892441103695 M 393.0022165851875,188.98118232531795 M 399.82251390807494,167.99046553602682 M 421.8934596716987,167.9904655360267 M 421.89345967169857,161.64046553602685 M 428.2434596716986,161.64046553602685 M 428.2434596716987,167.99046553602687 M 450.3144054353221,167.99046553602665 M 457.1347027582095,188.98118232531806 M 463.1739116366839,187.01892441103712 M 465.1361695509647,193.05813328951132 M 459.09696067249047,195.02039120379214 M 465.917257995378,216.01110799308339 M 448.0614877906786,228.9840844170883 M 451.7939241427358,234.1213423313693 M 446.6566662284549,237.8537786834264 M 442.9242298763978,232.7165207691454 M 425.0684596716985,245.6894971931505 M 407.2126894669991,232.71652076914546 M 403.480253114942,237.85377868342624 M 398.3429952006611,234.12134233136914 M 402.0754315527182,228.9840844170883 M 384.21966134801914,216.01110799308339 M 391.03995867090657,195.02039120379214 M 430.68365257889093,452.1524076041316 L 430.68365257889093,458.50240760413163 L 403.99916176243323,458.50240760413163 L 403.9991617624331,407.7024076041317 L 430.6836525788908,407.7024076041317 L 430.6836525788908,414.0524076041317 L 437.03365257889084,414.0524076041316 L 437.03365257889084,407.70240760413157 L 463.7181433953484,407.70240760413157 L 463.71814339534853,458.50240760413163 L 437.03365257889084,458.50240760413163 L 437.03365257889084,452.1524076041315 L 430.68365257889093,452.1524076041316 M 374.3788834223262,247.38067297614225 M 443.32495516090955,247.38067297614214 M 464.6304630235262,312.95228377607503 M 408.85191929161795,353.47776794751326 M 353.0733755597098,312.95228377607515 M 370.6815735055113,592.3335016401751 M 398.7797488483708,571.9189822942359 M 398.779748848371,616.4804573381712 M 382.64909514250076,616.4804573381712 M 382.64909514250076,610.1304573381713 M 373.371196084095,610.1304573381713 M 373.371196084095,616.4804573381713 M 367.021196084095,616.4804573381713 M 367.021196084095,610.1304573381713 M 357.74329702568923,610.1304573381713 M 357.74329702568923,616.4804573381713 M 337.44614024837097,616.4804573381714 M 365.54431559123043,596.0659379922323 M 361.8118792391731,590.9286800779514 M 366.949137153454,587.1962437258941 M 373.36597261899044,545.1690470579078 M 401.4641479618499,524.7545277119688 M 401.46414796185,569.316002755904 M 385.3334942559799,569.316002755904 M 385.3334942559799,562.966002755904 M 376.0555951975741,562.9660027559041 M 376.0555951975741,569.316002755904 M 369.7055951975741,569.316002755904 M 369.7055951975741,562.9660027559041 M 360.42769613916835,562.9660027559041 M 360.42769613916835,569.316002755904 M 340.13053936184997,569.3160027559042 M 368.22871470470943,548.9014834099651 M 364.4962783526522,543.7642254956842 M 369.6335362669331,540.0317891436268 M 429.9792687304729,610.2597738606372 M 429.979268730473,616.6097738606373 M 403.2947779140154,616.6097738606373 M 403.2947779140153,565.8097738606374 M 429.9792687304729,565.8097738606374 M 429.9792687304729,572.1597738606373 M 436.329268730473,572.1597738606373 M 436.3292687304729,565.8097738606373 M 463.0137595469306,565.8097738606373 M 463.0137595469306,616.6097738606372 M 436.329268730473,616.6097738606373 M 436.3292687304729,610.2597738606372 M 430.6014369437602,504.5321009039922 M 430.6014369437603,510.88210090399224 M 403.9169461273025,510.88210090399224 M 403.91694612730237,460.0821009039923 M 430.60143694376006,460.0821009039923 M 430.60143694376006,466.4321009039923 M 436.9514369437602,466.4321009039922 M 436.9514369437601,460.08210090399217 M 463.63592776021767,460.08210090399217 M 463.6359277602178,510.88210090399224 M 436.9514369437602,510.88210090399224 M 436.9514369437601,504.5321009039921 M 417.5398631105953,154.57830608439883 L 369.2261920828015,119.47636939864607 L 387.6803722941378,62.68024277015148 L 447.39935392705297,62.68024277015148 L 465.85353413838914,119.47636939864607 L 417.5398631105953,154.57830608439883 M 432.22046984986866,400.13569214695036 L 432.22046984986866,406.48569214695044 L 405.53597903341097,406.48569214695044 L 405.53597903341085,355.68569214695043 L 432.22046984986855,355.68569214695043 L 432.22046984986855,362.03569214695045 L 438.5704698498686,362.03569214695034 L 438.5704698498686,355.6856921469504 L 465.25496066632616,355.6856921469504 L 465.25496066632627,406.4856921469503 L 438.5704698498686,406.48569214695044 L 438.5704698498686,400.13569214695025 L 432.22046984986866,400.13569214695036 M 372.5093074607181,519.1931012280004 L 372.509307460718,462.04310122800047 L 397.4151055775295,462.04310122800047 L 397.41510557752963,519.1931012280004 L 372.5093074607181,519.1931012280004 M 430.2169187698985,556.7548276846397 L 430.2169187698986,563.1048276846398 L 403.5324279534409,563.1048276846398 L 403.5324279534408,512.3048276846398 L 430.2169187698985,512.3048276846398 L 430.2169187698985,518.6548276846399 L 436.5669187698986,518.6548276846397 L 436.5669187698985,512.3048276846398 L 463.2514095863561,512.3048276846398 L 463.2514095863561,563.1048276846398 L 436.5669187698986,563.1048276846398 L 436.5669187698985,556.7548276846396 L 430.2169187698985,556.7548276846397 "
  />
  <path id="face9-interior"
 style="fill:none;stroke:#000000;stroke-width:1;stroke-miterlimit:4;stroke-dasharray:none;stroke-linejoin:round;stroke-linecap:round"
        d="M 369.2261920828015,119.47636939864607 M 417.5398631105953,154.57830608439883 M 465.85353413838914,119.47636939864607 M 447.39935392705297,62.68024277015148 M 387.6803722941378,62.68024277015148 "
  />
  <path id="face10-interior"
 style="fill:none;stroke:#000000;stroke-width:1;stroke-miterlimit:4;stroke-dasharray:none;stroke-linejoin:round;stroke-linecap:round"
        d="M 432.22046984986866,406.48569214695044 M 432.22046984986866,400.13569214695036 M 438.5704698498686,400.13569214695025 M 438.5704698498686,406.48569214695044 M 465.25496066632627,406.4856921469503 M 465.25496066632616,355.6856921469504 M 438.5704698498686,355.6856921469504 M 438.5704698498686,362.03569214695034 M 432.22046984986855,362.03569214695045 M 432.22046984986855,355.68569214695043 M 405.53597903341085,355.68569214695043 M 405.53597903341097,406.48569214695044 "
  />
  <path id="face11-interior"
 style="fill:none;stroke:#000000;stroke-width:1;stroke-miterlimit:4;stroke-dasharray:none;stroke-linejoin:round;stroke-linecap:round"
        d="M 430.2169187698986,563.1048276846398 M 430.2169187698985,556.7548276846397 M 436.5669187698985,556.7548276846396 M 436.5669187698986,563.1048276846398 M 463.2514095863561,563.1048276846398 M 463.2514095863561,512.3048276846398 M 436.5669187698985,512.3048276846398 M 436.5669187698986,518.6548276846397 M 430.2169187698985,518.6548276846399 M 430.2169187698985,512.3048276846398 M 403.5324279534408,512.3048276846398 M 403.5324279534409,563.1048276846398 "
  />
  <path id="face12-interior"
 style="fill:none;stroke:#000000;stroke-width:1;stroke-miterlimit:4;stroke-dasharray:none;stroke-linejoin:round;stroke-linecap:round"
        d="M 372.509307460718,462.04310122800047 M 372.5093074607181,519.1931012280004 M 397.41510557752963,519.1931012280004 M 397.4151055775295,462.04310122800047 M 388.13720651912377,465.21810122800053 L 388.13720651912377,471.56810122800056 L 381.78720651912374,471.56810122800056 L 381.78720651912374,465.21810122800053 L 388.13720651912377,465.21810122800053 M 388.1372065191239,509.66810122800047 L 388.1372065191239,516.0181012280004 L 381.78720651912386,516.0181012280004 L 381.78720651912386,509.6681012280006 L 388.1372065191239,509.66810122800047 "
  />
  <path id="face13-interior"
 style="fill:none;stroke:#000000;stroke-width:1;stroke-miterlimit:4;stroke-dasharray:none;stroke-linejoin:round;stroke-linecap:round"
        d="M 431.84494741059814,321.0742918572037 M 435.57738376265536,326.2115497714846 M 457.16559031941176,310.5267996046369 M 448.91962917088415,285.1483407296266 M 442.88042029241,287.11059864390757 M 449.70071761529744,308.1013154331988 "
  />
  <path id="face14-interior"
 style="fill:none;stroke:#000000;stroke-width:1;stroke-miterlimit:4;stroke-dasharray:none;stroke-linejoin:round;stroke-linecap:round"
        d="M 430.68365257889093,458.50240760413163 M 430.68365257889093,452.1524076041316 M 437.03365257889084,452.1524076041315 M 437.03365257889084,458.50240760413163 M 463.71814339534853,458.50240760413163 M 463.7181433953484,407.70240760413157 M 437.03365257889084,407.70240760413157 M 437.03365257889084,414.0524076041316 M 430.6836525788908,414.0524076041317 M 430.6836525788908,407.7024076041317 M 403.9991617624331,407.7024076041317 M 403.99916176243323,458.50240760413163 "
  />
  <path id="face15-interior"
 style="fill:none;stroke:#000000;stroke-width:1;stroke-miterlimit:4;stroke-dasharray:none;stroke-linejoin:round;stroke-linecap:round"
        d="M 388.1372065191239,516.0181012280004 M 388.1372065191239,509.66810122800047 M 381.78720651912386,509.6681012280006 M 381.78720651912386,516.0181012280004 "
  />
  <path id="face16-interior"
 style="fill:none;stroke:#000000;stroke-width:1;stroke-miterlimit:4;stroke-dasharray:none;stroke-linejoin:round;stroke-linecap:round"
        d="M 405.676919291618,260.0806729761422 M 405.676919291618,253.73067297614216 M 378.9924284751604,253.73067297614227 M 370.7464673266327,279.10913185115254 M 376.7856762051068,281.0713897654334 M 383.60597352799437,260.0806729761421 "
  />
  <path id="face17-interior"
 style="fill:none;stroke:#000000;stroke-width:1;stroke-miterlimit:4;stroke-dasharray:none;stroke-linejoin:round;stroke-linecap:round"
        d="M 440.91816237812895,281.0713897654333 M 446.9573712566032,279.1091318511524 M 438.7114101080756,253.73067297614216 M 412.0269192916181,253.73067297614216 M 412.026919291618,260.0806729761422 M 434.0978650552415,260.0806729761422 "
  />
  <path id="face18-interior"
 style="fill:none;stroke:#000000;stroke-width:1;stroke-miterlimit:4;stroke-dasharray:none;stroke-linejoin:round;stroke-linecap:round"
        d="M 388.13720651912377,471.56810122800056 M 388.13720651912377,465.21810122800053 M 381.78720651912374,465.21810122800053 M 381.78720651912374,471.56810122800056 "
  />
  <path id="face0-interior"
 style="fill:none;stroke:#000000;stroke-width:1;stroke-miterlimit:4;stroke-dasharray:none;stroke-linejoin:round;stroke-linecap:round"
        d="M 430.6014369437603,510.88210090399224 M 430.6014369437602,504.5321009039922 M 436.9514369437601,504.5321009039921 M 436.9514369437602,510.88210090399224 M 463.6359277602178,510.88210090399224 M 463.63592776021767,460.08210090399217 M 436.9514369437601,460.08210090399217 M 436.9514369437602,466.4321009039922 M 430.60143694376006,466.4321009039923 M 430.60143694376006,460.0821009039923 M 403.91694612730237,460.0821009039923 M 403.9169461273025,510.88210090399224 "
  />
  <path id="face1-interior"
 style="fill:none;stroke:#000000;stroke-width:1;stroke-miterlimit:4;stroke-dasharray:none;stroke-linejoin:round;stroke-linecap:round"
        d="M 430.44012584837446,329.94398612354183 M 426.70768949631724,324.80672820926105 M 408.85191929161795,337.77970463326596 M 390.99614908691876,324.80672820926105 M 387.26371273486154,329.94398612354195 M 408.85191929161795,345.6287362903896 "
  />
  <path id="face2-interior"
 style="fill:none;stroke:#000000;stroke-width:1;stroke-miterlimit:4;stroke-dasharray:none;stroke-linejoin:round;stroke-linecap:round"
        d="M 443.32495516090955,247.38067297614214 M 374.3788834223262,247.38067297614225 M 353.0733755597098,312.95228377607515 M 408.85191929161795,353.47776794751326 M 464.6304630235262,312.95228377607503 M 370.7464673266327,279.10913185115254 M 378.9924284751604,253.73067297614227 M 405.676919291618,253.73067297614216 M 405.676919291618,260.0806729761422 M 383.60597352799437,260.0806729761421 M 376.7856762051068,281.0713897654334 M 446.9573712566032,279.1091318511524 M 440.91816237812895,281.0713897654333 M 434.0978650552415,260.0806729761422 M 412.026919291618,260.0806729761422 M 412.0269192916181,253.73067297614216 M 438.7114101080756,253.73067297614216 M 435.57738376265536,326.2115497714846 M 431.84494741059814,321.0742918572037 M 449.70071761529744,308.1013154331988 M 442.88042029241,287.11059864390757 M 448.91962917088415,285.1483407296266 M 457.16559031941176,310.5267996046369 M 387.26371273486154,329.94398612354195 M 390.99614908691876,324.80672820926105 M 408.85191929161795,337.77970463326596 M 426.70768949631724,324.80672820926105 M 430.44012584837446,329.94398612354183 M 408.85191929161795,345.6287362903896 M 368.78420941235186,285.1483407296268 M 374.823418290826,287.1105986439076 M 368.00312096793857,308.1013154331988 M 385.85889117263775,321.07429185720383 M 382.12645482058053,326.2115497714847 M 360.53824826382413,310.526799604637 "
  />
  <path id="face3-interior"
 style="fill:none;stroke:#000000;stroke-width:1;stroke-miterlimit:4;stroke-dasharray:none;stroke-linejoin:round;stroke-linecap:round"
        d="M 386.96300770671326,187.01892441103695 M 385.00074979243243,193.05813328951115 M 391.03995867090657,195.02039120379214 M 384.21966134801914,216.01110799308339 M 402.0754315527182,228.9840844170883 M 398.3429952006611,234.12134233136914 M 403.480253114942,237.85377868342624 M 407.2126894669991,232.71652076914546 M 425.0684596716985,245.6894971931505 M 442.9242298763978,232.7165207691454 M 446.6566662284549,237.8537786834264 M 451.7939241427358,234.1213423313693 M 448.0614877906786,228.9840844170883 M 465.917257995378,216.01110799308339 M 459.09696067249047,195.02039120379214 M 465.1361695509647,193.05813328951132 M 463.1739116366839,187.01892441103712 M 457.1347027582095,188.98118232531806 M 450.3144054353221,167.99046553602665 M 428.2434596716987,167.99046553602687 M 428.2434596716986,161.64046553602685 M 421.89345967169857,161.64046553602685 M 421.8934596716987,167.9904655360267 M 399.82251390807494,167.99046553602682 M 393.0022165851875,188.98118232531795 "
  />
  <path id="face4-interior"
 style="fill:none;stroke:#000000;stroke-width:1;stroke-miterlimit:4;stroke-dasharray:none;stroke-linejoin:round;stroke-linecap:round"
        d="M 401.4641479618499,524.7545277119688 M 373.36597261899044,545.1690470579078 M 369.6335362669331,540.0317891436268 M 364.4962783526522,543.7642254956842 M 368.22871470470943,548.9014834099651 M 340.13053936184997,569.3160027559042 M 360.42769613916835,569.316002755904 M 360.42769613916835,562.9660027559041 M 369.7055951975741,562.9660027559041 M 369.7055951975741,569.316002755904 M 376.0555951975741,569.316002755904 M 376.0555951975741,562.9660027559041 M 385.3334942559799,562.966002755904 M 385.3334942559799,569.316002755904 M 401.46414796185,569.316002755904 "
  />
  <path id="face5-interior"
 style="fill:none;stroke:#000000;stroke-width:1;stroke-miterlimit:4;stroke-dasharray:none;stroke-linejoin:round;stroke-linecap:round"
        d="M 398.7797488483708,571.9189822942359 M 370.6815735055113,592.3335016401751 M 366.949137153454,587.1962437258941 M 361.8118792391731,590.9286800779514 M 365.54431559123043,596.0659379922323 M 337.44614024837097,616.4804573381714 M 357.74329702568923,616.4804573381713 M 357.74329702568923,610.1304573381713 M 367.021196084095,610.1304573381713 M 367.021196084095,616.4804573381713 M 373.371196084095,616.4804573381713 M 373.371196084095,610.1304573381713 M 382.64909514250076,610.1304573381713 M 382.64909514250076,616.4804573381712 M 398.779748848371,616.4804573381712 "
  />
  <path id="face6-interior"
 style="fill:none;stroke:#000000;stroke-width:1;stroke-miterlimit:4;stroke-dasharray:none;stroke-linejoin:round;stroke-linecap:round"
        d="M 374.823418290826,287.1105986439076 M 368.78420941235186,285.1483407296268 M 360.53824826382413,310.526799604637 M 382.12645482058053,326.2115497714847 M 385.85889117263775,321.07429185720383 M 368.00312096793857,308.1013154331988 "
  />
  <path id="face7-interior"
 style="fill:none;stroke:#000000;stroke-width:1;stroke-miterlimit:4;stroke-dasharray:none;stroke-linejoin:round;stroke-linecap:round"
        d="M 429.979268730473,616.6097738606373 M 429.9792687304729,610.2597738606372 M 436.3292687304729,610.2597738606372 M 436.329268730473,616.6097738606373 M 463.0137595469306,616.6097738606372 M 463.0137595469306,565.8097738606373 M 436.3292687304729,565.8097738606373 M 436.329268730473,572.1597738606373 M 429.9792687304729,572.1597738606373 M 429.9792687304729,565.8097738606374 M 403.2947779140153,565.8097738606374 M 403.2947779140154,616.6097738606373 "
  />
  <path id="face8-interior"
 style="fill:none;stroke:#000000;stroke-width:1;stroke-miterlimit:4;stroke-dasharray:none;stroke-linejoin:round;stroke-linecap:round"
        d="M 10.000000000000085,10.0 M 10.0,619.6000000000001 M 467.20000000000005,619.5999999999999 M 467.20000000000005,10.000000000000085 M 385.00074979243243,193.05813328951115 M 386.96300770671326,187.01892441103695 M 393.0022165851875,188.98118232531795 M 399.82251390807494,167.99046553602682 M 421.8934596716987,167.9904655360267 M 421.89345967169857,161.64046553602685 M 428.2434596716986,161.64046553602685 M 428.2434596716987,167.99046553602687 M 450.3144054353221,167.99046553602665 M 457.1347027582095,188.98118232531806 M 463.1739116366839,187.01892441103712 M 465.1361695509647,193.05813328951132 M 459.09696067249047,195.02039120379214 M 465.917257995378,216.01110799308339 M 448.0614877906786,228.9840844170883 M 451.7939241427358,234.1213423313693 M 446.6566662284549,237.8537786834264 M 442.9242298763978,232.7165207691454 M 425.0684596716985,245.6894971931505 M 407.2126894669991,232.71652076914546 M 403.480253114942,237.85377868342624 M 398.3429952006611,234.12134233136914 M 402.0754315527182,228.9840844170883 M 384.21966134801914,216.01110799308339 M 391.03995867090657,195.02039120379214 M 430.68365257889093,452.1524076041316 M 430.68365257889093,458.50240760413163 M 403.99916176243323,458.50240760413163 M 403.9991617624331,407.7024076041317 M 430.6836525788908,407.7024076041317 M 430.6836525788908,414.0524076041317 M 437.03365257889084,414.0524076041316 M 437.03365257889084,407.70240760413157 M 463.7181433953484,407.70240760413157 M 463.71814339534853,458.50240760413163 M 437.03365257889084,458.50240760413163 M 437.03365257889084,452.1524076041315 M 374.3788834223262,247.38067297614225 M 443.32495516090955,247.38067297614214 M 464.6304630235262,312.95228377607503 M 408.85191929161795,353.47776794751326 M 353.0733755597098,312.95228377607515 M 370.6815735055113,592.3335016401751 M 398.7797488483708,571.9189822942359 M 398.779748848371,616.4804573381712 M 382.64909514250076,616.4804573381712 M 382.64909514250076,610.1304573381713 M 373.371196084095,610.1304573381713 M 373.371196084095,616.4804573381713 M 367.021196084095,616.4804573381713 M 367.021196084095,610.1304573381713 M 357.74329702568923,610.1304573381713 M 357.74329702568923,616.4804573381713 M 337.44614024837097,616.4804573381714 M 365.54431559123043,596.0659379922323 M 361.8118792391731,590.9286800779514 M 366.949137153454,587.1962437258941 M 373.36597261899044,545.1690470579078 M 401.4641479618499,524.7545277119688 M 401.46414796185,569.316002755904 M 385.3334942559799,569.316002755904 M 385.3334942559799,562.966002755904 M 376.0555951975741,562.9660027559041 M 376.0555951975741,569.316002755904 M 369.7055951975741,569.316002755904 M 369.7055951975741,562.9660027559041 M 360.42769613916835,562.9660027559041 M 360.42769613916835,569.316002755904 M 340.13053936184997,569.3160027559042 M 368.22871470470943,548.9014834099651 M 364.4962783526522,543.7642254956842 M 369.6335362669331,540.0317891436268 M 429.9792687304729,610.2597738606372 M 429.979268730473,616.6097738606373 M 403.2947779140154,616.6097738606373 M 403.2947779140153,565.8097738606374 M 429.9792687304729,565.8097738606374 M 429.9792687304729,572.1597738606373 M 436.329268730473,572.1597738606373 M 436.3292687304729,565.8097738606373 M 463.0137595469306,565.8097738606373 M 463.0137595469306,616.6097738606372 M 436.329268730473,616.6097738606373 M 436.3292687304729,610.2597738606372 M 430.6014369437602,504.5321009039922 M 430.6014369437603,510.88210090399224 M 403.9169461273025,510.88210090399224 M 403.91694612730237,460.0821009039923 M 430.60143694376006,460.0821009039923 M 430.60143694376006,466.4321009039923 M 436.9514369437602,466.4321009039922 M 436.9514369437601,460.08210090399217 M 463.63592776021767,460.08210090399217 M 463.6359277602178,510.88210090399224 M 436.9514369437602,510.88210090399224 M 436.9514369437601,504.5321009039921 M 417.5398631105953,154.57830608439883 M 369.2261920828015,119.47636939864607 M 387.6803722941378,62.68024277015148 M 447.39935392705297,62.68024277015148 M 465.85353413838914,119.47636939864607 M 432.22046984986866,400.13569214695036 M 432.22046984986866,406.48569214695044 M 405.53597903341097,406.48569214695044 M 405.53597903341085,355.68569214695043 M 432.22046984986855,355.68569214695043 M 432.22046984986855,362.03569214695045 M 438.5704698498686,362.03569214695034 M 438.5704698498686,355.6856921469504 M 465.25496066632616,355.6856921469504 M 465.25496066632627,406.4856921469503 M 438.5704698498686,406.48569214695044 M 438.5704698498686,400.13569214695025 M 372.5093074607181,519.1931012280004 M 372.509307460718,462.04310122800047 M 397.4151055775295,462.04310122800047 M 397.41510557752963,519.1931012280004 M 430.2169187698985,556.7548276846397 M 430.2169187698986,563.1048276846398 M 403.5324279534409,563.1048276846398 M 403.5324279534408,512.3048276846398 M 430.2169187698985,512.3048276846398 M 430.2169187698985,518.6548276846399 M 436.5669187698986,518.6548276846397 M 436.5669187698985,512.3048276846398 M 463.2514095863561,512.3048276846398 M 463.2514095863561,563.1048276846398 M 436.5669187698986,563.1048276846398 M 436.5669187698985,556.7548276846396 "
  />
  <path id="face9-interior"
 style="fill:none;stroke:#000000;stroke-width:1;stroke-miterlimit:4;stroke-dasharray:none;stroke-linejoin:round;stroke-linecap:round"
        d="M 369.2261920828015,119.47636939864607 M 417.5398631105953,154.57830608439883 M 465.85353413838914,119.47636939864607 M 447.39935392705297,62.68024277015148 M 387.6803722941378,62.68024277015148 "
  />
  <path id="face10-interior"
 style="fill:none;stroke:#000000;stroke-width:1;stroke-miterlimit:4;stroke-dasharray:none;stroke-linejoin:round;stroke-linecap:round"
        d="M 432.22046984986866,406.48569214695044 M 432.22046984986866,400.13569214695036 M 438.5704698498686,400.13569214695025 M 438.5704698498686,406.48569214695044 M 465.25496066632627,406.4856921469503 M 465.25496066632616,355.6856921469504 M 438.5704698498686,355.6856921469504 M 438.5704698498686,362.03569214695034 M 432.22046984986855,362.03569214695045 M 432.22046984986855,355.68569214695043 M 405.53597903341085,355.68569214695043 M 405.53597903341097,406.48569214695044 "
  />
  <path id="face11-interior"
 style="fill:none;stroke:#000000;stroke-width:1;stroke-miterlimit:4;stroke-dasharray:none;stroke-linejoin:round;stroke-linecap:round"
        d="M 430.2169187698986,563.1048276846398 M 430.2169187698985,556.7548276846397 M 436.5669187698985,556.7548276846396 M 436.5669187698986,563.1048276846398 M 463.2514095863561,563.1048276846398 M 463.2514095863561,512.3048276846398 M 436.5669187698985,512.3048276846398 M 436.5669187698986,518.6548276846397 M 430.2169187698985,518.6548276846399 M 430.2169187698985,512.3048276846398 M 403.5324279534408,512.3048276846398 M 403.5324279534409,563.1048276846398 "
  />
  <path id="face12-interior"
 style="fill:none;stroke:#000000;stroke-width:1;stroke-miterlimit:4;stroke-dasharray:none;stroke-linejoin:round;stroke-linecap:round"
        d="M 372.509307460718,462.04310122800047 M 372.5093074607181,519.1931012280004 M 397.41510557752963,519.1931012280004 M 397.4151055775295,462.04310122800047 M 388.13720651912377,465.21810122800053 M 388.13720651912377,471.56810122800056 M 381.78720651912374,471.56810122800056 M 381.78720651912374,465.21810122800053 M 388.1372065191239,509.66810122800047 M 388.1372065191239,516.0181012280004 M 381.78720651912386,516.0181012280004 M 381.78720651912386,509.6681012280006 "
  />
  <path id="face13-interior"
 style="fill:none;stroke:#000000;stroke-width:1;stroke-miterlimit:4;stroke-dasharray:none;stroke-linejoin:round;stroke-linecap:round"
        d="M 431.84494741059814,321.0742918572037 M 435.57738376265536,326.2115497714846 M 457.16559031941176,310.5267996046369 M 448.91962917088415,285.1483407296266 M 442.88042029241,287.11059864390757 M 449.70071761529744,308.1013154331988 "
  />
  <path id="face14-interior"
 style="fill:none;stroke:#000000;stroke-width:1;stroke-miterlimit:4;stroke-dasharray:none;stroke-linejoin:round;stroke-linecap:round"
        d="M 430.68365257889093,458.50240760413163 M 430.68365257889093,452.1524076041316 M 437.03365257889084,452.1524076041315 M 437.03365257889084,458.50240760413163 M 463.71814339534853,458.50240760413163 M 463.7181433953484,407.70240760413157 M 437.03365257889084,407.70240760413157 M 437.03365257889084,414.0524076041316 M 430.6836525788908,414.0524076041317 M 430.6836525788908,407.7024076041317 M 403.9991617624331,407.7024076041317 M 403.99916176243323,458.50240760413163 "
  />
  <path id="face15-interior"
 style="fill:none;stroke:#000000;stroke-width:1;stroke-miterlimit:4;stroke-dasharray:none;stroke-linejoin:round;stroke-linecap:round"
        d="M 388.1372065191239,516.0181012280004 M 388.1372065191239,509.66810122800047 M 381.78720651912386,509.6681012280006 M 381.78720651912386,516.0181012280004 "
  />
  <path id="face16-interior"
 style="fill:none;stroke:#000000;stroke-width:1;stroke-miterlimit:4;stroke-dasharray:none;stroke-linejoin:round;stroke-linecap:round"
        d="M 405.676919291618,260.0806729761422 M 405.676919291618,253.73067297614216 M 378.9924284751604,253.73067297614227 M 370.7464673266327,279.10913185115254 M 376.7856762051068,281.0713897654334 M 383.60597352799437,260.0806729761421 "
  />
  <path id="face17-interior"
 style="fill:none;stroke:#000000;stroke-width:1;stroke-miterlimit:4;stroke-dasharray:none;stroke-linejoin:round;stroke-linecap:round"
        d="M 440.91816237812895,281.0713897654333 M 446.9573712566032,279.1091318511524 M 438.7114101080756,253.73067297614216 M 412.0269192916181,253.73067297614216 M 412.026919291618,260.0806729761422 M 434.0978650552415,260.0806729761422 "
  />
  <path id="face18-interior"
 style="fill:none;stroke:#000000;stroke-width:1;stroke-miterlimit:4;stroke-dasharray:none;stroke-linejoin:round;stroke-linecap:round"
        d="M 388.13720651912377,471.56810122800056 M 388.13720651912377,465.21810122800053 M 381.78720651912374,465.21810122800053 M 381.78720651912374,471.56810122800056 "
  />
</svg>
