<?xml version="1.0" standalone="no"?>
<!DOCTYPE svg PUBLIC "-//W3C//DTD SVG 1.1//EN" "http://www.w3.org/Graphics/SVG/1.1/DTD/svg11.dtd">
<svg width="18.787401556444in" height="27.322867173722436in"
 viewBox="0 0 18.787401556444 27.322867173722436"
 xmlns="http://www.w3.org/2000/svg" version="1.1"
 xmlns:xlink="http://www.w3.org/1999/xlink">
<desc>Output from Flights of Ideas SVG Sketchup Plugin</desc>

  <path id="face0-cut"
 style="fill:none;stroke:#0000FF;stroke-width:0.0393700787402;stroke-miterlimit:4;stroke-dasharray:none;stroke-linejoin:round;stroke-linecap:round"
        d="M 1.484259902731448,0.4750058878296062 L 1.299802204450788,0.40936441548474134 L 1.1046404866322486,0.393700787402 L 0.9120746978251577,0.42908245394985256 L 0.7352278783067265,0.5130982130240542 L 0.5861518465739333,0.6400225294862838 L 0.4750058878295813,0.8012057209219807 L 0.4093644154847307,0.9856634192026408 L 0.393700787402,1.1808251370211695 L 0.42908245394984545,1.3733909258282497 L 0.51309821302404,1.5502377453466951 L 0.6400225294862554,1.6993137770794848 L 0.8012057209219594,1.8104597358238226 L 0.9856634192026088,1.8761012081686945 L 1.1808251370211553,1.8917648362514217 L 1.3733909258282284,1.8563831697035726 L 1.5502377453466667,1.7723674106293816 L 1.69931377707946,1.6454430941671592 L 1.8104597358237942,1.4842599027314551 L 1.8761012081686732,1.2998022044508164 L 1.891764836251404,1.1046404866322734 L 1.8563831697035407,0.9120746978251861 L 1.7723674106293532,0.7352278783067514 L 1.6454430941671379,0.5861518465739546 L 1.484259902731448,0.4750058878296062 "
  />
  <path id="face1-cut"
 style="fill:none;stroke:#0000FF;stroke-width:0.0393700787402;stroke-miterlimit:4;stroke-dasharray:none;stroke-linejoin:round;stroke-linecap:round"
        d="M 0.4863484066696908,2.5312063516889074 L 0.5187007872745073,2.535465623398429 L 0.5510531678793202,2.5312063516889074 L 0.581200787210761,2.518718798888556 L 0.6070891348326728,2.4988539710840802 L 0.6269539626371379,2.472965623462172 L 0.6394415154374786,2.4428180041307312 L 0.6437007871470004,2.410465623525929 L 0.6394415154374964,2.3781132429211054 L 0.6269539626371663,2.347965623589661 L 0.6070891348326906,2.3220772759677493 L 0.5812007872107645,2.3022124481632735 L 0.5510531678793309,2.289724895362954 L 0.5187007872745073,2.2854656236534217 L 0.4863484066696908,2.28972489536294 L 0.45620078733826785,2.302212448163295 L 0.4303124397163418,2.3220772759677706 L 0.4104476119118696,2.347965623589679 L 0.3979600591115289,2.378113242921109 L 0.393700787402,2.4104656235259325 L 0.3979600591115324,2.4428180041307312 L 0.4104476119118945,2.4729656234621578 L 0.4303124397163631,2.498853971084066 L 0.4562007873382572,2.518718798888556 L 0.4863484066696908,2.5312063516889074 "
  />
  <path id="face2-cut"
 style="fill:none;stroke:#0000FF;stroke-width:0.0393700787402;stroke-miterlimit:4;stroke-dasharray:none;stroke-linejoin:round;stroke-linecap:round"
        d="M 18.393700769042,2.929166410800429 L 0.393700787402,2.929166410800429 L 0.39370078740200354,26.929166386320436 L 18.393700769042,26.929166386320436 L 18.393700769042,2.929166410800429 M 14.163769431326848,2.962736630565383 L 14.66376943081685,2.962736630565383 L 14.66376943081685,3.2127366303103835 L 15.16376943030685,3.2127366303103977 L 15.16376943030685,2.9627366305654044 L 15.66376942979685,2.9627366305653973 L 15.66376942979685,3.2127366303103835 L 16.163769429286848,3.2127366303103835 L 16.163769429286848,2.9627366305653546 L 16.66376942877685,2.962736630565383 L 16.66376942877685,3.2127366303103977 L 17.163769428266846,3.2127366303103977 L 17.163769428266846,2.9627366305653973 L 17.66376942775685,2.9627366305653973 L 17.66376942775685,3.2127366303103977 L 17.91376942750185,3.2127366303103835 L 17.91376942750185,3.962736629545392 L 18.163769427246848,3.962736629545392 L 18.163769427246848,4.462736629035385 L 17.91376942750185,4.462736629035385 L 17.91376942750185,4.962736628525386 L 18.163769427246848,4.962736628525386 L 18.163769427246848,5.462736628015387 L 17.91376942750185,5.462736628015387 L 17.91376942750185,5.962736627505388 L 12.413769433111849,5.962736627505395 L 12.413769433111849,5.462736628015394 L 12.163769433366852,5.462736628015394 L 12.163769433366852,4.962736628525393 L 12.413769433111849,4.962736628525386 L 12.413769433111849,4.462736629035385 L 12.163769433366852,4.462736629035392 L 12.163769433366852,3.962736629545392 L 12.413769433111849,3.962736629545392 L 12.413769433111849,3.462736630055384 L 12.163769433366852,3.462736630055398 L 12.163769433366852,2.962736630565298 L 12.66376943285685,2.9627366305654186 L 12.66376943285685,3.2127366303103977 L 13.16376943234685,3.2127366303103835 L 13.16376943234685,2.962736630565454 L 13.663769431836847,2.962736630565433 L 13.663769431836847,3.212736630310405 L 14.163769431326848,3.2127366303103977 L 14.163769431326848,2.962736630565383 M 18.252863882541835,9.003535275678782 L 17.752863883051837,9.003535275678782 L 17.752863883051837,8.753535275933789 L 17.252863883561826,8.753535275933789 L 17.252863883561826,9.003535275678782 L 16.75286388407183,9.003535275678782 L 16.752863884071832,8.753535275933789 L 16.252863884581835,8.753535275933789 L 16.252863884581828,9.003535275678775 L 15.752863885091827,9.003535275678775 L 15.752863885091834,8.753535275933789 L 15.252863885601826,8.753535275933775 L 15.252863885601826,9.003535275678775 L 14.752863886111829,9.003535275678775 L 14.752863886111836,8.753535275933775 L 14.252863886621835,8.753535275933775 L 14.252863886621828,9.003535275678775 L 13.752863887131827,9.003535275678775 L 13.752863887131834,8.753535275933775 L 13.252863887641826,8.753535275933775 L 13.252863887641837,9.003535275678775 L 12.752863888151833,9.003535275678775 L 12.752863888151833,8.753535275933775 L 12.502863888406832,8.753535275933775 L 12.502863888406832,8.00353527669878 L 12.252863888661832,8.003535276698766 L 12.252863888661832,7.503535277208772 L 12.502863888406832,7.503535277208772 L 12.502863888406832,7.003535277718771 L 12.252863888661832,7.003535277718771 L 12.252863888661835,6.503535278228776 L 12.502863888406836,6.503535278228776 L 12.502863888406836,6.0035352787387755 L 18.00286388279683,6.003535278738783 L 18.00286388279683,6.503535278228783 L 18.252863882541835,6.503535278228776 L 18.252863882541835,7.003535277718785 L 18.00286388279683,7.003535277718785 L 18.00286388279683,7.503535277208786 L 18.252863882541835,7.503535277208786 L 18.252863882541835,8.00353527669878 L 18.00286388279683,8.00353527669878 L 18.00286388279683,8.503535276188781 L 18.252863882541835,8.503535276188781 L 18.252863882541835,9.003535275678782 M 11.759386203459092,10.05795758496961 L 11.509386203714092,10.05795758496961 L 11.509386203714092,9.55795758547961 L 11.759386203459092,9.557957585479596 L 11.759386203459087,9.307957585734602 L 12.259386202949091,9.30795758573461 L 12.259386202949095,9.057957585989609 L 12.759386202439092,9.057957585989609 L 12.759386202439089,9.30795758573461 L 13.25938620192909,9.30795758573461 L 13.259386201929093,9.057957585989609 L 13.759386201419094,9.057957585989616 L 13.759386201419087,9.30795758573461 L 14.259386200909088,9.30795758573461 L 14.259386200909088,9.057957585989609 L 14.759386200399092,9.057957585989609 L 14.759386200399092,9.30795758573461 L 15.259386199889093,9.30795758573461 L 15.259386199889093,9.057957585989609 L 15.759386199379094,9.057957585989609 L 15.759386199379094,9.30795758573461 L 16.25938619886909,9.30795758573461 L 16.25938619886909,9.057957585989609 L 16.759386198359092,9.057957585989609 L 16.759386198359092,9.30795758573461 L 17.259386197849086,9.30795758573461 L 17.259386197849086,9.55795758547961 L 17.50938619759409,9.55795758547961 L 17.50938619759409,10.05795758496961 L 17.259386197849093,10.05795758496961 L 17.259386197849086,10.557957584459611 L 17.509386197594086,10.557957584459611 L 17.509386197594086,11.057957583949605 L 17.259386197849086,11.057957583949605 L 17.259386197849086,11.557957583439606 L 17.509386197594086,11.557957583439606 L 17.509386197594086,12.057957582929607 L 14.509386200654088,12.557957582419608 L 11.509386203714087,12.057957582929607 L 11.509386203714088,11.557957583439606 L 11.75938620345909,11.557957583439606 L 11.759386203459087,11.057957583949605 L 11.509386203714088,11.057957583949605 L 11.509386203714088,10.557957584459611 L 11.759386203459087,10.557957584459611 L 11.759386203459092,10.05795758496961 M 18.278183790579494,15.28593593960726 L 18.028183790834493,15.285935939607253 L 18.028183790834493,15.785935939097254 L 18.278183790579494,15.785935939097254 L 18.278183790579494,16.285935938587254 L 18.028183790834493,16.285935938587254 L 18.028183790834493,16.785935938077248 L 18.278183790579494,16.785935938077248 L 18.278183790579494,17.285935937567256 L 18.028183790834493,17.285935937567256 L 18.028183790834493,17.785935937057257 L 18.2781837905795,17.78593593705725 L 18.278183790579494,18.535935936292244 L 17.778183791089496,18.535935936292244 L 17.778183791089493,18.28593593654725 L 17.278183791599496,18.285935936547258 L 17.278183791599496,18.535935936292244 L 16.778183792109495,18.535935936292244 L 16.7781837921095,18.285935936547258 L 16.278183792619497,18.28593593654725 L 16.278183792619497,18.535935936292244 L 15.778183793129497,18.535935936292244 L 15.778183793129497,18.28593593654725 L 15.278183793639496,18.28593593654725 L 15.278183793639496,18.535935936292244 L 14.778183794149495,18.535935936292244 L 14.778183794149495,18.285935936547258 L 14.278183794659494,18.28593593654725 L 14.278183794659494,18.535935936292244 L 13.778183795169497,18.535935936292258 L 13.778183795169497,18.28593593654725 L 13.2781837956795,18.28593593654725 L 13.278183795679496,18.535935936292244 L 12.778183796189499,18.535935936292244 L 12.778183796189495,18.28593593654725 L 12.278183796699498,18.285935936547258 L 12.278183796699498,17.78593593705725 L 12.528183796444495,17.78593593705725 L 12.528183796444495,17.28593593756725 L 12.278183796699498,17.28593593756725 L 12.278183796699498,16.785935938077255 L 12.528183796444495,16.785935938077248 L 12.528183796444495,16.285935938587254 L 12.278183796699498,16.285935938587254 L 12.27818379669949,15.785935939097254 L 12.528183796444495,15.785935939097254 L 12.528183796444495,15.285935939607253 L 12.278183796699498,15.28593593960726 L 12.278183796699498,14.785935940117259 L 12.528183796444495,14.785935940117245 L 12.528183796444498,14.285935940627258 L 12.278183796699498,14.285935940627258 L 12.278183796699498,13.78593594113725 L 12.528183796444495,13.78593594113725 L 12.528183796444491,13.28593594164725 L 12.278183796699498,13.28593594164725 L 12.278183796699498,12.785935942157248 L 12.778183796189495,12.785935942157256 L 12.778183796189495,12.535935942412255 L 13.2781837956795,12.535935942412255 L 13.2781837956795,12.785935942157248 L 13.778183795169497,12.785935942157256 L 13.7781837951695,12.535935942412255 L 14.278183794659494,12.535935942412255 L 14.278183794659494,12.785935942157248 L 14.778183794149495,12.785935942157248 L 14.778183794149495,12.535935942412255 L 15.278183793639496,12.535935942412255 L 15.278183793639496,12.785935942157248 L 15.778183793129497,12.785935942157248 L 15.778183793129497,12.535935942412255 L 16.278183792619497,12.535935942412255 L 16.278183792619497,12.785935942157248 L 16.778183792109495,12.785935942157248 L 16.778183792109495,12.535935942412255 L 17.278183791599496,12.535935942412255 L 17.278183791599496,12.785935942157248 L 17.778183791089493,12.785935942157248 L 17.778183791089493,12.535935942412255 L 18.278183790579494,12.535935942412255 L 18.278183790579494,13.285935941647264 L 18.028183790834493,13.28593594164725 L 18.028183790834493,13.78593594113725 L 18.278183790579494,13.78593594113725 L 18.278183790579494,14.285935940627258 L 18.028183790834493,14.285935940627258 L 18.028183790834493,14.785935940117259 L 18.278183790579494,14.785935940117245 L 18.278183790579494,15.28593593960726 M 9.233161685925486,12.528508024301278 L 9.733161685415483,12.528508024301278 L 9.733161685415483,12.778508024046271 L 10.233161684905484,12.778508024046285 L 10.23316168490548,12.528508024301278 L 10.733161684395483,12.528508024301278 L 10.733161684395483,12.778508024046271 L 11.233161683885488,12.778508024046285 L 11.233161683885484,12.528508024301278 L 11.983161683120482,12.528508024301278 L 11.983161683120482,13.27850802353628 L 12.233161682865482,13.278508023536286 L 12.233161682865482,13.77850802302628 L 11.983161683120482,13.77850802302628 L 11.983161683120482,14.27850802251628 L 12.233161682865482,14.27850802251628 L 12.233161682865482,14.778508022006275 L 11.983161683120482,14.778508022006282 L 11.983161683120482,15.278508021496283 L 12.233161682865482,15.278508021496283 L 12.233161682865482,15.778508020986276 L 11.983161683120482,15.778508020986276 L 11.983161683120482,16.278508020476277 L 12.23316168286549,16.278508020476277 L 12.233161682865482,16.77850801996627 L 11.983161683120489,16.778508019966278 L 11.983161683120482,17.27850801945627 L 12.233161682865482,17.27850801945627 L 12.233161682865482,17.778508018946273 L 11.983161683120482,17.778508018946273 L 11.983161683120489,18.52850801818128 L 11.23316168388548,18.528508018181274 L 11.233161683885484,18.278508018436273 L 10.733161684395482,18.278508018436273 L 10.733161684395482,18.528508018181274 L 10.233161684905486,18.528508018181274 L 10.233161684905486,18.278508018436273 L 9.733161685415482,18.278508018436273 L 9.733161685415483,18.528508018181274 L 9.23316168592549,18.52850801818128 L 8.733161686435485,15.528508021241283 L 9.233161685925486,12.528508024301278 M 18.30621670175343,18.617459499057535 L 18.30621670175343,22.70045176004199 L 10.806216709403435,22.70045176004199 L 10.806216709403431,18.617459499057542 L 18.30621670175343,18.617459499057535 M 10.830352594817848,22.763602949659255 L 18.330352587167848,22.763602949659255 L 18.330352587167848,26.846595210643702 L 10.830352594817848,26.846595210643716 L 10.830352594817848,22.763602949659255 "
  />
  <path id="face0-interior"
 style="fill:none;stroke:#FF0000;stroke-width:0.0393700787402;stroke-miterlimit:4;stroke-dasharray:none;stroke-linejoin:round;stroke-linecap:round"
        d="M 1.484259902731448,0.4750058878296062 M 1.299802204450788,0.40936441548474134 M 1.1046404866322486,0.393700787402 M 0.9120746978251577,0.42908245394985256 M 0.7352278783067265,0.5130982130240542 M 0.5861518465739333,0.6400225294862838 M 0.4750058878295813,0.8012057209219807 M 0.4093644154847307,0.9856634192026408 M 0.393700787402,1.1808251370211695 M 0.42908245394984545,1.3733909258282497 M 0.51309821302404,1.5502377453466951 M 0.6400225294862554,1.6993137770794848 M 0.8012057209219594,1.8104597358238226 M 0.9856634192026088,1.8761012081686945 M 1.1808251370211553,1.8917648362514217 M 1.3733909258282284,1.8563831697035726 M 1.5502377453466667,1.7723674106293816 M 1.69931377707946,1.6454430941671592 M 1.8104597358237942,1.4842599027314551 M 1.8761012081686732,1.2998022044508164 M 1.891764836251404,1.1046404866322734 M 1.8563831697035407,0.9120746978251861 M 1.7723674106293532,0.7352278783067514 M 1.6454430941671379,0.5861518465739546 "
  />
  <path id="face1-interior"
 style="fill:none;stroke:#FF0000;stroke-width:0.0393700787402;stroke-miterlimit:4;stroke-dasharray:none;stroke-linejoin:round;stroke-linecap:round"
        d="M 0.4863484066696908,2.5312063516889074 M 0.5187007872745073,2.535465623398429 M 0.5510531678793202,2.5312063516889074 M 0.581200787210761,2.518718798888556 M 0.6070891348326728,2.4988539710840802 M 0.6269539626371379,2.472965623462172 M 0.6394415154374786,2.4428180041307312 M 0.6437007871470004,2.410465623525929 M 0.6394415154374964,2.3781132429211054 M 0.6269539626371663,2.347965623589661 M 0.6070891348326906,2.3220772759677493 M 0.5812007872107645,2.3022124481632735 M 0.5510531678793309,2.289724895362954 M 0.5187007872745073,2.2854656236534217 M 0.4863484066696908,2.28972489536294 M 0.45620078733826785,2.302212448163295 M 0.4303124397163418,2.3220772759677706 M 0.4104476119118696,2.347965623589679 M 0.3979600591115289,2.378113242921109 M 0.393700787402,2.4104656235259325 M 0.3979600591115324,2.4428180041307312 M 0.4104476119118945,2.4729656234621578 M 0.4303124397163631,2.498853971084066 M 0.4562007873382572,2.518718798888556 "
  />
  <path id="face2-interior"
 style="fill:none;stroke:#FF0000;stroke-width:0.0393700787402;stroke-miterlimit:4;stroke-dasharray:none;stroke-linejoin:round;stroke-linecap:round"
        d="M 18.393700769042,2.929166410800429 M 0.393700787402,2.929166410800429 M 0.39370078740200354,26.929166386320436 M 18.393700769042,26.929166386320436 M 14.163769431326848,2.962736630565383 M 14.66376943081685,2.962736630565383 M 14.66376943081685,3.2127366303103835 M 15.16376943030685,3.2127366303103977 M 15.16376943030685,2.9627366305654044 M 15.66376942979685,2.9627366305653973 M 15.66376942979685,3.2127366303103835 M 16.163769429286848,3.2127366303103835 M 16.163769429286848,2.9627366305653546 M 16.66376942877685,2.962736630565383 M 16.66376942877685,3.2127366303103977 M 17.163769428266846,3.2127366303103977 M 17.163769428266846,2.9627366305653973 M 17.66376942775685,2.9627366305653973 M 17.66376942775685,3.2127366303103977 M 17.91376942750185,3.2127366303103835 M 17.91376942750185,3.962736629545392 M 18.163769427246848,3.962736629545392 M 18.163769427246848,4.462736629035385 M 17.91376942750185,4.462736629035385 M 17.91376942750185,4.962736628525386 M 18.163769427246848,4.962736628525386 M 18.163769427246848,5.462736628015387 M 17.91376942750185,5.462736628015387 M 17.91376942750185,5.962736627505388 M 12.413769433111849,5.962736627505395 M 12.413769433111849,5.462736628015394 M 12.163769433366852,5.462736628015394 M 12.163769433366852,4.962736628525393 M 12.413769433111849,4.962736628525386 M 12.413769433111849,4.462736629035385 M 12.163769433366852,4.462736629035392 M 12.163769433366852,3.962736629545392 M 12.413769433111849,3.962736629545392 M 12.413769433111849,3.462736630055384 M 12.163769433366852,3.462736630055398 M 12.163769433366852,2.962736630565298 M 12.66376943285685,2.9627366305654186 M 12.66376943285685,3.2127366303103977 M 13.16376943234685,3.2127366303103835 M 13.16376943234685,2.962736630565454 M 13.663769431836847,2.962736630565433 M 13.663769431836847,3.212736630310405 M 14.163769431326848,3.2127366303103977 M 18.252863882541835,9.003535275678782 M 17.752863883051837,9.003535275678782 M 17.752863883051837,8.753535275933789 M 17.252863883561826,8.753535275933789 M 17.252863883561826,9.003535275678782 M 16.75286388407183,9.003535275678782 M 16.752863884071832,8.753535275933789 M 16.252863884581835,8.753535275933789 M 16.252863884581828,9.003535275678775 M 15.752863885091827,9.003535275678775 M 15.752863885091834,8.753535275933789 M 15.252863885601826,8.753535275933775 M 15.252863885601826,9.003535275678775 M 14.752863886111829,9.003535275678775 M 14.752863886111836,8.753535275933775 M 14.252863886621835,8.753535275933775 M 14.252863886621828,9.003535275678775 M 13.752863887131827,9.003535275678775 M 13.752863887131834,8.753535275933775 M 13.252863887641826,8.753535275933775 M 13.252863887641837,9.003535275678775 M 12.752863888151833,9.003535275678775 M 12.752863888151833,8.753535275933775 M 12.502863888406832,8.753535275933775 M 12.502863888406832,8.00353527669878 M 12.252863888661832,8.003535276698766 M 12.252863888661832,7.503535277208772 M 12.502863888406832,7.503535277208772 M 12.502863888406832,7.003535277718771 M 12.252863888661832,7.003535277718771 M 12.252863888661835,6.503535278228776 M 12.502863888406836,6.503535278228776 M 12.502863888406836,6.0035352787387755 M 18.00286388279683,6.003535278738783 M 18.00286388279683,6.503535278228783 M 18.252863882541835,6.503535278228776 M 18.252863882541835,7.003535277718785 M 18.00286388279683,7.003535277718785 M 18.00286388279683,7.503535277208786 M 18.252863882541835,7.503535277208786 M 18.252863882541835,8.00353527669878 M 18.00286388279683,8.00353527669878 M 18.00286388279683,8.503535276188781 M 18.252863882541835,8.503535276188781 M 11.759386203459092,10.05795758496961 M 11.509386203714092,10.05795758496961 M 11.509386203714092,9.55795758547961 M 11.759386203459092,9.557957585479596 M 11.759386203459087,9.307957585734602 M 12.259386202949091,9.30795758573461 M 12.259386202949095,9.057957585989609 M 12.759386202439092,9.057957585989609 M 12.759386202439089,9.30795758573461 M 13.25938620192909,9.30795758573461 M 13.259386201929093,9.057957585989609 M 13.759386201419094,9.057957585989616 M 13.759386201419087,9.30795758573461 M 14.259386200909088,9.30795758573461 M 14.259386200909088,9.057957585989609 M 14.759386200399092,9.057957585989609 M 14.759386200399092,9.30795758573461 M 15.259386199889093,9.30795758573461 M 15.259386199889093,9.057957585989609 M 15.759386199379094,9.057957585989609 M 15.759386199379094,9.30795758573461 M 16.25938619886909,9.30795758573461 M 16.25938619886909,9.057957585989609 M 16.759386198359092,9.057957585989609 M 16.759386198359092,9.30795758573461 M 17.259386197849086,9.30795758573461 M 17.259386197849086,9.55795758547961 M 17.50938619759409,9.55795758547961 M 17.50938619759409,10.05795758496961 M 17.259386197849093,10.05795758496961 M 17.259386197849086,10.557957584459611 M 17.509386197594086,10.557957584459611 M 17.509386197594086,11.057957583949605 M 17.259386197849086,11.057957583949605 M 17.259386197849086,11.557957583439606 M 17.509386197594086,11.557957583439606 M 17.509386197594086,12.057957582929607 M 14.509386200654088,12.557957582419608 M 11.509386203714087,12.057957582929607 M 11.509386203714088,11.557957583439606 M 11.75938620345909,11.557957583439606 M 11.759386203459087,11.057957583949605 M 11.509386203714088,11.057957583949605 M 11.509386203714088,10.557957584459611 M 11.759386203459087,10.557957584459611 M 18.278183790579494,15.28593593960726 M 18.028183790834493,15.285935939607253 M 18.028183790834493,15.785935939097254 M 18.278183790579494,15.785935939097254 M 18.278183790579494,16.285935938587254 M 18.028183790834493,16.285935938587254 M 18.028183790834493,16.785935938077248 M 18.278183790579494,16.785935938077248 M 18.278183790579494,17.285935937567256 M 18.028183790834493,17.285935937567256 M 18.028183790834493,17.785935937057257 M 18.2781837905795,17.78593593705725 M 18.278183790579494,18.535935936292244 M 17.778183791089496,18.535935936292244 M 17.778183791089493,18.28593593654725 M 17.278183791599496,18.285935936547258 M 17.278183791599496,18.535935936292244 M 16.778183792109495,18.535935936292244 M 16.7781837921095,18.285935936547258 M 16.278183792619497,18.28593593654725 M 16.278183792619497,18.535935936292244 M 15.778183793129497,18.535935936292244 M 15.778183793129497,18.28593593654725 M 15.278183793639496,18.28593593654725 M 15.278183793639496,18.535935936292244 M 14.778183794149495,18.535935936292244 M 14.778183794149495,18.285935936547258 M 14.278183794659494,18.28593593654725 M 14.278183794659494,18.535935936292244 M 13.778183795169497,18.535935936292258 M 13.778183795169497,18.28593593654725 M 13.2781837956795,18.28593593654725 M 13.278183795679496,18.535935936292244 M 12.778183796189499,18.535935936292244 M 12.778183796189495,18.28593593654725 M 12.278183796699498,18.285935936547258 M 12.278183796699498,17.78593593705725 M 12.528183796444495,17.78593593705725 M 12.528183796444495,17.28593593756725 M 12.278183796699498,17.28593593756725 M 12.278183796699498,16.785935938077255 M 12.528183796444495,16.785935938077248 M 12.528183796444495,16.285935938587254 M 12.278183796699498,16.285935938587254 M 12.27818379669949,15.785935939097254 M 12.528183796444495,15.785935939097254 M 12.528183796444495,15.285935939607253 M 12.278183796699498,15.28593593960726 M 12.278183796699498,14.785935940117259 M 12.528183796444495,14.785935940117245 M 12.528183796444498,14.285935940627258 M 12.278183796699498,14.285935940627258 M 12.278183796699498,13.78593594113725 M 12.528183796444495,13.78593594113725 M 12.528183796444491,13.28593594164725 M 12.278183796699498,13.28593594164725 M 12.278183796699498,12.785935942157248 M 12.778183796189495,12.785935942157256 M 12.778183796189495,12.535935942412255 M 13.2781837956795,12.535935942412255 M 13.2781837956795,12.785935942157248 M 13.778183795169497,12.785935942157256 M 13.7781837951695,12.535935942412255 M 14.278183794659494,12.535935942412255 M 14.278183794659494,12.785935942157248 M 14.778183794149495,12.785935942157248 M 14.778183794149495,12.535935942412255 M 15.278183793639496,12.535935942412255 M 15.278183793639496,12.785935942157248 M 15.778183793129497,12.785935942157248 M 15.778183793129497,12.535935942412255 M 16.278183792619497,12.535935942412255 M 16.278183792619497,12.785935942157248 M 16.778183792109495,12.785935942157248 M 16.778183792109495,12.535935942412255 M 17.278183791599496,12.535935942412255 M 17.278183791599496,12.785935942157248 M 17.778183791089493,12.785935942157248 M 17.778183791089493,12.535935942412255 M 18.278183790579494,12.535935942412255 M 18.278183790579494,13.285935941647264 M 18.028183790834493,13.28593594164725 M 18.028183790834493,13.78593594113725 M 18.278183790579494,13.78593594113725 M 18.278183790579494,14.285935940627258 M 18.028183790834493,14.285935940627258 M 18.028183790834493,14.785935940117259 M 18.278183790579494,14.785935940117245 M 9.233161685925486,12.528508024301278 M 9.733161685415483,12.528508024301278 M 9.733161685415483,12.778508024046271 M 10.233161684905484,12.778508024046285 M 10.23316168490548,12.528508024301278 M 10.733161684395483,12.528508024301278 M 10.733161684395483,12.778508024046271 M 11.233161683885488,12.778508024046285 M 11.233161683885484,12.528508024301278 M 11.983161683120482,12.528508024301278 M 11.983161683120482,13.27850802353628 M 12.233161682865482,13.278508023536286 M 12.233161682865482,13.77850802302628 M 11.983161683120482,13.77850802302628 M 11.983161683120482,14.27850802251628 M 12.233161682865482,14.27850802251628 M 12.233161682865482,14.778508022006275 M 11.983161683120482,14.778508022006282 M 11.983161683120482,15.278508021496283 M 12.233161682865482,15.278508021496283 M 12.233161682865482,15.778508020986276 M 11.983161683120482,15.778508020986276 M 11.983161683120482,16.278508020476277 M 12.23316168286549,16.278508020476277 M 12.233161682865482,16.77850801996627 M 11.983161683120489,16.778508019966278 M 11.983161683120482,17.27850801945627 M 12.233161682865482,17.27850801945627 M 12.233161682865482,17.778508018946273 M 11.983161683120482,17.778508018946273 M 11.983161683120489,18.52850801818128 M 11.23316168388548,18.528508018181274 M 11.233161683885484,18.278508018436273 M 10.733161684395482,18.278508018436273 M 10.733161684395482,18.528508018181274 M 10.233161684905486,18.528508018181274 M 10.233161684905486,18.278508018436273 M 9.733161685415482,18.278508018436273 M 9.733161685415483,18.528508018181274 M 9.23316168592549,18.52850801818128 M 8.733161686435485,15.528508021241283 M 18.30621670175343,18.617459499057535 M 18.30621670175343,22.70045176004199 M 10.806216709403435,22.70045176004199 M 10.806216709403431,18.617459499057542 M 10.830352594817848,22.763602949659255 M 18.330352587167848,22.763602949659255 M 18.330352587167848,26.846595210643702 M 10.830352594817848,26.846595210643716 "
  />
  <path id="face0-interior"
 style="fill:none;stroke:#00FF00;stroke-width:0.0393700787402;stroke-miterlimit:4;stroke-dasharray:none;stroke-linejoin:round;stroke-linecap:round"
        d="M 1.484259902731448,0.4750058878296062 M 1.299802204450788,0.40936441548474134 M 1.1046404866322486,0.393700787402 M 0.9120746978251577,0.42908245394985256 M 0.7352278783067265,0.5130982130240542 M 0.5861518465739333,0.6400225294862838 M 0.4750058878295813,0.8012057209219807 M 0.4093644154847307,0.9856634192026408 M 0.393700787402,1.1808251370211695 M 0.42908245394984545,1.3733909258282497 M 0.51309821302404,1.5502377453466951 M 0.6400225294862554,1.6993137770794848 M 0.8012057209219594,1.8104597358238226 M 0.9856634192026088,1.8761012081686945 M 1.1808251370211553,1.8917648362514217 M 1.3733909258282284,1.8563831697035726 M 1.5502377453466667,1.7723674106293816 M 1.69931377707946,1.6454430941671592 M 1.8104597358237942,1.4842599027314551 M 1.8761012081686732,1.2998022044508164 M 1.891764836251404,1.1046404866322734 M 1.8563831697035407,0.9120746978251861 M 1.7723674106293532,0.7352278783067514 M 1.6454430941671379,0.5861518465739546 "
  />
  <path id="face1-interior"
 style="fill:none;stroke:#00FF00;stroke-width:0.0393700787402;stroke-miterlimit:4;stroke-dasharray:none;stroke-linejoin:round;stroke-linecap:round"
        d="M 0.4863484066696908,2.5312063516889074 M 0.5187007872745073,2.535465623398429 M 0.5510531678793202,2.5312063516889074 M 0.581200787210761,2.518718798888556 M 0.6070891348326728,2.4988539710840802 M 0.6269539626371379,2.472965623462172 M 0.6394415154374786,2.4428180041307312 M 0.6437007871470004,2.410465623525929 M 0.6394415154374964,2.3781132429211054 M 0.6269539626371663,2.347965623589661 M 0.6070891348326906,2.3220772759677493 M 0.5812007872107645,2.3022124481632735 M 0.5510531678793309,2.289724895362954 M 0.5187007872745073,2.2854656236534217 M 0.4863484066696908,2.28972489536294 M 0.45620078733826785,2.302212448163295 M 0.4303124397163418,2.3220772759677706 M 0.4104476119118696,2.347965623589679 M 0.3979600591115289,2.378113242921109 M 0.393700787402,2.4104656235259325 M 0.3979600591115324,2.4428180041307312 M 0.4104476119118945,2.4729656234621578 M 0.4303124397163631,2.498853971084066 M 0.4562007873382572,2.518718798888556 "
  />
  <path id="face2-interior"
 style="fill:none;stroke:#00FF00;stroke-width:0.0393700787402;stroke-miterlimit:4;stroke-dasharray:none;stroke-linejoin:round;stroke-linecap:round"
        d="M 18.393700769042,2.929166410800429 M 0.393700787402,2.929166410800429 M 0.39370078740200354,26.929166386320436 M 18.393700769042,26.929166386320436 M 14.163769431326848,2.962736630565383 M 14.66376943081685,2.962736630565383 M 14.66376943081685,3.2127366303103835 M 15.16376943030685,3.2127366303103977 M 15.16376943030685,2.9627366305654044 M 15.66376942979685,2.9627366305653973 M 15.66376942979685,3.2127366303103835 M 16.163769429286848,3.2127366303103835 M 16.163769429286848,2.9627366305653546 M 16.66376942877685,2.962736630565383 M 16.66376942877685,3.2127366303103977 M 17.163769428266846,3.2127366303103977 M 17.163769428266846,2.9627366305653973 M 17.66376942775685,2.9627366305653973 M 17.66376942775685,3.2127366303103977 M 17.91376942750185,3.2127366303103835 M 17.91376942750185,3.962736629545392 M 18.163769427246848,3.962736629545392 M 18.163769427246848,4.462736629035385 M 17.91376942750185,4.462736629035385 M 17.91376942750185,4.962736628525386 M 18.163769427246848,4.962736628525386 M 18.163769427246848,5.462736628015387 M 17.91376942750185,5.462736628015387 M 17.91376942750185,5.962736627505388 M 12.413769433111849,5.962736627505395 M 12.413769433111849,5.462736628015394 M 12.163769433366852,5.462736628015394 M 12.163769433366852,4.962736628525393 M 12.413769433111849,4.962736628525386 M 12.413769433111849,4.462736629035385 M 12.163769433366852,4.462736629035392 M 12.163769433366852,3.962736629545392 M 12.413769433111849,3.962736629545392 M 12.413769433111849,3.462736630055384 M 12.163769433366852,3.462736630055398 M 12.163769433366852,2.962736630565298 M 12.66376943285685,2.9627366305654186 M 12.66376943285685,3.2127366303103977 M 13.16376943234685,3.2127366303103835 M 13.16376943234685,2.962736630565454 M 13.663769431836847,2.962736630565433 M 13.663769431836847,3.212736630310405 M 14.163769431326848,3.2127366303103977 M 18.252863882541835,9.003535275678782 M 17.752863883051837,9.003535275678782 M 17.752863883051837,8.753535275933789 M 17.252863883561826,8.753535275933789 M 17.252863883561826,9.003535275678782 M 16.75286388407183,9.003535275678782 M 16.752863884071832,8.753535275933789 M 16.252863884581835,8.753535275933789 M 16.252863884581828,9.003535275678775 M 15.752863885091827,9.003535275678775 M 15.752863885091834,8.753535275933789 M 15.252863885601826,8.753535275933775 M 15.252863885601826,9.003535275678775 M 14.752863886111829,9.003535275678775 M 14.752863886111836,8.753535275933775 M 14.252863886621835,8.753535275933775 M 14.252863886621828,9.003535275678775 M 13.752863887131827,9.003535275678775 M 13.752863887131834,8.753535275933775 M 13.252863887641826,8.753535275933775 M 13.252863887641837,9.003535275678775 M 12.752863888151833,9.003535275678775 M 12.752863888151833,8.753535275933775 M 12.502863888406832,8.753535275933775 M 12.502863888406832,8.00353527669878 M 12.252863888661832,8.003535276698766 M 12.252863888661832,7.503535277208772 M 12.502863888406832,7.503535277208772 M 12.502863888406832,7.003535277718771 M 12.252863888661832,7.003535277718771 M 12.252863888661835,6.503535278228776 M 12.502863888406836,6.503535278228776 M 12.502863888406836,6.0035352787387755 M 18.00286388279683,6.003535278738783 M 18.00286388279683,6.503535278228783 M 18.252863882541835,6.503535278228776 M 18.252863882541835,7.003535277718785 M 18.00286388279683,7.003535277718785 M 18.00286388279683,7.503535277208786 M 18.252863882541835,7.503535277208786 M 18.252863882541835,8.00353527669878 M 18.00286388279683,8.00353527669878 M 18.00286388279683,8.503535276188781 M 18.252863882541835,8.503535276188781 M 11.759386203459092,10.05795758496961 M 11.509386203714092,10.05795758496961 M 11.509386203714092,9.55795758547961 M 11.759386203459092,9.557957585479596 M 11.759386203459087,9.307957585734602 M 12.259386202949091,9.30795758573461 M 12.259386202949095,9.057957585989609 M 12.759386202439092,9.057957585989609 M 12.759386202439089,9.30795758573461 M 13.25938620192909,9.30795758573461 M 13.259386201929093,9.057957585989609 M 13.759386201419094,9.057957585989616 M 13.759386201419087,9.30795758573461 M 14.259386200909088,9.30795758573461 M 14.259386200909088,9.057957585989609 M 14.759386200399092,9.057957585989609 M 14.759386200399092,9.30795758573461 M 15.259386199889093,9.30795758573461 M 15.259386199889093,9.057957585989609 M 15.759386199379094,9.057957585989609 M 15.759386199379094,9.30795758573461 M 16.25938619886909,9.30795758573461 M 16.25938619886909,9.057957585989609 M 16.759386198359092,9.057957585989609 M 16.759386198359092,9.30795758573461 M 17.259386197849086,9.30795758573461 M 17.259386197849086,9.55795758547961 M 17.50938619759409,9.55795758547961 M 17.50938619759409,10.05795758496961 M 17.259386197849093,10.05795758496961 M 17.259386197849086,10.557957584459611 M 17.509386197594086,10.557957584459611 M 17.509386197594086,11.057957583949605 M 17.259386197849086,11.057957583949605 M 17.259386197849086,11.557957583439606 M 17.509386197594086,11.557957583439606 M 17.509386197594086,12.057957582929607 M 14.509386200654088,12.557957582419608 M 11.509386203714087,12.057957582929607 M 11.509386203714088,11.557957583439606 M 11.75938620345909,11.557957583439606 M 11.759386203459087,11.057957583949605 M 11.509386203714088,11.057957583949605 M 11.509386203714088,10.557957584459611 M 11.759386203459087,10.557957584459611 M 18.278183790579494,15.28593593960726 M 18.028183790834493,15.285935939607253 M 18.028183790834493,15.785935939097254 M 18.278183790579494,15.785935939097254 M 18.278183790579494,16.285935938587254 M 18.028183790834493,16.285935938587254 M 18.028183790834493,16.785935938077248 M 18.278183790579494,16.785935938077248 M 18.278183790579494,17.285935937567256 M 18.028183790834493,17.285935937567256 M 18.028183790834493,17.785935937057257 M 18.2781837905795,17.78593593705725 M 18.278183790579494,18.535935936292244 M 17.778183791089496,18.535935936292244 M 17.778183791089493,18.28593593654725 M 17.278183791599496,18.285935936547258 M 17.278183791599496,18.535935936292244 M 16.778183792109495,18.535935936292244 M 16.7781837921095,18.285935936547258 M 16.278183792619497,18.28593593654725 M 16.278183792619497,18.535935936292244 M 15.778183793129497,18.535935936292244 M 15.778183793129497,18.28593593654725 M 15.278183793639496,18.28593593654725 M 15.278183793639496,18.535935936292244 M 14.778183794149495,18.535935936292244 M 14.778183794149495,18.285935936547258 M 14.278183794659494,18.28593593654725 M 14.278183794659494,18.535935936292244 M 13.778183795169497,18.535935936292258 M 13.778183795169497,18.28593593654725 M 13.2781837956795,18.28593593654725 M 13.278183795679496,18.535935936292244 M 12.778183796189499,18.535935936292244 M 12.778183796189495,18.28593593654725 M 12.278183796699498,18.285935936547258 M 12.278183796699498,17.78593593705725 M 12.528183796444495,17.78593593705725 M 12.528183796444495,17.28593593756725 M 12.278183796699498,17.28593593756725 M 12.278183796699498,16.785935938077255 M 12.528183796444495,16.785935938077248 M 12.528183796444495,16.285935938587254 M 12.278183796699498,16.285935938587254 M 12.27818379669949,15.785935939097254 M 12.528183796444495,15.785935939097254 M 12.528183796444495,15.285935939607253 M 12.278183796699498,15.28593593960726 M 12.278183796699498,14.785935940117259 M 12.528183796444495,14.785935940117245 M 12.528183796444498,14.285935940627258 M 12.278183796699498,14.285935940627258 M 12.278183796699498,13.78593594113725 M 12.528183796444495,13.78593594113725 M 12.528183796444491,13.28593594164725 M 12.278183796699498,13.28593594164725 M 12.278183796699498,12.785935942157248 M 12.778183796189495,12.785935942157256 M 12.778183796189495,12.535935942412255 M 13.2781837956795,12.535935942412255 M 13.2781837956795,12.785935942157248 M 13.778183795169497,12.785935942157256 M 13.7781837951695,12.535935942412255 M 14.278183794659494,12.535935942412255 M 14.278183794659494,12.785935942157248 M 14.778183794149495,12.785935942157248 M 14.778183794149495,12.535935942412255 M 15.278183793639496,12.535935942412255 M 15.278183793639496,12.785935942157248 M 15.778183793129497,12.785935942157248 M 15.778183793129497,12.535935942412255 M 16.278183792619497,12.535935942412255 M 16.278183792619497,12.785935942157248 M 16.778183792109495,12.785935942157248 M 16.778183792109495,12.535935942412255 M 17.278183791599496,12.535935942412255 M 17.278183791599496,12.785935942157248 M 17.778183791089493,12.785935942157248 M 17.778183791089493,12.535935942412255 M 18.278183790579494,12.535935942412255 M 18.278183790579494,13.285935941647264 M 18.028183790834493,13.28593594164725 M 18.028183790834493,13.78593594113725 M 18.278183790579494,13.78593594113725 M 18.278183790579494,14.285935940627258 M 18.028183790834493,14.285935940627258 M 18.028183790834493,14.785935940117259 M 18.278183790579494,14.785935940117245 M 9.233161685925486,12.528508024301278 M 9.733161685415483,12.528508024301278 M 9.733161685415483,12.778508024046271 M 10.233161684905484,12.778508024046285 M 10.23316168490548,12.528508024301278 M 10.733161684395483,12.528508024301278 M 10.733161684395483,12.778508024046271 M 11.233161683885488,12.778508024046285 M 11.233161683885484,12.528508024301278 M 11.983161683120482,12.528508024301278 M 11.983161683120482,13.27850802353628 M 12.233161682865482,13.278508023536286 M 12.233161682865482,13.77850802302628 M 11.983161683120482,13.77850802302628 M 11.983161683120482,14.27850802251628 M 12.233161682865482,14.27850802251628 M 12.233161682865482,14.778508022006275 M 11.983161683120482,14.778508022006282 M 11.983161683120482,15.278508021496283 M 12.233161682865482,15.278508021496283 M 12.233161682865482,15.778508020986276 M 11.983161683120482,15.778508020986276 M 11.983161683120482,16.278508020476277 M 12.23316168286549,16.278508020476277 M 12.233161682865482,16.77850801996627 M 11.983161683120489,16.778508019966278 M 11.983161683120482,17.27850801945627 M 12.233161682865482,17.27850801945627 M 12.233161682865482,17.778508018946273 M 11.983161683120482,17.778508018946273 M 11.983161683120489,18.52850801818128 M 11.23316168388548,18.528508018181274 M 11.233161683885484,18.278508018436273 M 10.733161684395482,18.278508018436273 M 10.733161684395482,18.528508018181274 M 10.233161684905486,18.528508018181274 M 10.233161684905486,18.278508018436273 M 9.733161685415482,18.278508018436273 M 9.733161685415483,18.528508018181274 M 9.23316168592549,18.52850801818128 M 8.733161686435485,15.528508021241283 M 18.30621670175343,18.617459499057535 M 18.30621670175343,22.70045176004199 M 10.806216709403435,22.70045176004199 M 10.806216709403431,18.617459499057542 M 10.830352594817848,22.763602949659255 M 18.330352587167848,22.763602949659255 M 18.330352587167848,26.846595210643702 M 10.830352594817848,26.846595210643716 "
  />
</svg>
