<?xml version="1.0" encoding="utf-8"?>
<!-- Generator: Adobe Illustrator 16.0.0, SVG Export Plug-In . SVG Version: 6.00 Build 0)  -->
<!DOCTYPE svg PUBLIC "-//W3C//DTD SVG 1.1//EN" "http://www.w3.org/Graphics/SVG/1.1/DTD/svg11.dtd">
<svg version="1.1" id="Layer_1" xmlns="http://www.w3.org/2000/svg" xmlns:xlink="http://www.w3.org/1999/xlink" x="0px" y="0px"
	 width="1728px" height="1368px" viewBox="-187.653 208.347 1728 1368" enable-background="new -187.653 208.347 1728 1368"
	 xml:space="preserve">
<desc>Output from Flights of Ideas SVG Sketchup Plugin</desc>
<path id="face0-cut" fill="none" stroke="#0000FF" stroke-linecap="round" stroke-linejoin="round" d="M1319.652,1554.31"/>
<path id="face0-interior" fill="none" stroke="#000000" stroke-width="0.001" stroke-linecap="round" stroke-linejoin="round" d="
	M33.652,662.847v-36.001h18v-18h-18v-17.999h18v-18h-18v-18h18v-18.001h-18v-18h18v-17.999h-18v-18h18v-18h-18v-18.001h18v-18h-18
	v-17.999h18v-18h-18v-18.001h18v-17.999h-18v-18.001h18v-17.999h-18v-18h18v-18h-18v-18h18v-18.001h-18v-35.999h-18.36v18h-17.64
	v-18h-18.36v18h-17.64v-18h-18.36v18h-17.64v-18h-18.36v18h-17.64v-18h-18.36v18h-17.64v-18h-18v35.999h-18v18.001h18v18h-18v18h18
	v18h-18v17.999h18v18.001h-18v17.999h18v18.001h-18v18h18v17.999h-18v18h18v18.001h-18v18h18v18h-18v17.999h18v18h-18v18.001h18v18
	h-18v18h18v17.999h-18v18h18v36.001h18.359v-18h17.641v18h18.36v-18h17.64v18h18.36v-18h17.64v18h18.36v-18h17.64v18h18.36v-18
	h17.64v18H33.652"/>
<path id="face1-interior" fill="none" stroke="#FF0000" stroke-linecap="round" stroke-linejoin="round" d="M1283.651,1518.31"/>
<path id="face0-interior_1_" fill="none" stroke="#00FF00" stroke-linecap="round" stroke-linejoin="round" d="M1319.652,1554.31"/>
<path id="face1-interior_1_" fill="none" stroke="#00FF00" stroke-linecap="round" stroke-linejoin="round" d="M1283.651,1518.31"/>
</svg>
