<?xml version="1.0" standalone="no"?>
<!DOCTYPE svg PUBLIC "-//W3C//DTD SVG 1.1//EN" "http://www.w3.org/Graphics/SVG/1.1/DTD/svg11.dtd">
<svg width="477.20000000000005mm" height="629.6000000000005mm"
 viewBox="0 0 477.20000000000005 629.6000000000005"
 xmlns="http://www.w3.org/2000/svg" version="1.1"
 xmlns:xlink="http://www.w3.org/1999/xlink">
<desc>Output from Flights of Ideas SVG Sketchup Plugin</desc>

  <path id="face0-cut"
 style="fill:none;stroke:#0000FF;stroke-width:1;stroke-miterlimit:4;stroke-dasharray:none;stroke-linejoin:round;stroke-linecap:round"
        d="M 466.47545064495,577.1009836041909 M 364.87545064494975,535.8259836041908 M 364.87545064494975,542.1759836041908 M 360.0494506449498,542.1759836041907 M 360.04945064494984,535.8259836041907 M 354.7154506449498,535.8259836041909 M 354.7154506449498,542.1759836041908 M 349.6354506449498,542.175983604191 M 349.6354506449498,535.825983604191 M 339.4754506449498,535.8259836041908 M 339.4754506449498,542.1759836041907 M 345.82545064494974,542.1759836041907 M 345.82545064494997,548.3989836041908 M 339.47545064495,548.3989836041908 M 339.47545064495006,554.8759836041908 M 345.82545064495,554.8759836041908 M 345.8254506449498,561.0989836041907 M 339.47545064494983,561.0989836041908 M 339.47545064494983,567.5759836041907 M 345.8254506449498,567.5759836041909 M 345.8254506449498,573.7989836041913 M 339.47545064494983,573.7989836041907 M 339.47545064495006,580.2759836041901 M 345.82545064495,580.2759836041907 M 345.82545064495,586.4989836041906 M 339.47545064495006,586.4989836041907 M 339.47545064494983,592.975983604191 M 345.8254506449498,592.9759836041908 M 345.82545064494985,599.1989836041907 M 339.4754506449499,599.1989836041909 M 339.4754506449501,605.6759836041908 M 345.82545064494985,605.6759836041907 M 345.8254506449501,611.8989836041908 M 339.4754506449501,611.8989836041908 M 339.47545064494983,618.3759836041908 M 349.63545064494986,618.375983604191 M 349.6354506449501,612.025983604191 M 354.7154506449501,612.025983604191 M 354.7154506449499,618.375983604191 M 360.04945064494984,618.3759836041908 M 360.04945064495007,612.0259836041909 M 364.8754506449501,612.0259836041909 M 364.87545064494986,618.3759836041908 M 433.4106498958291,572.1940804066425 M 434.0623775884719,572.0644437084119 M 434.06237758847215,576.4379105477134 M 429.6889107491709,576.4379105477129 M 429.81854744740144,575.7861828550698 M 430.0321426197926,575.156951767776 M 430.3260415937249,574.5609836041907 M 430.69521567627044,574.0084755448264 M 431.1333481965223,573.508881155763 M 431.6329425855856,573.0707486355112 M 432.1854506449499,572.7015745529657 M 432.7814188085353,572.4076755790333 M 429.6889107491709,577.7640566606685 M 434.06237758847215,577.764056660669 M 434.0623775884723,582.1375234999699 M 433.4106498958293,582.0078868017395 M 432.7814188085355,581.794291629348 M 432.18545064495015,581.5003926554157 M 431.6329425855858,581.1312185728701 M 431.13334819652255,580.6930860526185 M 430.69521567627044,580.193491663555 M 430.3260415937251,579.6409836041906 M 430.0321426197926,579.0450154406055 M 429.81854744740144,578.4157843533116 M 436.0402513940709,582.0078868017395 M 435.3885237014281,582.1375234999699 M 435.38852370142786,577.7640566606689 M 439.7619905407289,577.7640566606688 M 439.63235384249833,578.4157843533116 M 439.4187586701072,579.0450154406054 M 439.1248596961749,579.6409836041908 M 438.75568561362934,580.1934916635552 M 438.3175530933778,580.6930860526186 M 437.8179587043144,581.1312185728705 M 437.2654506449502,581.5003926554159 M 436.66948248136487,581.7942916293482 M 439.7619905407289,576.4379105477129 M 435.38852370142786,576.4379105477129 M 435.3885237014277,572.064443708412 M 436.04025139407065,572.1940804066425 M 436.6694824813645,572.4076755790336 M 437.26545064494985,572.701574552966 M 437.8179587043142,573.0707486355114 M 438.3175530933777,573.5088811557632 M 438.75568561362934,574.0084755448266 M 439.1248596961749,574.5609836041907 M 439.4187586701072,575.1569517677761 M 439.63235384249833,575.7861828550699 M 351.1602194775628,573.9259836041913 M 351.98196994576335,574.0341691057239 M 352.74771947756284,574.3513529471753 M 353.4052835078302,574.8559195739236 M 353.9098501345784,575.5134836041906 M 354.2270339760306,576.2792331359909 M 354.3352194775629,577.1009836041909 M 354.2270339760306,577.9227340723909 M 353.9098501345784,578.6884836041912 M 353.4052835078302,579.3460476344582 M 352.74771947756284,579.8506142612064 M 351.98196994576335,580.1677981026584 M 351.1602194775628,580.2759836041911 M 350.3384690093623,580.1677981026594 M 349.5727194775628,579.8506142612068 M 348.9151554472955,579.3460476344575 M 348.4105888205473,578.6884836041912 M 348.09340497909506,577.9227340723913 M 347.98521947756285,577.1009836041909 M 348.09340497909506,576.2792331359905 M 348.4105888205473,575.5134836041906 M 348.9151554472955,574.8559195739243 M 349.5727194775628,574.351352947175 M 350.3384690093623,574.0341691057234 M 372.9506660373776,560.590983604191 M 377.2237684720202,561.1535482121585 M 381.20566603737757,562.8029041877099 M 384.62499899476757,565.4266506468012 M 387.2487454538587,568.8459836041911 M 388.89810142941013,572.8278811695485 M 389.4606660373776,577.1009836041909 M 388.89810142941013,581.3740860388335 M 387.2487454538587,585.3559836041911 M 384.62499899476757,588.7753165615809 M 381.2056660373776,591.3990630206721 M 377.2237684720202,593.0484189962236 M 372.9506660373776,593.610983604191 M 368.677563602735,593.0484189962236 M 364.69566603737763,591.3990630206721 M 361.2763330799877,588.7753165615808 M 358.6525866208965,585.3559836041911 M 357.00323064534507,581.3740860388336 M 356.4406660373776,577.1009836041909 M 357.00323064534507,572.8278811695482 M 358.6525866208965,568.8459836041911 M 361.2763330799877,565.426650646801 M 364.6956660373776,562.8029041877102 M 368.677563602735,561.1535482121585 "
  />
  <path id="face1-cut"
 style="fill:none;stroke:#0000FF;stroke-width:1;stroke-miterlimit:4;stroke-dasharray:none;stroke-linejoin:round;stroke-linecap:round"
        d="M 429.6889107491709,576.4379105477129 M 434.06237758847215,576.4379105477134 M 434.0623775884719,572.0644437084119 M 433.4106498958291,572.1940804066425 M 432.7814188085353,572.4076755790333 M 432.1854506449499,572.7015745529657 M 431.6329425855856,573.0707486355112 M 431.1333481965223,573.508881155763 M 430.69521567627044,574.0084755448264 M 430.3260415937249,574.5609836041907 M 430.0321426197926,575.156951767776 M 429.81854744740144,575.7861828550698 "
  />
  <path id="face2-cut"
 style="fill:none;stroke:#0000FF;stroke-width:1;stroke-miterlimit:4;stroke-dasharray:none;stroke-linejoin:round;stroke-linecap:round"
        d="M 351.98196994576335,574.0341691057239 M 351.1602194775628,573.9259836041913 M 350.3384690093623,574.0341691057234 M 349.5727194775628,574.351352947175 M 348.9151554472955,574.8559195739243 M 348.4105888205473,575.5134836041906 M 348.09340497909506,576.2792331359905 M 347.98521947756285,577.1009836041909 M 348.09340497909506,577.9227340723913 M 348.4105888205473,578.6884836041912 M 348.9151554472955,579.3460476344575 M 349.5727194775628,579.8506142612068 M 350.3384690093623,580.1677981026594 M 351.1602194775628,580.2759836041911 M 351.98196994576335,580.1677981026584 M 352.74771947756284,579.8506142612064 M 353.4052835078302,579.3460476344582 M 353.9098501345784,578.6884836041912 M 354.2270339760306,577.9227340723909 M 354.3352194775629,577.1009836041909 M 354.2270339760306,576.2792331359909 M 353.9098501345784,575.5134836041906 M 353.4052835078302,574.8559195739236 M 352.74771947756284,574.3513529471753 "
  />
  <path id="face3-cut"
 style="fill:none;stroke:#0000FF;stroke-width:1;stroke-miterlimit:4;stroke-dasharray:none;stroke-linejoin:round;stroke-linecap:round"
        d="M 434.06237758847215,577.764056660669 M 429.6889107491709,577.7640566606685 M 429.81854744740144,578.4157843533116 M 430.0321426197926,579.0450154406055 M 430.3260415937251,579.6409836041906 M 430.69521567627044,580.193491663555 M 431.13334819652255,580.6930860526185 M 431.6329425855858,581.1312185728701 M 432.18545064495015,581.5003926554157 M 432.7814188085355,581.794291629348 M 433.4106498958293,582.0078868017395 M 434.0623775884723,582.1375234999699 "
  />
  <path id="face4-cut"
 style="fill:none;stroke:#0000FF;stroke-width:1;stroke-miterlimit:4;stroke-dasharray:none;stroke-linejoin:round;stroke-linecap:round"
        d="M 10.000000000000085,10.0 L 10.0,619.6000000000005 L 467.2,619.6 L 467.20000000000005,10.0000000000001 L 10.000000000000085,10.0 M 364.87545064494975,535.8259836041908 M 466.47545064495,577.1009836041909 M 364.87545064494986,618.3759836041908 M 364.8754506449501,612.0259836041909 M 360.04945064495007,612.0259836041909 M 360.04945064494984,618.3759836041908 M 354.7154506449499,618.375983604191 M 354.7154506449501,612.025983604191 M 349.6354506449501,612.025983604191 M 349.63545064494986,618.375983604191 M 339.47545064494983,618.3759836041908 M 339.4754506449501,611.8989836041908 M 345.8254506449501,611.8989836041908 M 345.82545064494985,605.6759836041907 M 339.4754506449501,605.6759836041908 M 339.4754506449499,599.1989836041909 M 345.82545064494985,599.1989836041907 M 345.8254506449498,592.9759836041908 M 339.47545064494983,592.975983604191 M 339.47545064495006,586.4989836041907 M 345.82545064495,586.4989836041906 M 345.82545064495,580.2759836041907 M 339.47545064495006,580.2759836041901 M 339.47545064494983,573.7989836041907 M 345.8254506449498,573.7989836041913 M 345.8254506449498,567.5759836041909 M 339.47545064494983,567.5759836041907 M 339.47545064494983,561.0989836041908 M 345.8254506449498,561.0989836041907 M 345.82545064495,554.8759836041908 M 339.47545064495006,554.8759836041908 M 339.47545064495,548.3989836041908 M 345.82545064494997,548.3989836041908 M 345.82545064494974,542.1759836041907 M 339.4754506449498,542.1759836041907 M 339.4754506449498,535.8259836041908 M 349.6354506449498,535.825983604191 M 349.6354506449498,542.175983604191 M 354.7154506449498,542.1759836041908 M 354.7154506449498,535.8259836041909 M 360.04945064494984,535.8259836041907 M 360.0494506449498,542.1759836041907 M 364.87545064494975,542.1759836041908 "
  />
  <path id="face5-cut"
 style="fill:none;stroke:#0000FF;stroke-width:1;stroke-miterlimit:4;stroke-dasharray:none;stroke-linejoin:round;stroke-linecap:round"
        d="M 377.2237684720202,561.1535482121585 M 372.9506660373776,560.590983604191 M 368.677563602735,561.1535482121585 M 364.6956660373776,562.8029041877102 M 361.2763330799877,565.426650646801 M 358.6525866208965,568.8459836041911 M 357.00323064534507,572.8278811695482 M 356.4406660373776,577.1009836041909 M 357.00323064534507,581.3740860388336 M 358.6525866208965,585.3559836041911 M 361.2763330799877,588.7753165615808 M 364.69566603737763,591.3990630206721 M 368.677563602735,593.0484189962236 M 372.9506660373776,593.610983604191 M 377.2237684720202,593.0484189962236 M 381.2056660373776,591.3990630206721 M 384.62499899476757,588.7753165615809 M 387.2487454538587,585.3559836041911 M 388.89810142941013,581.3740860388335 M 389.4606660373776,577.1009836041909 M 388.89810142941013,572.8278811695485 M 387.2487454538587,568.8459836041911 M 384.62499899476757,565.4266506468012 M 381.20566603737757,562.8029041877099 "
  />
  <path id="face6-cut"
 style="fill:none;stroke:#0000FF;stroke-width:1;stroke-miterlimit:4;stroke-dasharray:none;stroke-linejoin:round;stroke-linecap:round"
        d="M 439.7619905407289,577.7640566606688 M 435.38852370142786,577.7640566606689 M 435.3885237014281,582.1375234999699 M 436.0402513940709,582.0078868017395 M 436.66948248136487,581.7942916293482 M 437.2654506449502,581.5003926554159 M 437.8179587043144,581.1312185728705 M 438.3175530933778,580.6930860526186 M 438.75568561362934,580.1934916635552 M 439.1248596961749,579.6409836041908 M 439.4187586701072,579.0450154406054 M 439.63235384249833,578.4157843533116 "
  />
  <path id="face7-cut"
 style="fill:none;stroke:#0000FF;stroke-width:1;stroke-miterlimit:4;stroke-dasharray:none;stroke-linejoin:round;stroke-linecap:round"
        d="M 435.38852370142786,576.4379105477129 M 439.7619905407289,576.4379105477129 M 439.63235384249833,575.7861828550699 M 439.4187586701072,575.1569517677761 M 439.1248596961749,574.5609836041907 M 438.75568561362934,574.0084755448266 M 438.3175530933777,573.5088811557632 M 437.8179587043142,573.0707486355114 M 437.26545064494985,572.701574552966 M 436.6694824813645,572.4076755790336 M 436.04025139407065,572.1940804066425 M 435.3885237014277,572.064443708412 "
  />
  <path id="face0-interior"
 style="fill:none;stroke:#FF0000;stroke-width:1;stroke-miterlimit:4;stroke-dasharray:none;stroke-linejoin:round;stroke-linecap:round"
        d="M 466.47545064495,577.1009836041909 L 364.87545064494975,535.8259836041908 L 364.87545064494975,542.1759836041908 L 360.0494506449498,542.1759836041907 L 360.04945064494984,535.8259836041907 L 354.7154506449498,535.8259836041909 L 354.7154506449498,542.1759836041908 L 349.6354506449498,542.175983604191 L 349.6354506449498,535.825983604191 L 339.4754506449498,535.8259836041908 L 339.4754506449498,542.1759836041907 L 345.82545064494974,542.1759836041907 L 345.82545064494997,548.3989836041908 L 339.47545064495,548.3989836041908 L 339.47545064495006,554.8759836041908 L 345.82545064495,554.8759836041908 L 345.8254506449498,561.0989836041907 L 339.47545064494983,561.0989836041908 L 339.47545064494983,567.5759836041907 L 345.8254506449498,567.5759836041909 L 345.8254506449498,573.7989836041913 L 339.47545064494983,573.7989836041907 L 339.47545064495006,580.2759836041901 L 345.82545064495,580.2759836041907 L 345.82545064495,586.4989836041906 L 339.47545064495006,586.4989836041907 L 339.47545064494983,592.975983604191 L 345.8254506449498,592.9759836041908 L 345.82545064494985,599.1989836041907 L 339.4754506449499,599.1989836041909 L 339.4754506449501,605.6759836041908 L 345.82545064494985,605.6759836041907 L 345.8254506449501,611.8989836041908 L 339.4754506449501,611.8989836041908 L 339.47545064494983,618.3759836041908 L 349.63545064494986,618.375983604191 L 349.6354506449501,612.025983604191 L 354.7154506449501,612.025983604191 L 354.7154506449499,618.375983604191 L 360.04945064494984,618.3759836041908 L 360.04945064495007,612.0259836041909 L 364.8754506449501,612.0259836041909 L 364.87545064494986,618.3759836041908 L 466.47545064495,577.1009836041909 M 433.4106498958291,572.1940804066425 L 434.0623775884719,572.0644437084119 L 434.06237758847215,576.4379105477134 L 429.6889107491709,576.4379105477129 L 429.81854744740144,575.7861828550698 L 430.0321426197926,575.156951767776 L 430.3260415937249,574.5609836041907 L 430.69521567627044,574.0084755448264 L 431.1333481965223,573.508881155763 L 431.6329425855856,573.0707486355112 L 432.1854506449499,572.7015745529657 L 432.7814188085353,572.4076755790333 L 433.4106498958291,572.1940804066425 M 429.6889107491709,577.7640566606685 L 434.06237758847215,577.764056660669 L 434.0623775884723,582.1375234999699 L 433.4106498958293,582.0078868017395 L 432.7814188085355,581.794291629348 L 432.18545064495015,581.5003926554157 L 431.6329425855858,581.1312185728701 L 431.13334819652255,580.6930860526185 L 430.69521567627044,580.193491663555 L 430.3260415937251,579.6409836041906 L 430.0321426197926,579.0450154406055 L 429.81854744740144,578.4157843533116 L 429.6889107491709,577.7640566606685 M 436.0402513940709,582.0078868017395 L 435.3885237014281,582.1375234999699 L 435.38852370142786,577.7640566606689 L 439.7619905407289,577.7640566606688 L 439.63235384249833,578.4157843533116 L 439.4187586701072,579.0450154406054 L 439.1248596961749,579.6409836041908 L 438.75568561362934,580.1934916635552 L 438.3175530933778,580.6930860526186 L 437.8179587043144,581.1312185728705 L 437.2654506449502,581.5003926554159 L 436.66948248136487,581.7942916293482 L 436.0402513940709,582.0078868017395 M 439.7619905407289,576.4379105477129 L 435.38852370142786,576.4379105477129 L 435.3885237014277,572.064443708412 L 436.04025139407065,572.1940804066425 L 436.6694824813645,572.4076755790336 L 437.26545064494985,572.701574552966 L 437.8179587043142,573.0707486355114 L 438.3175530933777,573.5088811557632 L 438.75568561362934,574.0084755448266 L 439.1248596961749,574.5609836041907 L 439.4187586701072,575.1569517677761 L 439.63235384249833,575.7861828550699 L 439.7619905407289,576.4379105477129 M 351.1602194775628,573.9259836041913 L 351.98196994576335,574.0341691057239 L 352.74771947756284,574.3513529471753 L 353.4052835078302,574.8559195739236 L 353.9098501345784,575.5134836041906 L 354.2270339760306,576.2792331359909 L 354.3352194775629,577.1009836041909 L 354.2270339760306,577.9227340723909 L 353.9098501345784,578.6884836041912 L 353.4052835078302,579.3460476344582 L 352.74771947756284,579.8506142612064 L 351.98196994576335,580.1677981026584 L 351.1602194775628,580.2759836041911 L 350.3384690093623,580.1677981026594 L 349.5727194775628,579.8506142612068 L 348.9151554472955,579.3460476344575 L 348.4105888205473,578.6884836041912 L 348.09340497909506,577.9227340723913 L 347.98521947756285,577.1009836041909 L 348.09340497909506,576.2792331359905 L 348.4105888205473,575.5134836041906 L 348.9151554472955,574.8559195739243 L 349.5727194775628,574.351352947175 L 350.3384690093623,574.0341691057234 L 351.1602194775628,573.9259836041913 M 372.9506660373776,560.590983604191 L 377.2237684720202,561.1535482121585 L 381.20566603737757,562.8029041877099 L 384.62499899476757,565.4266506468012 L 387.2487454538587,568.8459836041911 L 388.89810142941013,572.8278811695485 L 389.4606660373776,577.1009836041909 L 388.89810142941013,581.3740860388335 L 387.2487454538587,585.3559836041911 L 384.62499899476757,588.7753165615809 L 381.2056660373776,591.3990630206721 L 377.2237684720202,593.0484189962236 L 372.9506660373776,593.610983604191 L 368.677563602735,593.0484189962236 L 364.69566603737763,591.3990630206721 L 361.2763330799877,588.7753165615808 L 358.6525866208965,585.3559836041911 L 357.00323064534507,581.3740860388336 L 356.4406660373776,577.1009836041909 L 357.00323064534507,572.8278811695482 L 358.6525866208965,568.8459836041911 L 361.2763330799877,565.426650646801 L 364.6956660373776,562.8029041877102 L 368.677563602735,561.1535482121585 L 372.9506660373776,560.590983604191 "
  />
  <path id="face1-interior"
 style="fill:none;stroke:#FF0000;stroke-width:1;stroke-miterlimit:4;stroke-dasharray:none;stroke-linejoin:round;stroke-linecap:round"
        d="M 429.6889107491709,576.4379105477129 M 434.06237758847215,576.4379105477134 M 434.0623775884719,572.0644437084119 M 433.4106498958291,572.1940804066425 M 432.7814188085353,572.4076755790333 M 432.1854506449499,572.7015745529657 M 431.6329425855856,573.0707486355112 M 431.1333481965223,573.508881155763 M 430.69521567627044,574.0084755448264 M 430.3260415937249,574.5609836041907 M 430.0321426197926,575.156951767776 M 429.81854744740144,575.7861828550698 "
  />
  <path id="face2-interior"
 style="fill:none;stroke:#FF0000;stroke-width:1;stroke-miterlimit:4;stroke-dasharray:none;stroke-linejoin:round;stroke-linecap:round"
        d="M 351.98196994576335,574.0341691057239 M 351.1602194775628,573.9259836041913 M 350.3384690093623,574.0341691057234 M 349.5727194775628,574.351352947175 M 348.9151554472955,574.8559195739243 M 348.4105888205473,575.5134836041906 M 348.09340497909506,576.2792331359905 M 347.98521947756285,577.1009836041909 M 348.09340497909506,577.9227340723913 M 348.4105888205473,578.6884836041912 M 348.9151554472955,579.3460476344575 M 349.5727194775628,579.8506142612068 M 350.3384690093623,580.1677981026594 M 351.1602194775628,580.2759836041911 M 351.98196994576335,580.1677981026584 M 352.74771947756284,579.8506142612064 M 353.4052835078302,579.3460476344582 M 353.9098501345784,578.6884836041912 M 354.2270339760306,577.9227340723909 M 354.3352194775629,577.1009836041909 M 354.2270339760306,576.2792331359909 M 353.9098501345784,575.5134836041906 M 353.4052835078302,574.8559195739236 M 352.74771947756284,574.3513529471753 "
  />
  <path id="face3-interior"
 style="fill:none;stroke:#FF0000;stroke-width:1;stroke-miterlimit:4;stroke-dasharray:none;stroke-linejoin:round;stroke-linecap:round"
        d="M 434.06237758847215,577.764056660669 M 429.6889107491709,577.7640566606685 M 429.81854744740144,578.4157843533116 M 430.0321426197926,579.0450154406055 M 430.3260415937251,579.6409836041906 M 430.69521567627044,580.193491663555 M 431.13334819652255,580.6930860526185 M 431.6329425855858,581.1312185728701 M 432.18545064495015,581.5003926554157 M 432.7814188085355,581.794291629348 M 433.4106498958293,582.0078868017395 M 434.0623775884723,582.1375234999699 "
  />
  <path id="face4-interior"
 style="fill:none;stroke:#FF0000;stroke-width:1;stroke-miterlimit:4;stroke-dasharray:none;stroke-linejoin:round;stroke-linecap:round"
        d="M 10.000000000000085,10.0 M 10.0,619.6000000000005 M 467.2,619.6 M 467.20000000000005,10.0000000000001 M 364.87545064494975,535.8259836041908 M 466.47545064495,577.1009836041909 M 364.87545064494986,618.3759836041908 M 364.8754506449501,612.0259836041909 M 360.04945064495007,612.0259836041909 M 360.04945064494984,618.3759836041908 M 354.7154506449499,618.375983604191 M 354.7154506449501,612.025983604191 M 349.6354506449501,612.025983604191 M 349.63545064494986,618.375983604191 M 339.47545064494983,618.3759836041908 M 339.4754506449501,611.8989836041908 M 345.8254506449501,611.8989836041908 M 345.82545064494985,605.6759836041907 M 339.4754506449501,605.6759836041908 M 339.4754506449499,599.1989836041909 M 345.82545064494985,599.1989836041907 M 345.8254506449498,592.9759836041908 M 339.47545064494983,592.975983604191 M 339.47545064495006,586.4989836041907 M 345.82545064495,586.4989836041906 M 345.82545064495,580.2759836041907 M 339.47545064495006,580.2759836041901 M 339.47545064494983,573.7989836041907 M 345.8254506449498,573.7989836041913 M 345.8254506449498,567.5759836041909 M 339.47545064494983,567.5759836041907 M 339.47545064494983,561.0989836041908 M 345.8254506449498,561.0989836041907 M 345.82545064495,554.8759836041908 M 339.47545064495006,554.8759836041908 M 339.47545064495,548.3989836041908 M 345.82545064494997,548.3989836041908 M 345.82545064494974,542.1759836041907 M 339.4754506449498,542.1759836041907 M 339.4754506449498,535.8259836041908 M 349.6354506449498,535.825983604191 M 349.6354506449498,542.175983604191 M 354.7154506449498,542.1759836041908 M 354.7154506449498,535.8259836041909 M 360.04945064494984,535.8259836041907 M 360.0494506449498,542.1759836041907 M 364.87545064494975,542.1759836041908 "
  />
  <path id="face5-interior"
 style="fill:none;stroke:#FF0000;stroke-width:1;stroke-miterlimit:4;stroke-dasharray:none;stroke-linejoin:round;stroke-linecap:round"
        d="M 377.2237684720202,561.1535482121585 M 372.9506660373776,560.590983604191 M 368.677563602735,561.1535482121585 M 364.6956660373776,562.8029041877102 M 361.2763330799877,565.426650646801 M 358.6525866208965,568.8459836041911 M 357.00323064534507,572.8278811695482 M 356.4406660373776,577.1009836041909 M 357.00323064534507,581.3740860388336 M 358.6525866208965,585.3559836041911 M 361.2763330799877,588.7753165615808 M 364.69566603737763,591.3990630206721 M 368.677563602735,593.0484189962236 M 372.9506660373776,593.610983604191 M 377.2237684720202,593.0484189962236 M 381.2056660373776,591.3990630206721 M 384.62499899476757,588.7753165615809 M 387.2487454538587,585.3559836041911 M 388.89810142941013,581.3740860388335 M 389.4606660373776,577.1009836041909 M 388.89810142941013,572.8278811695485 M 387.2487454538587,568.8459836041911 M 384.62499899476757,565.4266506468012 M 381.20566603737757,562.8029041877099 "
  />
  <path id="face6-interior"
 style="fill:none;stroke:#FF0000;stroke-width:1;stroke-miterlimit:4;stroke-dasharray:none;stroke-linejoin:round;stroke-linecap:round"
        d="M 439.7619905407289,577.7640566606688 M 435.38852370142786,577.7640566606689 M 435.3885237014281,582.1375234999699 M 436.0402513940709,582.0078868017395 M 436.66948248136487,581.7942916293482 M 437.2654506449502,581.5003926554159 M 437.8179587043144,581.1312185728705 M 438.3175530933778,580.6930860526186 M 438.75568561362934,580.1934916635552 M 439.1248596961749,579.6409836041908 M 439.4187586701072,579.0450154406054 M 439.63235384249833,578.4157843533116 "
  />
  <path id="face7-interior"
 style="fill:none;stroke:#FF0000;stroke-width:1;stroke-miterlimit:4;stroke-dasharray:none;stroke-linejoin:round;stroke-linecap:round"
        d="M 435.38852370142786,576.4379105477129 M 439.7619905407289,576.4379105477129 M 439.63235384249833,575.7861828550699 M 439.4187586701072,575.1569517677761 M 439.1248596961749,574.5609836041907 M 438.75568561362934,574.0084755448266 M 438.3175530933777,573.5088811557632 M 437.8179587043142,573.0707486355114 M 437.26545064494985,572.701574552966 M 436.6694824813645,572.4076755790336 M 436.04025139407065,572.1940804066425 M 435.3885237014277,572.064443708412 "
  />
  <path id="face0-interior"
 style="fill:none;stroke:#00FF00;stroke-width:1;stroke-miterlimit:4;stroke-dasharray:none;stroke-linejoin:round;stroke-linecap:round"
        d="M 466.47545064495,577.1009836041909 M 364.87545064494975,535.8259836041908 M 364.87545064494975,542.1759836041908 M 360.0494506449498,542.1759836041907 M 360.04945064494984,535.8259836041907 M 354.7154506449498,535.8259836041909 M 354.7154506449498,542.1759836041908 M 349.6354506449498,542.175983604191 M 349.6354506449498,535.825983604191 M 339.4754506449498,535.8259836041908 M 339.4754506449498,542.1759836041907 M 345.82545064494974,542.1759836041907 M 345.82545064494997,548.3989836041908 M 339.47545064495,548.3989836041908 M 339.47545064495006,554.8759836041908 M 345.82545064495,554.8759836041908 M 345.8254506449498,561.0989836041907 M 339.47545064494983,561.0989836041908 M 339.47545064494983,567.5759836041907 M 345.8254506449498,567.5759836041909 M 345.8254506449498,573.7989836041913 M 339.47545064494983,573.7989836041907 M 339.47545064495006,580.2759836041901 M 345.82545064495,580.2759836041907 M 345.82545064495,586.4989836041906 M 339.47545064495006,586.4989836041907 M 339.47545064494983,592.975983604191 M 345.8254506449498,592.9759836041908 M 345.82545064494985,599.1989836041907 M 339.4754506449499,599.1989836041909 M 339.4754506449501,605.6759836041908 M 345.82545064494985,605.6759836041907 M 345.8254506449501,611.8989836041908 M 339.4754506449501,611.8989836041908 M 339.47545064494983,618.3759836041908 M 349.63545064494986,618.375983604191 M 349.6354506449501,612.025983604191 M 354.7154506449501,612.025983604191 M 354.7154506449499,618.375983604191 M 360.04945064494984,618.3759836041908 M 360.04945064495007,612.0259836041909 M 364.8754506449501,612.0259836041909 M 364.87545064494986,618.3759836041908 M 433.4106498958291,572.1940804066425 M 434.0623775884719,572.0644437084119 M 434.06237758847215,576.4379105477134 M 429.6889107491709,576.4379105477129 M 429.81854744740144,575.7861828550698 M 430.0321426197926,575.156951767776 M 430.3260415937249,574.5609836041907 M 430.69521567627044,574.0084755448264 M 431.1333481965223,573.508881155763 M 431.6329425855856,573.0707486355112 M 432.1854506449499,572.7015745529657 M 432.7814188085353,572.4076755790333 M 429.6889107491709,577.7640566606685 M 434.06237758847215,577.764056660669 M 434.0623775884723,582.1375234999699 M 433.4106498958293,582.0078868017395 M 432.7814188085355,581.794291629348 M 432.18545064495015,581.5003926554157 M 431.6329425855858,581.1312185728701 M 431.13334819652255,580.6930860526185 M 430.69521567627044,580.193491663555 M 430.3260415937251,579.6409836041906 M 430.0321426197926,579.0450154406055 M 429.81854744740144,578.4157843533116 M 436.0402513940709,582.0078868017395 M 435.3885237014281,582.1375234999699 M 435.38852370142786,577.7640566606689 M 439.7619905407289,577.7640566606688 M 439.63235384249833,578.4157843533116 M 439.4187586701072,579.0450154406054 M 439.1248596961749,579.6409836041908 M 438.75568561362934,580.1934916635552 M 438.3175530933778,580.6930860526186 M 437.8179587043144,581.1312185728705 M 437.2654506449502,581.5003926554159 M 436.66948248136487,581.7942916293482 M 439.7619905407289,576.4379105477129 M 435.38852370142786,576.4379105477129 M 435.3885237014277,572.064443708412 M 436.04025139407065,572.1940804066425 M 436.6694824813645,572.4076755790336 M 437.26545064494985,572.701574552966 M 437.8179587043142,573.0707486355114 M 438.3175530933777,573.5088811557632 M 438.75568561362934,574.0084755448266 M 439.1248596961749,574.5609836041907 M 439.4187586701072,575.1569517677761 M 439.63235384249833,575.7861828550699 M 351.1602194775628,573.9259836041913 M 351.98196994576335,574.0341691057239 M 352.74771947756284,574.3513529471753 M 353.4052835078302,574.8559195739236 M 353.9098501345784,575.5134836041906 M 354.2270339760306,576.2792331359909 M 354.3352194775629,577.1009836041909 M 354.2270339760306,577.9227340723909 M 353.9098501345784,578.6884836041912 M 353.4052835078302,579.3460476344582 M 352.74771947756284,579.8506142612064 M 351.98196994576335,580.1677981026584 M 351.1602194775628,580.2759836041911 M 350.3384690093623,580.1677981026594 M 349.5727194775628,579.8506142612068 M 348.9151554472955,579.3460476344575 M 348.4105888205473,578.6884836041912 M 348.09340497909506,577.9227340723913 M 347.98521947756285,577.1009836041909 M 348.09340497909506,576.2792331359905 M 348.4105888205473,575.5134836041906 M 348.9151554472955,574.8559195739243 M 349.5727194775628,574.351352947175 M 350.3384690093623,574.0341691057234 M 372.9506660373776,560.590983604191 M 377.2237684720202,561.1535482121585 M 381.20566603737757,562.8029041877099 M 384.62499899476757,565.4266506468012 M 387.2487454538587,568.8459836041911 M 388.89810142941013,572.8278811695485 M 389.4606660373776,577.1009836041909 M 388.89810142941013,581.3740860388335 M 387.2487454538587,585.3559836041911 M 384.62499899476757,588.7753165615809 M 381.2056660373776,591.3990630206721 M 377.2237684720202,593.0484189962236 M 372.9506660373776,593.610983604191 M 368.677563602735,593.0484189962236 M 364.69566603737763,591.3990630206721 M 361.2763330799877,588.7753165615808 M 358.6525866208965,585.3559836041911 M 357.00323064534507,581.3740860388336 M 356.4406660373776,577.1009836041909 M 357.00323064534507,572.8278811695482 M 358.6525866208965,568.8459836041911 M 361.2763330799877,565.426650646801 M 364.6956660373776,562.8029041877102 M 368.677563602735,561.1535482121585 "
  />
  <path id="face1-interior"
 style="fill:none;stroke:#00FF00;stroke-width:1;stroke-miterlimit:4;stroke-dasharray:none;stroke-linejoin:round;stroke-linecap:round"
        d="M 429.6889107491709,576.4379105477129 M 434.06237758847215,576.4379105477134 M 434.0623775884719,572.0644437084119 M 433.4106498958291,572.1940804066425 M 432.7814188085353,572.4076755790333 M 432.1854506449499,572.7015745529657 M 431.6329425855856,573.0707486355112 M 431.1333481965223,573.508881155763 M 430.69521567627044,574.0084755448264 M 430.3260415937249,574.5609836041907 M 430.0321426197926,575.156951767776 M 429.81854744740144,575.7861828550698 "
  />
  <path id="face2-interior"
 style="fill:none;stroke:#00FF00;stroke-width:1;stroke-miterlimit:4;stroke-dasharray:none;stroke-linejoin:round;stroke-linecap:round"
        d="M 351.98196994576335,574.0341691057239 M 351.1602194775628,573.9259836041913 M 350.3384690093623,574.0341691057234 M 349.5727194775628,574.351352947175 M 348.9151554472955,574.8559195739243 M 348.4105888205473,575.5134836041906 M 348.09340497909506,576.2792331359905 M 347.98521947756285,577.1009836041909 M 348.09340497909506,577.9227340723913 M 348.4105888205473,578.6884836041912 M 348.9151554472955,579.3460476344575 M 349.5727194775628,579.8506142612068 M 350.3384690093623,580.1677981026594 M 351.1602194775628,580.2759836041911 M 351.98196994576335,580.1677981026584 M 352.74771947756284,579.8506142612064 M 353.4052835078302,579.3460476344582 M 353.9098501345784,578.6884836041912 M 354.2270339760306,577.9227340723909 M 354.3352194775629,577.1009836041909 M 354.2270339760306,576.2792331359909 M 353.9098501345784,575.5134836041906 M 353.4052835078302,574.8559195739236 M 352.74771947756284,574.3513529471753 "
  />
  <path id="face3-interior"
 style="fill:none;stroke:#00FF00;stroke-width:1;stroke-miterlimit:4;stroke-dasharray:none;stroke-linejoin:round;stroke-linecap:round"
        d="M 434.06237758847215,577.764056660669 M 429.6889107491709,577.7640566606685 M 429.81854744740144,578.4157843533116 M 430.0321426197926,579.0450154406055 M 430.3260415937251,579.6409836041906 M 430.69521567627044,580.193491663555 M 431.13334819652255,580.6930860526185 M 431.6329425855858,581.1312185728701 M 432.18545064495015,581.5003926554157 M 432.7814188085355,581.794291629348 M 433.4106498958293,582.0078868017395 M 434.0623775884723,582.1375234999699 "
  />
  <path id="face4-interior"
 style="fill:none;stroke:#00FF00;stroke-width:1;stroke-miterlimit:4;stroke-dasharray:none;stroke-linejoin:round;stroke-linecap:round"
        d="M 10.000000000000085,10.0 M 10.0,619.6000000000005 M 467.2,619.6 M 467.20000000000005,10.0000000000001 M 364.87545064494975,535.8259836041908 M 466.47545064495,577.1009836041909 M 364.87545064494986,618.3759836041908 M 364.8754506449501,612.0259836041909 M 360.04945064495007,612.0259836041909 M 360.04945064494984,618.3759836041908 M 354.7154506449499,618.375983604191 M 354.7154506449501,612.025983604191 M 349.6354506449501,612.025983604191 M 349.63545064494986,618.375983604191 M 339.47545064494983,618.3759836041908 M 339.4754506449501,611.8989836041908 M 345.8254506449501,611.8989836041908 M 345.82545064494985,605.6759836041907 M 339.4754506449501,605.6759836041908 M 339.4754506449499,599.1989836041909 M 345.82545064494985,599.1989836041907 M 345.8254506449498,592.9759836041908 M 339.47545064494983,592.975983604191 M 339.47545064495006,586.4989836041907 M 345.82545064495,586.4989836041906 M 345.82545064495,580.2759836041907 M 339.47545064495006,580.2759836041901 M 339.47545064494983,573.7989836041907 M 345.8254506449498,573.7989836041913 M 345.8254506449498,567.5759836041909 M 339.47545064494983,567.5759836041907 M 339.47545064494983,561.0989836041908 M 345.8254506449498,561.0989836041907 M 345.82545064495,554.8759836041908 M 339.47545064495006,554.8759836041908 M 339.47545064495,548.3989836041908 M 345.82545064494997,548.3989836041908 M 345.82545064494974,542.1759836041907 M 339.4754506449498,542.1759836041907 M 339.4754506449498,535.8259836041908 M 349.6354506449498,535.825983604191 M 349.6354506449498,542.175983604191 M 354.7154506449498,542.1759836041908 M 354.7154506449498,535.8259836041909 M 360.04945064494984,535.8259836041907 M 360.0494506449498,542.1759836041907 M 364.87545064494975,542.1759836041908 "
  />
  <path id="face5-interior"
 style="fill:none;stroke:#00FF00;stroke-width:1;stroke-miterlimit:4;stroke-dasharray:none;stroke-linejoin:round;stroke-linecap:round"
        d="M 377.2237684720202,561.1535482121585 M 372.9506660373776,560.590983604191 M 368.677563602735,561.1535482121585 M 364.6956660373776,562.8029041877102 M 361.2763330799877,565.426650646801 M 358.6525866208965,568.8459836041911 M 357.00323064534507,572.8278811695482 M 356.4406660373776,577.1009836041909 M 357.00323064534507,581.3740860388336 M 358.6525866208965,585.3559836041911 M 361.2763330799877,588.7753165615808 M 364.69566603737763,591.3990630206721 M 368.677563602735,593.0484189962236 M 372.9506660373776,593.610983604191 M 377.2237684720202,593.0484189962236 M 381.2056660373776,591.3990630206721 M 384.62499899476757,588.7753165615809 M 387.2487454538587,585.3559836041911 M 388.89810142941013,581.3740860388335 M 389.4606660373776,577.1009836041909 M 388.89810142941013,572.8278811695485 M 387.2487454538587,568.8459836041911 M 384.62499899476757,565.4266506468012 M 381.20566603737757,562.8029041877099 "
  />
  <path id="face6-interior"
 style="fill:none;stroke:#00FF00;stroke-width:1;stroke-miterlimit:4;stroke-dasharray:none;stroke-linejoin:round;stroke-linecap:round"
        d="M 439.7619905407289,577.7640566606688 M 435.38852370142786,577.7640566606689 M 435.3885237014281,582.1375234999699 M 436.0402513940709,582.0078868017395 M 436.66948248136487,581.7942916293482 M 437.2654506449502,581.5003926554159 M 437.8179587043144,581.1312185728705 M 438.3175530933778,580.6930860526186 M 438.75568561362934,580.1934916635552 M 439.1248596961749,579.6409836041908 M 439.4187586701072,579.0450154406054 M 439.63235384249833,578.4157843533116 "
  />
  <path id="face7-interior"
 style="fill:none;stroke:#00FF00;stroke-width:1;stroke-miterlimit:4;stroke-dasharray:none;stroke-linejoin:round;stroke-linecap:round"
        d="M 435.38852370142786,576.4379105477129 M 439.7619905407289,576.4379105477129 M 439.63235384249833,575.7861828550699 M 439.4187586701072,575.1569517677761 M 439.1248596961749,574.5609836041907 M 438.75568561362934,574.0084755448266 M 438.3175530933777,573.5088811557632 M 437.8179587043142,573.0707486355114 M 437.26545064494985,572.701574552966 M 436.6694824813645,572.4076755790336 M 436.04025139407065,572.1940804066425 M 435.3885237014277,572.064443708412 "
  />
</svg>
