<?xml version="1.0" encoding="utf-8"?>
<!-- Generator: Adobe Illustrator 16.0.0, SVG Export Plug-In . SVG Version: 6.00 Build 0)  -->
<!DOCTYPE svg PUBLIC "-//W3C//DTD SVG 1.1//EN" "http://www.w3.org/Graphics/SVG/1.1/DTD/svg11.dtd">
<svg version="1.1" id="Layer_1" xmlns="http://www.w3.org/2000/svg" xmlns:xlink="http://www.w3.org/1999/xlink" x="0px" y="0px"
	 width="1296px" height="1728px" viewBox="28.347 28.347 1296 1728" enable-background="new 28.347 28.347 1296 1728"
	 xml:space="preserve">
<desc>Output from Flights of Ideas SVG Sketchup Plugin</desc>
<path id="face0-cut" fill="none" stroke="#000000" stroke-width="0.001" stroke-linecap="round" stroke-linejoin="round" d="
	M919.798,550.714"/>
<path id="face1-cut" fill="none" stroke="#000000" stroke-width="0.001" stroke-linecap="round" stroke-linejoin="round" d="
	M1134.136,595.17"/>
<path id="face2-cut" fill="none" stroke="#000000" stroke-width="0.001" stroke-linecap="round" stroke-linejoin="round" d="
	M1036.127,449.508"/>
<path id="face3-cut" fill="none" stroke="#000000" stroke-width="0.001" stroke-linecap="round" stroke-linejoin="round" d="
	M1025.576,433.719"/>
<path id="face4-cut" fill="none" stroke="#000000" stroke-width="0.001" stroke-linecap="round" stroke-linejoin="round" d="
	M1016.339,434.324"/>
<path id="face5-cut" fill="none" stroke="#000000" stroke-width="0.001" stroke-linecap="round" stroke-linejoin="round" d="
	M1291.85,264.028"/>
<path id="face6-cut" fill="none" stroke="#000000" stroke-width="0.001" stroke-linecap="round" stroke-linejoin="round" d="
	M1300.896,720.3"/>
<path id="face7-cut" fill="none" stroke="#000000" stroke-width="0.001" stroke-linecap="round" stroke-linejoin="round" d="
	M792.554,787.002"/>
<path id="face8-cut" fill="none" stroke="#000000" stroke-width="0.001" stroke-linecap="round" stroke-linejoin="round" d="
	M1151.771,577.534"/>
<path id="face9-cut" fill="none" stroke="#000000" stroke-width="0.001" stroke-linecap="round" stroke-linejoin="round" d="
	M1007.573,445.748"/>
<path id="face10-cut" fill="none" stroke="#000000" stroke-width="0.001" stroke-linecap="round" stroke-linejoin="round" d="
	M1016.339,460.932"/>
<path id="face12-cut" fill="none" stroke="#000000" stroke-width="0.001" stroke-linecap="round" stroke-linejoin="round" d="
	M792.833,1159.572"/>
<path id="face13-cut" fill="none" stroke="#000000" stroke-width="0.001" stroke-linecap="round" stroke-linejoin="round" d="
	M904.73,1717.021"/>
<path id="face14-cut" fill="none" stroke="#000000" stroke-width="0.001" stroke-linecap="round" stroke-linejoin="round" d="
	M1152.139,583.141"/>
<path id="face15-cut" fill="none" stroke="#000000" stroke-width="0.001" stroke-linecap="round" stroke-linejoin="round" d="
	M897.903,584.442"/>
<path id="face16-cut" fill="none" stroke="#000000" stroke-width="0.001" stroke-linecap="round" stroke-linejoin="round" d="
	M1141.59,567.352"/>
<path id="face17-cut" fill="none" stroke="#000000" stroke-width="0.001" stroke-linecap="round" stroke-linejoin="round" d="
	M1123.586,579.381"/>
<path id="face18-cut" fill="none" stroke="#000000" stroke-width="0.001" stroke-linecap="round" stroke-linejoin="round" d="
	M887.45,1733.637"/>
<path id="face0-interior" fill="none" stroke="#000000" stroke-width="0.001" stroke-linecap="round" stroke-linejoin="round" d="
	M912.933,559.661l-4.315,10.419l-1.473,11.181l1.473,11.181l4.315,10.42l6.865,8.946l8.946,6.865l10.42,4.316l11.181,1.472
	l11.181-1.472l10.419-4.316l8.947-6.865l6.865-8.946l4.315-10.42l1.473-11.181l-1.473-11.181l-4.315-10.419l-6.865-8.947
	l-8.947-6.865l-10.419-4.315l-11.181-1.473l-11.181,1.473l-10.42,4.315l-8.946,6.865L912.933,559.661"/>
<path id="face1-interior" fill="none" stroke="#000000" stroke-width="0.001" stroke-linecap="round" stroke-linejoin="round" d="
	M1135.982,595.538v-12.397h-12.396l0.367,1.848l0.605,1.783l0.833,1.689l1.047,1.566l1.241,1.416l1.417,1.242l1.565,1.046
	l1.689,0.833l1.784,0.605L1135.982,595.538"/>
<path id="face2-interior" fill="none" stroke="#000000" stroke-width="0.001" stroke-linecap="round" stroke-linejoin="round" d="
	M1023.729,449.508v12.396l1.847-0.367l1.784-0.605l1.689-0.833l1.566-1.046l1.416-1.242l1.241-1.416l1.047-1.566l0.833-1.689
	l0.605-1.783l0.368-1.848H1023.729"/>
<path id="face3-interior" fill="none" stroke="#000000" stroke-width="0.001" stroke-linecap="round" stroke-linejoin="round" d="
	M1023.729,433.352v12.396h12.397l-0.368-1.847l-0.605-1.784l-0.833-1.689l-1.047-1.566l-1.241-1.416l-1.416-1.241l-1.566-1.047
	l-1.689-0.833l-1.784-0.605L1023.729,433.352"/>
<path id="face4-interior" fill="none" stroke="#000000" stroke-width="0.001" stroke-linecap="round" stroke-linejoin="round" d="
	M931.85,447.628l288,117v-18h13.68v18h15.12v-18h14.4v18h28.8v-18h-18v-17.64h18v-18.36h-18v-17.64h18v-18.36h-18v-17.64h18v-18.36
	h-18v-17.64h18v-18.36h-18v-17.64h18v-18.36h-18v-17.64h18v-18.36h-28.8v18h-14.4v-18h-15.12v18h-13.68v-18L931.85,447.628
	 M1007.573,449.508h12.397v12.396l-1.848-0.367l-1.784-0.605l-1.689-0.833l-1.565-1.046l-1.416-1.242l-1.242-1.416l-1.047-1.566
	l-0.833-1.689l-0.605-1.783L1007.573,449.508 M1018.123,433.719l1.848-0.367v12.396h-12.397l0.367-1.847l0.605-1.784l0.833-1.689
	l1.047-1.566l1.242-1.416l1.416-1.241l1.565-1.047l1.689-0.833L1018.123,433.719"/>
<path id="face5-interior" fill="none" stroke="#000000" stroke-width="0.001" stroke-linecap="round" stroke-linejoin="round" d="
	M1309.85,264.028v-14.4h-450v14.4h18v14.4h-18v14.4h18v28.8h18v-18h17.28v18h18.72v-18h18v18h18v-18h17.28v18h18.72v-18h18v18h18
	v-18h17.28v18h18.72v-18h18v18h18v-18h17.28v18h18.72v-18h18v18h18v-18h17.28v18h18.72v-18h18v18h18v-18h17.28v18h18.72v-28.8h18
	v-14.4h-18v-14.4H1309.85"/>
<path id="face6-interior" fill="none" stroke="#000000" stroke-width="0.001" stroke-linecap="round" stroke-linejoin="round" d="
	M1318.896,720.3v-14.4h-450v14.4h18v14.399h-18v14.4h18v28.8h18v-18h17.279v18h18.721v-18h18v18h18v-18h17.279v18h18.721v-18h18v18
	h18v-18h17.279v18h18.721v-18h18v18h18v-18h17.279v18h18.721v-18h18v18h18v-18h17.279v18h18.721v-18h18v18h18v-18h17.279v18h18.721
	v-28.8h18v-14.4h-18V720.3H1318.896"/>
<path id="face7-interior" fill="none" stroke="#000000" stroke-width="0.001" stroke-linecap="round" stroke-linejoin="round" d="
	M792.554,1150.53h522.793V781.597H792.554V1150.53"/>
<path id="face8-interior" fill="none" stroke="#000000" stroke-width="0.001" stroke-linecap="round" stroke-linejoin="round" d="
	M1227.862,581.261l-288-117v18h-13.68v-18h-15.12v18h-14.4v-18h-28.8v18h18v17.64h-18v18.36h18v17.64h-18v18.36h18v17.64h-18v18.36
	h18v17.64h-18v18.36h18v17.64h-18v18.36h18v17.64h-18v18.36h28.8v-18h14.4v18h15.12v-18h13.68v18L1227.862,581.261 M891.539,578.079
	l0.932-0.716l1.086-0.449l1.164-0.153l1.165,0.153l1.085,0.449l0.933,0.716l0.715,0.932l0.449,1.085l0.153,1.165l-0.153,1.165
	l-0.449,1.085l-0.715,0.932l-0.933,0.716l-1.085,0.449l-1.165,0.153l-1.164-0.153l-1.086-0.449l-0.932-0.716l-0.715-0.932
	l-0.45-1.085l-0.153-1.165l0.153-1.165l0.45-1.085L891.539,578.079 M1134.136,567.352l1.847-0.367v12.396h-12.396l0.367-1.847
	l0.605-1.784l0.833-1.689l1.047-1.565l1.241-1.417l1.417-1.241l1.565-1.047l1.689-0.833L1134.136,567.352 M1141.59,595.17
	l-1.848,0.368v-12.397h12.396l-0.367,1.848l-0.605,1.783l-0.833,1.689l-1.046,1.566l-1.242,1.416l-1.416,1.242l-1.566,1.046
	l-1.689,0.833L1141.59,595.17 M1152.139,579.381h-12.396v-12.396l1.848,0.367l1.783,0.605l1.689,0.833l1.566,1.047l1.416,1.241
	l1.242,1.417l1.046,1.565l0.833,1.689l0.605,1.784L1152.139,579.381"/>
<path id="face9-interior" fill="none" stroke="#000000" stroke-width="0.001" stroke-linecap="round" stroke-linejoin="round" d="
	M1007.573,445.748"/>
<path id="face10-interior" fill="none" stroke="#000000" stroke-width="0.001" stroke-linecap="round" stroke-linejoin="round" d="
	M1016.339,460.932"/>
<path id="face11-interior" fill="none" stroke="#000000" stroke-width="0.001" stroke-linecap="round" stroke-linejoin="round" d="
	M887.45,1733.637v-16.615h17.28v-16.283h-17.28v-16.947h17.28v-16.283h-17.28v-16.948h17.28v-16.283h-17.28v-16.947h17.28v-16.283
	h-17.28v-16.947h17.28v-16.283h-17.28v-16.948h34.56v-16.615h17.28v16.615h17.28v-16.615h17.279v16.615h17.28v-16.615h17.28v16.615
	h17.28v-16.615h17.279v16.615h17.28v-16.615h17.28v16.615h17.28v-16.615h17.279v16.615h17.28v-16.615h17.28v16.615h17.279v-16.615
	h17.28v16.615h17.28v-16.615h17.28v16.615h17.279v-16.615h17.28v16.615h17.28v-16.615h17.28v16.615h34.56v16.615h-17.28v16.283
	h17.28v16.948h-17.28v16.283h17.28v16.947h-17.28v16.283h17.28v16.947h-17.28v16.283h17.28v16.948h-17.28v16.283h17.28v16.947
	h-34.56v16.615h-17.28v-16.615h-17.28v16.615h-17.28v-16.615h-17.279v16.615h-17.28v-16.615h-17.28v16.615h-17.28v-16.615h-17.279
	v16.615h-17.28v-16.615h-17.28v16.615h-17.279v-16.615h-17.28v16.615h-17.28v-16.615h-17.28v16.615h-17.279v-16.615h-17.28v16.615
	h-17.28v-16.615h-17.28v16.615H956.57v-16.615h-17.28v16.615h-17.28v-16.615H887.45"/>
<path id="face12-interior" fill="none" stroke="#000000" stroke-width="0.001" stroke-linecap="round" stroke-linejoin="round" d="
	M792.833,1159.572"/>
<path id="face13-interior" fill="none" stroke="#000000" stroke-width="0.001" stroke-linecap="round" stroke-linejoin="round" d="
	M904.73,1717.021"/>
<path id="face14-interior" fill="none" stroke="#000000" stroke-width="0.001" stroke-linecap="round" stroke-linejoin="round" d="
	M1152.139,583.141"/>
<path id="face15-interior" fill="none" stroke="#000000" stroke-width="0.001" stroke-linecap="round" stroke-linejoin="round" d="
	M897.903,584.442"/>
<path id="face16-interior" fill="none" stroke="#000000" stroke-width="0.001" stroke-linecap="round" stroke-linejoin="round" d="
	M1141.59,567.352"/>
<path id="face17-interior" fill="none" stroke="#000000" stroke-width="0.001" stroke-linecap="round" stroke-linejoin="round" d="
	M1123.586,579.381"/>
<path id="face18-interior" fill="none" stroke="#000000" stroke-width="0.001" stroke-linecap="round" stroke-linejoin="round" d="
	M887.45,1733.637"/>
<path id="face0-interior_1_" fill="none" stroke="#000000" stroke-width="0.001" stroke-linecap="round" stroke-linejoin="round" d="
	M919.798,550.714"/>
<path id="face1-interior_1_" fill="none" stroke="#000000" stroke-width="0.001" stroke-linecap="round" stroke-linejoin="round" d="
	M1134.136,595.17"/>
<path id="face2-interior_1_" fill="none" stroke="#000000" stroke-width="0.001" stroke-linecap="round" stroke-linejoin="round" d="
	M1036.127,449.508"/>
<path id="face3-interior_1_" fill="none" stroke="#000000" stroke-width="0.001" stroke-linecap="round" stroke-linejoin="round" d="
	M1025.576,433.719"/>
<path id="face4-interior_1_" fill="none" stroke="#000000" stroke-width="0.001" stroke-linecap="round" stroke-linejoin="round" d="
	M1016.339,434.324"/>
<path id="face5-interior_1_" fill="none" stroke="#000000" stroke-width="0.001" stroke-linecap="round" stroke-linejoin="round" d="
	M1291.85,264.028"/>
<path id="face6-interior_1_" fill="none" stroke="#000000" stroke-width="0.001" stroke-linecap="round" stroke-linejoin="round" d="
	M1300.896,720.3"/>
<path id="face7-interior_1_" fill="none" stroke="#000000" stroke-width="0.001" stroke-linecap="round" stroke-linejoin="round" d="
	M792.554,787.002"/>
<path id="face8-interior_1_" fill="none" stroke="#000000" stroke-width="0.001" stroke-linecap="round" stroke-linejoin="round" d="
	M1151.771,577.534"/>
<path id="face9-interior_1_" fill="none" stroke="#000000" stroke-width="0.001" stroke-linecap="round" stroke-linejoin="round" d="
	M1007.573,445.748"/>
<path id="face10-interior_1_" fill="none" stroke="#000000" stroke-width="0.001" stroke-linecap="round" stroke-linejoin="round" d="
	M1016.339,460.932"/>
<path id="face11-interior_1_" fill="none" stroke="#000000" stroke-width="0.001" stroke-linecap="round" stroke-linejoin="round" d="
	M939.862,482.261"/>
<path id="face12-interior_1_" fill="none" stroke="#000000" stroke-width="0.001" stroke-linecap="round" stroke-linejoin="round" d="
	M792.833,1159.572"/>
<path id="face13-interior_1_" fill="none" stroke="#000000" stroke-width="0.001" stroke-linecap="round" stroke-linejoin="round" d="
	M904.73,1717.021"/>
<path id="face14-interior_1_" fill="none" stroke="#000000" stroke-width="0.001" stroke-linecap="round" stroke-linejoin="round" d="
	M1152.139,583.141"/>
<path id="face15-interior_1_" fill="none" stroke="#000000" stroke-width="0.001" stroke-linecap="round" stroke-linejoin="round" d="
	M897.903,584.442"/>
<path id="face16-interior_1_" fill="none" stroke="#000000" stroke-width="0.001" stroke-linecap="round" stroke-linejoin="round" d="
	M1141.59,567.352"/>
<path id="face17-interior_1_" fill="none" stroke="#000000" stroke-width="0.001" stroke-linecap="round" stroke-linejoin="round" d="
	M1123.586,579.381"/>
<path id="face18-interior_1_" fill="none" stroke="#000000" stroke-width="0.001" stroke-linecap="round" stroke-linejoin="round" d="
	M887.45,1733.969v-0.332V1733.969"/>
<image overflow="visible" width="512" height="512" xlink:href="../../../Downloads/home left copy.png"  transform="matrix(0.2109 0 0 0.2109 792.833 1055.5303)">
</image>
<image overflow="visible" width="512" height="512" xlink:href="../../../Downloads/home left copy.png"  transform="matrix(0.2109 0 0 0.2109 792.833 1019.5303)">
</image>
<image overflow="visible" width="512" height="512" xlink:href="../../../Downloads/home left copy.png"  transform="matrix(0.2109 0 0 0.2109 792.833 983.5303)">
</image>
<image overflow="visible" width="512" height="512" xlink:href="../../../Downloads/home left copy.png"  transform="matrix(0.2109 0 0 0.2109 792.833 766.5303)">
</image>
<image overflow="visible" width="512" height="512" xlink:href="../../../Downloads/home left copy.png"  transform="matrix(0.2109 0 0 0.2109 792.833 947.5303)">
</image>
<image overflow="visible" width="512" height="512" xlink:href="../../../Downloads/home left copy.png"  transform="matrix(0.2109 0 0 0.2109 792.833 911.5303)">
</image>
<image overflow="visible" width="512" height="512" xlink:href="../../../Downloads/home left copy.png"  transform="matrix(0.2109 0 0 0.2109 792.833 875.002)">
</image>
<image overflow="visible" width="512" height="512" xlink:href="../../../Downloads/home left copy.png"  transform="matrix(0.2109 0 0 0.2109 792.833 839.002)">
</image>
<image overflow="visible" width="512" height="512" xlink:href="../../../Downloads/home left copy.png"  transform="matrix(0.2109 0 0 0.2109 792.833 803.002)">
</image>
<image overflow="visible" width="512" height="512" xlink:href="../../../Downloads/home left.png"  transform="matrix(0.2109 0 0 0.2109 792.833 766.1641)">
</image>
<image overflow="visible" width="512" height="512" xlink:href="../../../Downloads/home middle top.png"  transform="matrix(0.2109 0 0 0.2109 875.6641 766.1641)">
</image>
<image overflow="visible" width="512" height="512" xlink:href="../../../Downloads/home middle top.png"  transform="matrix(0.2109 0 0 0.2109 958.6621 766.1641)">
</image>
<image overflow="visible" width="512" height="512" xlink:href="../../../Downloads/home middle top.png"  transform="matrix(0.2109 0 0 0.2109 1041.8281 766.1641)">
</image>
<image overflow="visible" width="512" height="512" xlink:href="../../../Downloads/home middle top.png"  transform="matrix(0.2109 0 0 0.2109 1124.8262 766.1641)">
</image>
<image overflow="visible" width="512" height="512" xlink:href="../../../Downloads/home middle top.png"  transform="matrix(0.2109 0 0 0.2109 1207.8252 766.1641)">
</image>
<image overflow="visible" width="512" height="512" xlink:href="../../../Downloads/home right.png"  transform="matrix(0.2109 0 0 0.2109 1207.3467 766.1641)">
</image>
<image overflow="visible" width="512" height="512" xlink:href="../../../Downloads/home middle.png"  transform="matrix(0.2109 0 0 0.2109 865.6641 821.002)">
</image>
<image overflow="visible" width="512" height="512" xlink:href="../../../Downloads/home middle.png"  transform="matrix(0.2109 0 0 0.2109 865.6641 856.5308)">
</image>
<image overflow="visible" width="512" height="512" xlink:href="../../../Downloads/home middle.png"  transform="matrix(0.2109 0 0 0.2109 875.8301 910.8359)">
</image>
<image overflow="visible" width="512" height="512" xlink:href="../../../Downloads/home middle.png"  transform="matrix(0.2109 0 0 0.2109 855.3311 947.001)">
</image>
<image overflow="visible" width="512" height="512" xlink:href="../../../Downloads/home middle.png"  transform="matrix(0.2109 0 0 0.2109 865.4971 1001.3066)">
</image>
<image overflow="visible" width="512" height="512" xlink:href="../../../Downloads/home middle.png"  transform="matrix(0.2109 0 0 0.2109 876.4971 1055.6396)">
</image>
<image overflow="visible" width="512" height="512" xlink:href="../../../Downloads/home middle.png"  transform="matrix(0.2109 0 0 0.2109 948.3301 821.0015)">
</image>
<image overflow="visible" width="512" height="512" xlink:href="../../../Downloads/home middle.png"  transform="matrix(0.2109 0 0 0.2109 948.3301 856.5298)">
</image>
<image overflow="visible" width="512" height="512" xlink:href="../../../Downloads/home middle.png"  transform="matrix(0.2109 0 0 0.2109 958.4961 910.835)">
</image>
<image overflow="visible" width="512" height="512" xlink:href="../../../Downloads/home middle.png"  transform="matrix(0.2109 0 0 0.2109 937.9971 947.001)">
</image>
<image overflow="visible" width="512" height="512" xlink:href="../../../Downloads/home middle.png"  transform="matrix(0.2109 0 0 0.2109 948.1631 1001.3057)">
</image>
<image overflow="visible" width="512" height="512" xlink:href="../../../Downloads/home middle.png"  transform="matrix(0.2109 0 0 0.2109 959.1631 1055.6396)">
</image>
<image overflow="visible" width="512" height="512" xlink:href="../../../Downloads/home middle.png"  transform="matrix(0.2109 0 0 0.2109 1031.6641 821.0015)">
</image>
<image overflow="visible" width="512" height="512" xlink:href="../../../Downloads/home middle.png"  transform="matrix(0.2109 0 0 0.2109 1031.6641 856.5298)">
</image>
<image overflow="visible" width="512" height="512" xlink:href="../../../Downloads/home middle.png"  transform="matrix(0.2109 0 0 0.2109 1041.8301 910.835)">
</image>
<image overflow="visible" width="512" height="512" xlink:href="../../../Downloads/home middle.png"  transform="matrix(0.2109 0 0 0.2109 1021.3311 947.001)">
</image>
<image overflow="visible" width="512" height="512" xlink:href="../../../Downloads/home middle.png"  transform="matrix(0.2109 0 0 0.2109 1031.4971 1001.3057)">
</image>
<image overflow="visible" width="512" height="512" xlink:href="../../../Downloads/home middle.png"  transform="matrix(0.2109 0 0 0.2109 1042.4971 1055.6396)">
</image>
<image overflow="visible" width="512" height="512" xlink:href="../../../Downloads/home middle.png"  transform="matrix(0.2109 0 0 0.2109 1094.3301 821.0015)">
</image>
<image overflow="visible" width="512" height="512" xlink:href="../../../Downloads/home middle.png"  transform="matrix(0.2109 0 0 0.2109 1094.3301 856.5298)">
</image>
<image overflow="visible" width="512" height="512" xlink:href="../../../Downloads/home middle.png"  transform="matrix(0.2109 0 0 0.2109 1104.4961 910.835)">
</image>
<image overflow="visible" width="512" height="512" xlink:href="../../../Downloads/home middle.png"  transform="matrix(0.2109 0 0 0.2109 1083.9971 947.001)">
</image>
<image overflow="visible" width="512" height="512" xlink:href="../../../Downloads/home middle.png"  transform="matrix(0.2109 0 0 0.2109 1094.1631 1001.3057)">
</image>
<image overflow="visible" width="512" height="512" xlink:href="../../../Downloads/home middle.png"  transform="matrix(0.2109 0 0 0.2109 1105.1631 1055.6396)">
</image>
<image overflow="visible" width="512" height="512" xlink:href="../../../Downloads/home middle.png"  transform="matrix(0.2109 0 0 0.2109 1167.3301 803.0015)">
</image>
<image overflow="visible" width="512" height="512" xlink:href="../../../Downloads/home middle.png"  transform="matrix(0.2109 0 0 0.2109 1167.3301 838.5298)">
</image>
<image overflow="visible" width="512" height="512" xlink:href="../../../Downloads/home middle.png"  transform="matrix(0.2109 0 0 0.2109 1177.4961 892.835)">
</image>
<image overflow="visible" width="512" height="512" xlink:href="../../../Downloads/home middle.png"  transform="matrix(0.2109 0 0 0.2109 1156.9971 929.001)">
</image>
<image overflow="visible" width="512" height="512" xlink:href="../../../Downloads/home middle.png"  transform="matrix(0.2109 0 0 0.2109 1167.1631 983.3057)">
</image>
<image overflow="visible" width="512" height="512" xlink:href="../../../Downloads/home middle.png"  transform="matrix(0.2109 0 0 0.2109 1178.1631 1037.6396)">
</image>
<image overflow="visible" width="512" height="512" xlink:href="../../../Downloads/home middle.png"  transform="matrix(0.2109 0 0 0.2109 1177.3301 821.0015)">
</image>
<image overflow="visible" width="512" height="512" xlink:href="../../../Downloads/home middle.png"  transform="matrix(0.2109 0 0 0.2109 1177.3301 856.5298)">
</image>
<image overflow="visible" width="512" height="512" xlink:href="../../../Downloads/home middle.png"  transform="matrix(0.2109 0 0 0.2109 1187.4961 910.835)">
</image>
<image overflow="visible" width="512" height="512" xlink:href="../../../Downloads/home middle.png"  transform="matrix(0.2109 0 0 0.2109 1166.9971 947.001)">
</image>
<image overflow="visible" width="512" height="512" xlink:href="../../../Downloads/home middle.png"  transform="matrix(0.2109 0 0 0.2109 1177.1631 1001.3057)">
</image>
<image overflow="visible" width="512" height="512" xlink:href="../../../Downloads/home middle.png"  transform="matrix(0.2109 0 0 0.2109 1188.1631 1055.6396)">
</image>
<image overflow="visible" width="512" height="512" xlink:href="../../../Downloads/home right copy.png"  transform="matrix(0.2109 0 0 0.2109 1207.8252 802.8311)">
</image>
<image overflow="visible" width="512" height="512" xlink:href="../../../Downloads/home right copy.png"  transform="matrix(0.2109 0 0 0.2109 1207.8252 838.8311)">
</image>
<image overflow="visible" width="512" height="512" xlink:href="../../../Downloads/home right copy.png"  transform="matrix(0.2109 0 0 0.2109 1207.8252 874.8311)">
</image>
<image overflow="visible" width="512" height="512" xlink:href="../../../Downloads/home right copy.png"  transform="matrix(0.2109 0 0 0.2109 1207.9971 911.3311)">
</image>
<image overflow="visible" width="512" height="512" xlink:href="../../../Downloads/home right copy.png"  transform="matrix(0.2109 0 0 0.2109 1207.9971 947.3311)">
</image>
<image overflow="visible" width="512" height="512" xlink:href="../../../Downloads/home right copy.png"  transform="matrix(0.2109 0 0 0.2109 1208.8252 982.8311)">
</image>
<image overflow="visible" width="512" height="512" xlink:href="../../../Downloads/home right copy.png"  transform="matrix(0.2109 0 0 0.2109 1208.9971 1019.3311)">
</image>
<image overflow="visible" width="512" height="512" xlink:href="../../../Downloads/home right copy.png"  transform="matrix(0.2109 0 0 0.2109 1208.9971 1055.3311)">
</image>
<path id="face7-cut_1_" fill="none" stroke="#000000" stroke-width="0.001" stroke-linecap="round" stroke-linejoin="round" d="
	M796.775,1157.614"/>
<path id="face12-cut_1_" fill="none" stroke="#000000" stroke-width="0.001" stroke-linecap="round" stroke-linejoin="round" d="
	M797.055,1530.185"/>
<path id="face7-interior_3_" fill="none" stroke="#000000" stroke-width="0.001" stroke-linecap="round" stroke-linejoin="round" d="
	M796.775,1521.143h522.793v-368.934H796.775V1521.143"/>
<path id="face12-interior_3_" fill="none" stroke="#000000" stroke-width="0.001" stroke-linecap="round" stroke-linejoin="round" d="
	M797.055,1530.185"/>
<path id="face7-interior_2_" fill="none" stroke="#000000" stroke-width="0.001" stroke-linecap="round" stroke-linejoin="round" d="
	M796.775,1157.614"/>
<path id="face12-interior_2_" fill="none" stroke="#000000" stroke-width="0.001" stroke-linecap="round" stroke-linejoin="round" d="
	M797.055,1530.185"/>
<image overflow="visible" width="512" height="512" xlink:href="../../../Downloads/home left copy.png"  transform="matrix(0.2109 0 0 0.2109 797.0547 1426.1426)">
</image>
<image overflow="visible" width="512" height="512" xlink:href="../../../Downloads/home left copy.png"  transform="matrix(0.2109 0 0 0.2109 797.0547 1390.1426)">
</image>
<image overflow="visible" width="512" height="512" xlink:href="../../../Downloads/home left copy.png"  transform="matrix(0.2109 0 0 0.2109 797.0547 1354.1426)">
</image>
<image overflow="visible" width="512" height="512" xlink:href="../../../Downloads/home left copy.png"  transform="matrix(0.2109 0 0 0.2109 797.0547 1137.1426)">
</image>
<image overflow="visible" width="512" height="512" xlink:href="../../../Downloads/home left copy.png"  transform="matrix(0.2109 0 0 0.2109 797.0547 1318.1426)">
</image>
<image overflow="visible" width="512" height="512" xlink:href="../../../Downloads/home left copy.png"  transform="matrix(0.2109 0 0 0.2109 797.0547 1282.1426)">
</image>
<image overflow="visible" width="512" height="512" xlink:href="../../../Downloads/home left copy.png"  transform="matrix(0.2109 0 0 0.2109 797.0547 1245.6143)">
</image>
<image overflow="visible" width="512" height="512" xlink:href="../../../Downloads/home left copy.png"  transform="matrix(0.2109 0 0 0.2109 797.0547 1209.6143)">
</image>
<image overflow="visible" width="512" height="512" xlink:href="../../../Downloads/home left copy.png"  transform="matrix(0.2109 0 0 0.2109 797.0547 1173.6143)">
</image>
<image overflow="visible" width="512" height="512" xlink:href="../../../Downloads/home left.png"  transform="matrix(0.2109 0 0 0.2109 797.0547 1136.7764)">
</image>
<image overflow="visible" width="512" height="512" xlink:href="../../../Downloads/home middle top.png"  transform="matrix(0.2109 0 0 0.2109 879.8857 1136.7764)">
</image>
<image overflow="visible" width="512" height="512" xlink:href="../../../Downloads/home middle top.png"  transform="matrix(0.2109 0 0 0.2109 962.8838 1136.7764)">
</image>
<image overflow="visible" width="512" height="512" xlink:href="../../../Downloads/home middle top.png"  transform="matrix(0.2109 0 0 0.2109 1046.0498 1136.7764)">
</image>
<image overflow="visible" width="512" height="512" xlink:href="../../../Downloads/home middle top.png"  transform="matrix(0.2109 0 0 0.2109 1129.0479 1136.7764)">
</image>
<image overflow="visible" width="512" height="512" xlink:href="../../../Downloads/home middle top.png"  transform="matrix(0.2109 0 0 0.2109 1212.0469 1136.7764)">
</image>
<image overflow="visible" width="512" height="512" xlink:href="../../../Downloads/home right.png"  transform="matrix(0.2109 0 0 0.2109 1211.5684 1136.7764)">
</image>
<image overflow="visible" width="512" height="512" xlink:href="../../../Downloads/home middle.png"  transform="matrix(0.2109 0 0 0.2109 869.8857 1191.6143)">
</image>
<image overflow="visible" width="512" height="512" xlink:href="../../../Downloads/home middle.png"  transform="matrix(0.2109 0 0 0.2109 869.8857 1227.1426)">
</image>
<image overflow="visible" width="512" height="512" xlink:href="../../../Downloads/home middle.png"  transform="matrix(0.2109 0 0 0.2109 880.0518 1281.4482)">
</image>
<image overflow="visible" width="512" height="512" xlink:href="../../../Downloads/home middle.png"  transform="matrix(0.2109 0 0 0.2109 859.5527 1317.6133)">
</image>
<image overflow="visible" width="512" height="512" xlink:href="../../../Downloads/home middle.png"  transform="matrix(0.2109 0 0 0.2109 869.7188 1371.9189)">
</image>
<image overflow="visible" width="512" height="512" xlink:href="../../../Downloads/home middle.png"  transform="matrix(0.2109 0 0 0.2109 880.7188 1426.252)">
</image>
<image overflow="visible" width="512" height="512" xlink:href="../../../Downloads/home middle.png"  transform="matrix(0.2109 0 0 0.2109 952.5518 1191.6133)">
</image>
<image overflow="visible" width="512" height="512" xlink:href="../../../Downloads/home middle.png"  transform="matrix(0.2109 0 0 0.2109 952.5518 1227.1426)">
</image>
<image overflow="visible" width="512" height="512" xlink:href="../../../Downloads/home middle.png"  transform="matrix(0.2109 0 0 0.2109 962.7178 1281.4473)">
</image>
<image overflow="visible" width="512" height="512" xlink:href="../../../Downloads/home middle.png"  transform="matrix(0.2109 0 0 0.2109 942.2188 1317.6133)">
</image>
<image overflow="visible" width="512" height="512" xlink:href="../../../Downloads/home middle.png"  transform="matrix(0.2109 0 0 0.2109 952.3848 1371.918)">
</image>
<image overflow="visible" width="512" height="512" xlink:href="../../../Downloads/home middle.png"  transform="matrix(0.2109 0 0 0.2109 963.3848 1426.252)">
</image>
<image overflow="visible" width="512" height="512" xlink:href="../../../Downloads/home middle.png"  transform="matrix(0.2109 0 0 0.2109 1035.8857 1191.6133)">
</image>
<image overflow="visible" width="512" height="512" xlink:href="../../../Downloads/home middle.png"  transform="matrix(0.2109 0 0 0.2109 1035.8857 1227.1426)">
</image>
<image overflow="visible" width="512" height="512" xlink:href="../../../Downloads/home middle.png"  transform="matrix(0.2109 0 0 0.2109 1046.0518 1281.4473)">
</image>
<image overflow="visible" width="512" height="512" xlink:href="../../../Downloads/home middle.png"  transform="matrix(0.2109 0 0 0.2109 1025.5527 1317.6133)">
</image>
<image overflow="visible" width="512" height="512" xlink:href="../../../Downloads/home middle.png"  transform="matrix(0.2109 0 0 0.2109 1035.7188 1371.918)">
</image>
<image overflow="visible" width="512" height="512" xlink:href="../../../Downloads/home middle.png"  transform="matrix(0.2109 0 0 0.2109 1046.7188 1426.252)">
</image>
<image overflow="visible" width="512" height="512" xlink:href="../../../Downloads/home middle.png"  transform="matrix(0.2109 0 0 0.2109 1098.5518 1191.6133)">
</image>
<image overflow="visible" width="512" height="512" xlink:href="../../../Downloads/home middle.png"  transform="matrix(0.2109 0 0 0.2109 1098.5518 1227.1426)">
</image>
<image overflow="visible" width="512" height="512" xlink:href="../../../Downloads/home middle.png"  transform="matrix(0.2109 0 0 0.2109 1108.7178 1281.4473)">
</image>
<image overflow="visible" width="512" height="512" xlink:href="../../../Downloads/home middle.png"  transform="matrix(0.2109 0 0 0.2109 1088.2188 1317.6133)">
</image>
<image overflow="visible" width="512" height="512" xlink:href="../../../Downloads/home middle.png"  transform="matrix(0.2109 0 0 0.2109 1098.3848 1371.918)">
</image>
<image overflow="visible" width="512" height="512" xlink:href="../../../Downloads/home middle.png"  transform="matrix(0.2109 0 0 0.2109 1109.3848 1426.252)">
</image>
<image overflow="visible" width="512" height="512" xlink:href="../../../Downloads/home middle.png"  transform="matrix(0.2109 0 0 0.2109 1171.5518 1173.6133)">
</image>
<image overflow="visible" width="512" height="512" xlink:href="../../../Downloads/home middle.png"  transform="matrix(0.2109 0 0 0.2109 1171.5518 1209.1426)">
</image>
<image overflow="visible" width="512" height="512" xlink:href="../../../Downloads/home middle.png"  transform="matrix(0.2109 0 0 0.2109 1181.7178 1263.4473)">
</image>
<image overflow="visible" width="512" height="512" xlink:href="../../../Downloads/home middle.png"  transform="matrix(0.2109 0 0 0.2109 1161.2188 1299.6133)">
</image>
<image overflow="visible" width="512" height="512" xlink:href="../../../Downloads/home middle.png"  transform="matrix(0.2109 0 0 0.2109 1171.3848 1353.918)">
</image>
<image overflow="visible" width="512" height="512" xlink:href="../../../Downloads/home middle.png"  transform="matrix(0.2109 0 0 0.2109 1182.3848 1408.252)">
</image>
<image overflow="visible" width="512" height="512" xlink:href="../../../Downloads/home middle.png"  transform="matrix(0.2109 0 0 0.2109 1181.5518 1191.6133)">
</image>
<image overflow="visible" width="512" height="512" xlink:href="../../../Downloads/home middle.png"  transform="matrix(0.2109 0 0 0.2109 1181.5518 1227.1426)">
</image>
<image overflow="visible" width="512" height="512" xlink:href="../../../Downloads/home middle.png"  transform="matrix(0.2109 0 0 0.2109 1191.7178 1281.4473)">
</image>
<image overflow="visible" width="512" height="512" xlink:href="../../../Downloads/home middle.png"  transform="matrix(0.2109 0 0 0.2109 1171.2188 1317.6133)">
</image>
<image overflow="visible" width="512" height="512" xlink:href="../../../Downloads/home middle.png"  transform="matrix(0.2109 0 0 0.2109 1181.3848 1371.918)">
</image>
<image overflow="visible" width="512" height="512" xlink:href="../../../Downloads/home middle.png"  transform="matrix(0.2109 0 0 0.2109 1192.3848 1426.252)">
</image>
<image overflow="visible" width="512" height="512" xlink:href="../../../Downloads/home right copy.png"  transform="matrix(0.2109 0 0 0.2109 1212.0469 1173.4434)">
</image>
<image overflow="visible" width="512" height="512" xlink:href="../../../Downloads/home right copy.png"  transform="matrix(0.2109 0 0 0.2109 1212.0469 1209.4434)">
</image>
<image overflow="visible" width="512" height="512" xlink:href="../../../Downloads/home right copy.png"  transform="matrix(0.2109 0 0 0.2109 1212.0469 1245.4434)">
</image>
<image overflow="visible" width="512" height="512" xlink:href="../../../Downloads/home right copy.png"  transform="matrix(0.2109 0 0 0.2109 1212.2188 1281.9434)">
</image>
<image overflow="visible" width="512" height="512" xlink:href="../../../Downloads/home right copy.png"  transform="matrix(0.2109 0 0 0.2109 1212.2188 1317.9434)">
</image>
<image overflow="visible" width="512" height="512" xlink:href="../../../Downloads/home right copy.png"  transform="matrix(0.2109 0 0 0.2109 1213.0469 1353.4434)">
</image>
<image overflow="visible" width="512" height="512" xlink:href="../../../Downloads/home right copy.png"  transform="matrix(0.2109 0 0 0.2109 1213.2188 1389.9434)">
</image>
<image overflow="visible" width="512" height="512" xlink:href="../../../Downloads/home right copy.png"  transform="matrix(0.2109 0 0 0.2109 1213.2188 1425.9434)">
</image>
<line fill="none" stroke="#000000" stroke-width="0.001" stroke-linecap="round" stroke-linejoin="round" x1="800.892" y1="1515.597" x2="800.894" y2="1515.597"/>
<g>
	<g>
		<g>
			<path fill="none" stroke="#000000" stroke-width="0.001" stroke-linecap="round" stroke-linejoin="round" d="M796.681,1507.848
				c0.179,0.302,0.324,0.72,0.481,1.083c0.435,1.003,0.854,2.07,1.287,3.15c0.44,1.097,1.337,1.662,2.005,2.679
				c0.48,0.731,0.856,0.774,1.562,1.252c0.541,0.366,0.782,0.796,1.352,1.065c1.061,0.502,2.568,0.896,3.729,0.937
				c1.445,0.052,2.653,0.567,4.167,0.417c1.146-0.114,2.574-0.707,3.662-1.19c1.813-0.806,3.983-2.542,4.838-4.31"/>
			<path fill="none" stroke="#000000" stroke-width="0.001" stroke-linecap="round" stroke-linejoin="round" d="M861.485,1512.933
				c0.092,0.158-0.258,0.562-0.359,0.703c-0.192,0.268-0.33,0.467-0.579,0.667c-0.201,0.162-0.403,0.387-0.521,0.607
				c-0.122,0.228-0.358,0.48-0.576,0.652c-0.23,0.183-0.545,0.26-0.793,0.438c-0.252,0.181-0.538,0.332-0.778,0.517
				c-0.455,0.351-0.865,0.54-1.367,0.784c-0.414,0.201-0.778,0.523-1.213,0.65c-0.928,0.271-1.933,0.351-2.901,0.396
				c-0.564,0.027-1.052,0.201-1.595,0.047c-0.444-0.126-0.994-0.048-1.457-0.047c-0.847,0.002-1.716-0.365-2.506-0.662
				c-0.401-0.15-0.82-0.235-1.146-0.505c-0.271-0.225-0.618-0.396-0.91-0.566c-0.663-0.385-1.278-0.771-1.859-1.267
				c-0.316-0.271-0.68-0.503-0.959-0.812c-0.31-0.342-0.463-0.714-0.688-1.104c-0.102-0.176-0.419-0.403-0.604-0.499"/>
			<path fill="none" stroke="#000000" stroke-width="0.001" stroke-linecap="round" stroke-linejoin="round" d="M882.313,1512.933
				c0.092,0.158-0.258,0.562-0.359,0.703c-0.192,0.268-0.33,0.467-0.579,0.667c-0.201,0.162-0.403,0.387-0.521,0.607
				c-0.122,0.228-0.358,0.48-0.576,0.652c-0.23,0.183-0.545,0.26-0.793,0.438c-0.252,0.181-0.538,0.332-0.778,0.517
				c-0.455,0.351-0.865,0.54-1.367,0.784c-0.414,0.201-0.778,0.523-1.213,0.65c-0.928,0.271-1.933,0.351-2.901,0.396
				c-0.564,0.027-1.052,0.201-1.595,0.047c-0.444-0.126-0.994-0.048-1.457-0.047c-0.847,0.002-1.716-0.365-2.506-0.662
				c-0.401-0.15-0.82-0.235-1.146-0.505c-0.271-0.225-0.618-0.396-0.91-0.566c-0.663-0.385-1.278-0.771-1.859-1.267
				c-0.316-0.271-0.68-0.503-0.959-0.812c-0.31-0.342-0.463-0.714-0.688-1.104c-0.102-0.176-0.419-0.403-0.604-0.499"/>
			<path fill="none" stroke="#000000" stroke-width="0.001" stroke-linecap="round" stroke-linejoin="round" d="M903.142,1512.933
				c0.092,0.158-0.258,0.562-0.359,0.703c-0.192,0.268-0.33,0.467-0.579,0.667c-0.201,0.162-0.403,0.387-0.521,0.607
				c-0.122,0.228-0.358,0.48-0.576,0.652c-0.23,0.183-0.545,0.26-0.793,0.438c-0.252,0.181-0.538,0.332-0.778,0.517
				c-0.455,0.351-0.865,0.54-1.367,0.784c-0.414,0.201-0.778,0.523-1.213,0.65c-0.928,0.271-1.933,0.351-2.901,0.396
				c-0.564,0.027-1.052,0.201-1.595,0.047c-0.444-0.126-0.994-0.048-1.457-0.047c-0.847,0.002-1.716-0.365-2.506-0.662
				c-0.401-0.15-0.82-0.235-1.146-0.505c-0.271-0.225-0.618-0.396-0.91-0.566c-0.663-0.385-1.278-0.771-1.859-1.267
				c-0.316-0.271-0.68-0.503-0.959-0.812c-0.31-0.342-0.463-0.714-0.688-1.104c-0.102-0.176-0.419-0.403-0.604-0.499"/>
		</g>
		<g>
			<path fill="none" stroke="#000000" stroke-width="0.001" stroke-linecap="round" stroke-linejoin="round" d="M923.97,1512.933
				c0.092,0.158-0.258,0.562-0.359,0.703c-0.192,0.268-0.33,0.467-0.579,0.667c-0.201,0.162-0.403,0.387-0.521,0.607
				c-0.122,0.228-0.358,0.48-0.576,0.652c-0.23,0.183-0.545,0.26-0.793,0.438c-0.252,0.181-0.538,0.332-0.778,0.517
				c-0.455,0.351-0.865,0.54-1.367,0.784c-0.414,0.201-0.778,0.523-1.213,0.65c-0.928,0.271-1.933,0.351-2.901,0.396
				c-0.564,0.027-1.052,0.201-1.595,0.047c-0.444-0.126-0.994-0.048-1.457-0.047c-0.847,0.002-1.716-0.365-2.506-0.662
				c-0.401-0.15-0.82-0.235-1.146-0.505c-0.271-0.225-0.618-0.396-0.91-0.566c-0.663-0.385-1.278-0.771-1.859-1.267
				c-0.316-0.271-0.68-0.503-0.959-0.812c-0.31-0.342-0.463-0.714-0.688-1.104c-0.102-0.176-0.419-0.403-0.604-0.499"/>
			<path fill="none" stroke="#000000" stroke-width="0.001" stroke-linecap="round" stroke-linejoin="round" d="M944.798,1512.933
				c0.092,0.158-0.258,0.562-0.359,0.703c-0.192,0.268-0.33,0.467-0.579,0.667c-0.201,0.162-0.403,0.387-0.521,0.607
				c-0.122,0.228-0.358,0.48-0.576,0.652c-0.23,0.183-0.545,0.26-0.793,0.438c-0.252,0.181-0.538,0.332-0.778,0.517
				c-0.455,0.351-0.865,0.54-1.367,0.784c-0.414,0.201-0.778,0.523-1.213,0.65c-0.928,0.271-1.933,0.351-2.901,0.396
				c-0.564,0.027-1.052,0.201-1.595,0.047c-0.444-0.126-0.994-0.048-1.457-0.047c-0.847,0.002-1.716-0.365-2.506-0.662
				c-0.401-0.15-0.82-0.235-1.146-0.505c-0.271-0.225-0.618-0.396-0.91-0.566c-0.663-0.385-1.278-0.771-1.859-1.267
				c-0.316-0.271-0.68-0.503-0.959-0.812c-0.31-0.342-0.463-0.714-0.688-1.104c-0.102-0.176-0.419-0.403-0.604-0.499"/>
			<path fill="none" stroke="#000000" stroke-width="0.001" stroke-linecap="round" stroke-linejoin="round" d="M965.626,1512.933
				c0.092,0.158-0.258,0.562-0.359,0.703c-0.192,0.268-0.33,0.467-0.579,0.667c-0.201,0.162-0.403,0.387-0.521,0.607
				c-0.122,0.228-0.358,0.48-0.576,0.652c-0.23,0.183-0.545,0.26-0.793,0.438c-0.252,0.181-0.538,0.332-0.778,0.517
				c-0.455,0.351-0.865,0.54-1.367,0.784c-0.414,0.201-0.778,0.523-1.213,0.65c-0.928,0.271-1.933,0.351-2.901,0.396
				c-0.564,0.027-1.052,0.201-1.595,0.047c-0.444-0.126-0.994-0.048-1.457-0.047c-0.847,0.002-1.716-0.365-2.506-0.662
				c-0.401-0.15-0.82-0.235-1.146-0.505c-0.271-0.225-0.618-0.396-0.91-0.566c-0.663-0.385-1.278-0.771-1.859-1.267
				c-0.316-0.271-0.68-0.503-0.959-0.812c-0.31-0.342-0.463-0.714-0.688-1.104c-0.102-0.176-0.419-0.403-0.604-0.499"/>
			<path fill="none" stroke="#000000" stroke-width="0.001" stroke-linecap="round" stroke-linejoin="round" d="M986.454,1512.933
				c0.092,0.158-0.258,0.562-0.359,0.703c-0.192,0.268-0.33,0.467-0.579,0.667c-0.201,0.162-0.403,0.387-0.521,0.607
				c-0.122,0.228-0.358,0.48-0.576,0.652c-0.23,0.183-0.545,0.26-0.793,0.438c-0.252,0.181-0.538,0.332-0.778,0.517
				c-0.455,0.351-0.865,0.54-1.367,0.784c-0.414,0.201-0.778,0.523-1.213,0.65c-0.928,0.271-1.933,0.351-2.901,0.396
				c-0.564,0.027-1.052,0.201-1.595,0.047c-0.444-0.126-0.994-0.048-1.457-0.047c-0.847,0.002-1.716-0.365-2.506-0.662
				c-0.401-0.15-0.82-0.235-1.146-0.505c-0.271-0.225-0.618-0.396-0.91-0.566c-0.663-0.385-1.278-0.771-1.859-1.267
				c-0.316-0.271-0.68-0.503-0.959-0.812c-0.31-0.342-0.463-0.714-0.688-1.104c-0.102-0.176-0.419-0.403-0.604-0.499"/>
		</g>
	</g>
	<g>
		<g>
			<path fill="none" stroke="#000000" stroke-width="0.001" stroke-linecap="round" stroke-linejoin="round" d="M1006.66,1512.933
				c0.092,0.158-0.258,0.562-0.359,0.703c-0.192,0.268-0.33,0.467-0.579,0.667c-0.201,0.162-0.403,0.387-0.521,0.607
				c-0.122,0.228-0.358,0.48-0.576,0.652c-0.23,0.183-0.545,0.26-0.793,0.438c-0.252,0.181-0.538,0.332-0.778,0.517
				c-0.455,0.351-0.865,0.54-1.367,0.784c-0.414,0.201-0.778,0.523-1.213,0.65c-0.928,0.271-1.933,0.351-2.901,0.396
				c-0.564,0.027-1.052,0.201-1.595,0.047c-0.444-0.126-0.994-0.048-1.457-0.047c-0.847,0.002-1.716-0.365-2.506-0.662
				c-0.401-0.15-0.82-0.235-1.146-0.505c-0.271-0.225-0.618-0.396-0.91-0.566c-0.663-0.385-1.278-0.771-1.859-1.267
				c-0.316-0.271-0.68-0.503-0.959-0.812c-0.31-0.342-0.463-0.714-0.688-1.104c-0.102-0.176-0.419-0.403-0.604-0.499"/>
			<path fill="none" stroke="#000000" stroke-width="0.001" stroke-linecap="round" stroke-linejoin="round" d="M1027.488,1512.933
				c0.092,0.158-0.258,0.562-0.359,0.703c-0.192,0.268-0.33,0.467-0.579,0.667c-0.201,0.162-0.403,0.387-0.521,0.607
				c-0.122,0.228-0.358,0.48-0.576,0.652c-0.23,0.183-0.545,0.26-0.793,0.438c-0.252,0.181-0.538,0.332-0.778,0.517
				c-0.455,0.351-0.865,0.54-1.367,0.784c-0.414,0.201-0.778,0.523-1.213,0.65c-0.928,0.271-1.933,0.351-2.901,0.396
				c-0.564,0.027-1.052,0.201-1.595,0.047c-0.444-0.126-0.994-0.048-1.457-0.047c-0.847,0.002-1.716-0.365-2.506-0.662
				c-0.401-0.15-0.82-0.235-1.146-0.505c-0.271-0.225-0.618-0.396-0.91-0.566c-0.663-0.385-1.278-0.771-1.859-1.267
				c-0.316-0.271-0.68-0.503-0.959-0.812c-0.31-0.342-0.463-0.714-0.688-1.104c-0.102-0.176-0.419-0.403-0.604-0.499"/>
			<path fill="none" stroke="#000000" stroke-width="0.001" stroke-linecap="round" stroke-linejoin="round" d="M1048.316,1512.933
				c0.092,0.158-0.258,0.562-0.359,0.703c-0.192,0.268-0.33,0.467-0.579,0.667c-0.201,0.162-0.403,0.387-0.521,0.607
				c-0.122,0.228-0.358,0.48-0.576,0.652c-0.23,0.183-0.545,0.26-0.793,0.438c-0.252,0.181-0.538,0.332-0.778,0.517
				c-0.455,0.351-0.865,0.54-1.367,0.784c-0.414,0.201-0.778,0.523-1.213,0.65c-0.928,0.271-1.933,0.351-2.901,0.396
				c-0.564,0.027-1.052,0.201-1.595,0.047c-0.444-0.126-0.994-0.048-1.457-0.047c-0.847,0.002-1.716-0.365-2.506-0.662
				c-0.401-0.15-0.82-0.235-1.146-0.505c-0.271-0.225-0.618-0.396-0.91-0.566c-0.663-0.385-1.278-0.771-1.859-1.267
				c-0.316-0.271-0.68-0.503-0.959-0.812c-0.31-0.342-0.463-0.714-0.688-1.104c-0.102-0.176-0.419-0.403-0.604-0.499"/>
			<path fill="none" stroke="#000000" stroke-width="0.001" stroke-linecap="round" stroke-linejoin="round" d="M1069.145,1512.933
				c0.092,0.158-0.258,0.562-0.359,0.703c-0.192,0.268-0.33,0.467-0.579,0.667c-0.201,0.162-0.403,0.387-0.521,0.607
				c-0.122,0.228-0.358,0.48-0.576,0.652c-0.23,0.183-0.545,0.26-0.793,0.438c-0.252,0.181-0.538,0.332-0.778,0.517
				c-0.455,0.351-0.865,0.54-1.367,0.784c-0.414,0.201-0.778,0.523-1.213,0.65c-0.928,0.271-1.933,0.351-2.901,0.396
				c-0.564,0.027-1.052,0.201-1.595,0.047c-0.444-0.126-0.994-0.048-1.457-0.047c-0.847,0.002-1.716-0.365-2.506-0.662
				c-0.401-0.15-0.82-0.235-1.146-0.505c-0.271-0.225-0.618-0.396-0.91-0.566c-0.663-0.385-1.278-0.771-1.859-1.267
				c-0.316-0.271-0.68-0.503-0.959-0.812c-0.31-0.342-0.463-0.714-0.688-1.104c-0.102-0.176-0.419-0.403-0.604-0.499"/>
		</g>
		<g>
			<path fill="none" stroke="#000000" stroke-width="0.001" stroke-linecap="round" stroke-linejoin="round" d="M1089.973,1512.933
				c0.092,0.158-0.258,0.562-0.359,0.703c-0.192,0.268-0.33,0.467-0.579,0.667c-0.201,0.162-0.403,0.387-0.521,0.607
				c-0.122,0.228-0.358,0.48-0.576,0.652c-0.23,0.183-0.545,0.26-0.793,0.438c-0.252,0.181-0.538,0.332-0.778,0.517
				c-0.455,0.351-0.865,0.54-1.367,0.784c-0.414,0.201-0.778,0.523-1.213,0.65c-0.928,0.271-1.933,0.351-2.901,0.396
				c-0.564,0.027-1.052,0.201-1.595,0.047c-0.444-0.126-0.994-0.048-1.457-0.047c-0.847,0.002-1.716-0.365-2.506-0.662
				c-0.401-0.15-0.82-0.235-1.146-0.505c-0.271-0.225-0.618-0.396-0.91-0.566c-0.663-0.385-1.278-0.771-1.859-1.267
				c-0.316-0.271-0.68-0.503-0.959-0.812c-0.31-0.342-0.463-0.714-0.688-1.104c-0.102-0.176-0.419-0.403-0.604-0.499"/>
			<path fill="none" stroke="#000000" stroke-width="0.001" stroke-linecap="round" stroke-linejoin="round" d="M1110.801,1512.933
				c0.092,0.158-0.258,0.562-0.359,0.703c-0.192,0.268-0.33,0.467-0.579,0.667c-0.201,0.162-0.403,0.387-0.521,0.607
				c-0.122,0.228-0.358,0.48-0.576,0.652c-0.23,0.183-0.545,0.26-0.793,0.438c-0.252,0.181-0.538,0.332-0.778,0.517
				c-0.455,0.351-0.865,0.54-1.367,0.784c-0.414,0.201-0.778,0.523-1.213,0.65c-0.928,0.271-1.933,0.351-2.901,0.396
				c-0.564,0.027-1.052,0.201-1.595,0.047c-0.444-0.126-0.994-0.048-1.457-0.047c-0.847,0.002-1.716-0.365-2.506-0.662
				c-0.401-0.15-0.82-0.235-1.146-0.505c-0.271-0.225-0.618-0.396-0.91-0.566c-0.663-0.385-1.278-0.771-1.859-1.267
				c-0.316-0.271-0.68-0.503-0.959-0.812c-0.31-0.342-0.463-0.714-0.688-1.104c-0.102-0.176-0.419-0.403-0.604-0.499"/>
			<path fill="none" stroke="#000000" stroke-width="0.001" stroke-linecap="round" stroke-linejoin="round" d="M1131.629,1512.933
				c0.092,0.158-0.258,0.562-0.359,0.703c-0.192,0.268-0.33,0.467-0.579,0.667c-0.201,0.162-0.403,0.387-0.521,0.607
				c-0.122,0.228-0.358,0.48-0.576,0.652c-0.23,0.183-0.545,0.26-0.793,0.438c-0.252,0.181-0.538,0.332-0.778,0.517
				c-0.455,0.351-0.865,0.54-1.367,0.784c-0.414,0.201-0.778,0.523-1.213,0.65c-0.928,0.271-1.933,0.351-2.901,0.396
				c-0.564,0.027-1.052,0.201-1.595,0.047c-0.444-0.126-0.994-0.048-1.457-0.047c-0.847,0.002-1.716-0.365-2.506-0.662
				c-0.401-0.15-0.82-0.235-1.146-0.505c-0.271-0.225-0.618-0.396-0.91-0.566c-0.663-0.385-1.278-0.771-1.859-1.267
				c-0.316-0.271-0.68-0.503-0.959-0.812c-0.31-0.342-0.463-0.714-0.688-1.104c-0.102-0.176-0.419-0.403-0.604-0.499"/>
			<path fill="none" stroke="#000000" stroke-width="0.001" stroke-linecap="round" stroke-linejoin="round" d="M1152.457,1512.933
				c0.092,0.158-0.258,0.562-0.359,0.703c-0.192,0.268-0.33,0.467-0.579,0.667c-0.201,0.162-0.403,0.387-0.521,0.607
				c-0.122,0.228-0.358,0.48-0.576,0.652c-0.23,0.183-0.545,0.26-0.793,0.438c-0.252,0.181-0.538,0.332-0.778,0.517
				c-0.455,0.351-0.865,0.54-1.367,0.784c-0.414,0.201-0.778,0.523-1.213,0.65c-0.928,0.271-1.933,0.351-2.901,0.396
				c-0.564,0.027-1.052,0.201-1.595,0.047c-0.444-0.126-0.994-0.048-1.457-0.047c-0.847,0.002-1.716-0.365-2.506-0.662
				c-0.401-0.15-0.82-0.235-1.146-0.505c-0.271-0.225-0.618-0.396-0.91-0.566c-0.663-0.385-1.278-0.771-1.859-1.267
				c-0.316-0.271-0.68-0.503-0.959-0.812c-0.31-0.342-0.463-0.714-0.688-1.104c-0.102-0.176-0.419-0.403-0.604-0.499"/>
		</g>
	</g>
	<g>
		<g>
			<path fill="none" stroke="#000000" stroke-width="0.001" stroke-linecap="round" stroke-linejoin="round" d="M1172.885,1512.933
				c0.092,0.158-0.258,0.562-0.359,0.703c-0.192,0.268-0.33,0.467-0.579,0.667c-0.201,0.162-0.403,0.387-0.521,0.607
				c-0.122,0.228-0.358,0.48-0.576,0.652c-0.23,0.183-0.545,0.26-0.793,0.438c-0.252,0.181-0.538,0.332-0.778,0.517
				c-0.455,0.351-0.865,0.54-1.367,0.784c-0.414,0.201-0.778,0.523-1.213,0.65c-0.928,0.271-1.933,0.351-2.901,0.396
				c-0.564,0.027-1.052,0.201-1.595,0.047c-0.444-0.126-0.994-0.048-1.457-0.047c-0.847,0.002-1.716-0.365-2.506-0.662
				c-0.401-0.15-0.82-0.235-1.146-0.505c-0.271-0.225-0.618-0.396-0.91-0.566c-0.663-0.385-1.278-0.771-1.859-1.267
				c-0.316-0.271-0.68-0.503-0.959-0.812c-0.31-0.342-0.463-0.714-0.688-1.104c-0.102-0.176-0.419-0.403-0.604-0.499"/>
			<path fill="none" stroke="#000000" stroke-width="0.001" stroke-linecap="round" stroke-linejoin="round" d="M1193.713,1512.933
				c0.092,0.158-0.258,0.562-0.359,0.703c-0.192,0.268-0.33,0.467-0.579,0.667c-0.201,0.162-0.403,0.387-0.521,0.607
				c-0.122,0.228-0.358,0.48-0.576,0.652c-0.23,0.183-0.545,0.26-0.793,0.438c-0.252,0.181-0.538,0.332-0.778,0.517
				c-0.455,0.351-0.865,0.54-1.367,0.784c-0.414,0.201-0.778,0.523-1.213,0.65c-0.928,0.271-1.933,0.351-2.901,0.396
				c-0.564,0.027-1.052,0.201-1.595,0.047c-0.444-0.126-0.994-0.048-1.457-0.047c-0.847,0.002-1.716-0.365-2.506-0.662
				c-0.401-0.15-0.82-0.235-1.146-0.505c-0.271-0.225-0.618-0.396-0.91-0.566c-0.663-0.385-1.278-0.771-1.859-1.267
				c-0.316-0.271-0.68-0.503-0.959-0.812c-0.31-0.342-0.463-0.714-0.688-1.104c-0.102-0.176-0.419-0.403-0.604-0.499"/>
			<path fill="none" stroke="#000000" stroke-width="0.001" stroke-linecap="round" stroke-linejoin="round" d="M1214.541,1512.933
				c0.092,0.158-0.258,0.562-0.359,0.703c-0.192,0.268-0.33,0.467-0.579,0.667c-0.201,0.162-0.403,0.387-0.521,0.607
				c-0.122,0.228-0.358,0.48-0.576,0.652c-0.23,0.183-0.545,0.26-0.793,0.438c-0.252,0.181-0.538,0.332-0.778,0.517
				c-0.455,0.351-0.865,0.54-1.367,0.784c-0.414,0.201-0.778,0.523-1.213,0.65c-0.928,0.271-1.933,0.351-2.901,0.396
				c-0.564,0.027-1.052,0.201-1.595,0.047c-0.444-0.126-0.994-0.048-1.457-0.047c-0.847,0.002-1.716-0.365-2.506-0.662
				c-0.401-0.15-0.82-0.235-1.146-0.505c-0.271-0.225-0.618-0.396-0.91-0.566c-0.663-0.385-1.278-0.771-1.859-1.267
				c-0.316-0.271-0.68-0.503-0.959-0.812c-0.31-0.342-0.463-0.714-0.688-1.104c-0.102-0.176-0.419-0.403-0.604-0.499"/>
			<path fill="none" stroke="#000000" stroke-width="0.001" stroke-linecap="round" stroke-linejoin="round" d="M1235.369,1512.933
				c0.092,0.158-0.258,0.562-0.359,0.703c-0.192,0.268-0.33,0.467-0.579,0.667c-0.201,0.162-0.403,0.387-0.521,0.607
				c-0.122,0.228-0.358,0.48-0.576,0.652c-0.23,0.183-0.545,0.26-0.793,0.438c-0.252,0.181-0.538,0.332-0.778,0.517
				c-0.455,0.351-0.865,0.54-1.367,0.784c-0.414,0.201-0.778,0.523-1.213,0.65c-0.928,0.271-1.933,0.351-2.901,0.396
				c-0.564,0.027-1.052,0.201-1.595,0.047c-0.444-0.126-0.994-0.048-1.457-0.047c-0.847,0.002-1.716-0.365-2.506-0.662
				c-0.401-0.15-0.82-0.235-1.146-0.505c-0.271-0.225-0.618-0.396-0.91-0.566c-0.663-0.385-1.278-0.771-1.859-1.267
				c-0.316-0.271-0.68-0.503-0.959-0.812c-0.31-0.342-0.463-0.714-0.688-1.104c-0.102-0.176-0.419-0.403-0.604-0.499"/>
		</g>
		<g>
			<path fill="none" stroke="#000000" stroke-width="0.001" stroke-linecap="round" stroke-linejoin="round" d="M1256.197,1512.933
				c0.092,0.158-0.258,0.562-0.359,0.703c-0.192,0.268-0.33,0.467-0.579,0.667c-0.201,0.162-0.403,0.387-0.521,0.607
				c-0.122,0.228-0.358,0.48-0.576,0.652c-0.23,0.183-0.545,0.26-0.793,0.438c-0.252,0.181-0.538,0.332-0.778,0.517
				c-0.455,0.351-0.865,0.54-1.367,0.784c-0.414,0.201-0.778,0.523-1.213,0.65c-0.928,0.271-1.933,0.351-2.901,0.396
				c-0.564,0.027-1.052,0.201-1.595,0.047c-0.444-0.126-0.994-0.048-1.457-0.047c-0.847,0.002-1.716-0.365-2.506-0.662
				c-0.401-0.15-0.82-0.235-1.146-0.505c-0.271-0.225-0.618-0.396-0.91-0.566c-0.663-0.385-1.278-0.771-1.859-1.267
				c-0.316-0.271-0.68-0.503-0.959-0.812c-0.31-0.342-0.463-0.714-0.688-1.104c-0.102-0.176-0.419-0.403-0.604-0.499"/>
			<path fill="none" stroke="#000000" stroke-width="0.001" stroke-linecap="round" stroke-linejoin="round" d="M1277.025,1512.933
				c0.092,0.158-0.258,0.562-0.359,0.703c-0.192,0.268-0.33,0.467-0.579,0.667c-0.201,0.162-0.403,0.387-0.521,0.607
				c-0.122,0.228-0.358,0.48-0.576,0.652c-0.23,0.183-0.545,0.26-0.793,0.438c-0.252,0.181-0.538,0.332-0.778,0.517
				c-0.455,0.351-0.865,0.54-1.367,0.784c-0.414,0.201-0.778,0.523-1.213,0.65c-0.928,0.271-1.933,0.351-2.901,0.396
				c-0.564,0.027-1.052,0.201-1.595,0.047c-0.444-0.126-0.994-0.048-1.457-0.047c-0.847,0.002-1.716-0.365-2.506-0.662
				c-0.401-0.15-0.82-0.235-1.146-0.505c-0.271-0.225-0.618-0.396-0.91-0.566c-0.663-0.385-1.278-0.771-1.859-1.267
				c-0.316-0.271-0.68-0.503-0.959-0.812c-0.31-0.342-0.463-0.714-0.688-1.104c-0.102-0.176-0.419-0.403-0.604-0.499"/>
			<path fill="none" stroke="#000000" stroke-width="0.001" stroke-linecap="round" stroke-linejoin="round" d="M1297.854,1512.933
				c0.092,0.158-0.258,0.562-0.359,0.703c-0.192,0.268-0.33,0.467-0.579,0.667c-0.201,0.162-0.403,0.387-0.521,0.607
				c-0.122,0.228-0.358,0.48-0.576,0.652c-0.23,0.183-0.545,0.26-0.793,0.438c-0.252,0.181-0.538,0.332-0.778,0.517
				c-0.455,0.351-0.865,0.54-1.367,0.784c-0.414,0.201-0.778,0.523-1.213,0.65c-0.928,0.271-1.933,0.351-2.901,0.396
				c-0.564,0.027-1.052,0.201-1.595,0.047c-0.444-0.126-0.994-0.048-1.457-0.047c-0.847,0.002-1.716-0.365-2.506-0.662
				c-0.401-0.15-0.82-0.235-1.146-0.505c-0.271-0.225-0.618-0.396-0.91-0.566c-0.663-0.385-1.278-0.771-1.859-1.267
				c-0.316-0.271-0.68-0.503-0.959-0.812c-0.31-0.342-0.463-0.714-0.688-1.104c-0.102-0.176-0.419-0.403-0.604-0.499"/>
			<path fill="none" stroke="#000000" stroke-width="0.001" stroke-linecap="round" stroke-linejoin="round" d="M1318.682,1512.933
				c0.092,0.158-0.258,0.562-0.359,0.703c-0.192,0.268-0.33,0.467-0.579,0.667c-0.201,0.162-0.403,0.387-0.521,0.607
				c-0.122,0.228-0.358,0.48-0.576,0.652c-0.23,0.183-0.545,0.26-0.793,0.438c-0.252,0.181-0.538,0.332-0.778,0.517
				c-0.455,0.351-0.865,0.54-1.367,0.784c-0.414,0.201-0.778,0.523-1.213,0.65c-0.928,0.271-1.933,0.351-2.901,0.396
				c-0.564,0.027-1.052,0.201-1.595,0.047c-0.444-0.126-0.994-0.048-1.457-0.047c-0.847,0.002-1.716-0.365-2.506-0.662
				c-0.401-0.15-0.82-0.235-1.146-0.505c-0.271-0.225-0.618-0.396-0.91-0.566c-0.663-0.385-1.278-0.771-1.859-1.267
				c-0.316-0.271-0.68-0.503-0.959-0.812c-0.31-0.342-0.463-0.714-0.688-1.104c-0.102-0.176-0.419-0.403-0.604-0.499"/>
		</g>
	</g>
	<path fill="none" stroke="#000000" stroke-width="0.001" stroke-linecap="round" stroke-linejoin="round" d="M819.683,1512.932
		c0.456,0.133,0.697,0.787,1.021,1.146c0.377,0.419,0.821,0.691,1.231,1.102c0.871,0.871,1.854,1.771,2.979,2.271
		c1.142,0.506,2.479,0.338,3.685,0.815c1.163,0.461,2.49,0.197,3.671,0.004c1.683-0.274,3.422-0.567,4.767-1.814
		c1.101-1.021,2.859-2.082,3.479-3.439"/>
</g>
<g>
	<g>
		<g>
			<path fill="none" stroke="#000000" stroke-width="0.001" stroke-linecap="round" stroke-linejoin="round" d="M792.941,1137.143
				c0.179,0.302,0.324,0.72,0.481,1.083c0.435,1.003,0.854,2.07,1.287,3.15c0.44,1.097,1.337,1.662,2.005,2.679
				c0.48,0.731,0.856,0.774,1.562,1.252c0.541,0.366,0.782,0.796,1.352,1.065c1.061,0.502,2.568,0.896,3.729,0.937
				c1.445,0.052,2.653,0.567,4.167,0.417c1.146-0.114,2.574-0.707,3.662-1.19c1.813-0.806,3.983-2.542,4.838-4.31"/>
			<path fill="none" stroke="#000000" stroke-width="0.001" stroke-linecap="round" stroke-linejoin="round" d="M857.746,1142.228
				c0.092,0.158-0.258,0.562-0.359,0.703c-0.192,0.268-0.33,0.467-0.579,0.667c-0.201,0.162-0.403,0.387-0.521,0.607
				c-0.122,0.228-0.358,0.48-0.576,0.652c-0.23,0.183-0.545,0.26-0.793,0.438c-0.252,0.181-0.538,0.332-0.778,0.517
				c-0.455,0.351-0.865,0.54-1.367,0.784c-0.414,0.201-0.778,0.523-1.213,0.65c-0.928,0.271-1.933,0.351-2.901,0.396
				c-0.564,0.027-1.052,0.201-1.595,0.047c-0.444-0.126-0.994-0.048-1.457-0.047c-0.847,0.002-1.716-0.365-2.506-0.662
				c-0.401-0.15-0.82-0.235-1.146-0.505c-0.271-0.225-0.618-0.396-0.91-0.566c-0.663-0.385-1.278-0.771-1.859-1.267
				c-0.316-0.271-0.68-0.503-0.959-0.812c-0.31-0.342-0.463-0.714-0.688-1.104c-0.102-0.176-0.419-0.403-0.604-0.499"/>
			<path fill="none" stroke="#000000" stroke-width="0.001" stroke-linecap="round" stroke-linejoin="round" d="M878.574,1142.228
				c0.092,0.158-0.258,0.562-0.359,0.703c-0.192,0.268-0.33,0.467-0.579,0.667c-0.201,0.162-0.403,0.387-0.521,0.607
				c-0.122,0.228-0.358,0.48-0.576,0.652c-0.23,0.183-0.545,0.26-0.793,0.438c-0.252,0.181-0.538,0.332-0.778,0.517
				c-0.455,0.351-0.865,0.54-1.367,0.784c-0.414,0.201-0.778,0.523-1.213,0.65c-0.928,0.271-1.933,0.351-2.901,0.396
				c-0.564,0.027-1.052,0.201-1.595,0.047c-0.444-0.126-0.994-0.048-1.457-0.047c-0.847,0.002-1.716-0.365-2.506-0.662
				c-0.401-0.15-0.82-0.235-1.146-0.505c-0.271-0.225-0.618-0.396-0.91-0.566c-0.663-0.385-1.278-0.771-1.859-1.267
				c-0.316-0.271-0.68-0.503-0.959-0.812c-0.31-0.342-0.463-0.714-0.688-1.104c-0.102-0.176-0.419-0.403-0.604-0.499"/>
			<path fill="none" stroke="#000000" stroke-width="0.001" stroke-linecap="round" stroke-linejoin="round" d="M899.402,1142.228
				c0.092,0.158-0.258,0.562-0.359,0.703c-0.192,0.268-0.33,0.467-0.579,0.667c-0.201,0.162-0.403,0.387-0.521,0.607
				c-0.122,0.228-0.358,0.48-0.576,0.652c-0.23,0.183-0.545,0.26-0.793,0.438c-0.252,0.181-0.538,0.332-0.778,0.517
				c-0.455,0.351-0.865,0.54-1.367,0.784c-0.414,0.201-0.778,0.523-1.213,0.65c-0.928,0.271-1.933,0.351-2.901,0.396
				c-0.564,0.027-1.052,0.201-1.595,0.047c-0.444-0.126-0.994-0.048-1.457-0.047c-0.847,0.002-1.716-0.365-2.506-0.662
				c-0.401-0.15-0.82-0.235-1.146-0.505c-0.271-0.225-0.618-0.396-0.91-0.566c-0.663-0.385-1.278-0.771-1.859-1.267
				c-0.316-0.271-0.68-0.503-0.959-0.812c-0.31-0.342-0.463-0.714-0.688-1.104c-0.102-0.176-0.419-0.403-0.604-0.499"/>
		</g>
		<g>
			<path fill="none" stroke="#000000" stroke-width="0.001" stroke-linecap="round" stroke-linejoin="round" d="M920.23,1142.228
				c0.092,0.158-0.258,0.562-0.359,0.703c-0.192,0.268-0.33,0.467-0.579,0.667c-0.201,0.162-0.403,0.387-0.521,0.607
				c-0.122,0.228-0.358,0.48-0.576,0.652c-0.23,0.183-0.545,0.26-0.793,0.438c-0.252,0.181-0.538,0.332-0.778,0.517
				c-0.455,0.351-0.865,0.54-1.367,0.784c-0.414,0.201-0.778,0.523-1.213,0.65c-0.928,0.271-1.933,0.351-2.901,0.396
				c-0.564,0.027-1.052,0.201-1.595,0.047c-0.444-0.126-0.994-0.048-1.457-0.047c-0.847,0.002-1.716-0.365-2.506-0.662
				c-0.401-0.15-0.82-0.235-1.146-0.505c-0.271-0.225-0.618-0.396-0.91-0.566c-0.663-0.385-1.278-0.771-1.859-1.267
				c-0.316-0.271-0.68-0.503-0.959-0.812c-0.31-0.342-0.463-0.714-0.688-1.104c-0.102-0.176-0.419-0.403-0.604-0.499"/>
			<path fill="none" stroke="#000000" stroke-width="0.001" stroke-linecap="round" stroke-linejoin="round" d="M941.059,1142.228
				c0.092,0.158-0.258,0.562-0.359,0.703c-0.192,0.268-0.33,0.467-0.579,0.667c-0.201,0.162-0.403,0.387-0.521,0.607
				c-0.122,0.228-0.358,0.48-0.576,0.652c-0.23,0.183-0.545,0.26-0.793,0.438c-0.252,0.181-0.538,0.332-0.778,0.517
				c-0.455,0.351-0.865,0.54-1.367,0.784c-0.414,0.201-0.778,0.523-1.213,0.65c-0.928,0.271-1.933,0.351-2.901,0.396
				c-0.564,0.027-1.052,0.201-1.595,0.047c-0.444-0.126-0.994-0.048-1.457-0.047c-0.847,0.002-1.716-0.365-2.506-0.662
				c-0.401-0.15-0.82-0.235-1.146-0.505c-0.271-0.225-0.618-0.396-0.91-0.566c-0.663-0.385-1.278-0.771-1.859-1.267
				c-0.316-0.271-0.68-0.503-0.959-0.812c-0.31-0.342-0.463-0.714-0.688-1.104c-0.102-0.176-0.419-0.403-0.604-0.499"/>
			<path fill="none" stroke="#000000" stroke-width="0.001" stroke-linecap="round" stroke-linejoin="round" d="M961.887,1142.228
				c0.092,0.158-0.258,0.562-0.359,0.703c-0.192,0.268-0.33,0.467-0.579,0.667c-0.201,0.162-0.403,0.387-0.521,0.607
				c-0.122,0.228-0.358,0.48-0.576,0.652c-0.23,0.183-0.545,0.26-0.793,0.438c-0.252,0.181-0.538,0.332-0.778,0.517
				c-0.455,0.351-0.865,0.54-1.367,0.784c-0.414,0.201-0.778,0.523-1.213,0.65c-0.928,0.271-1.933,0.351-2.901,0.396
				c-0.564,0.027-1.052,0.201-1.595,0.047c-0.444-0.126-0.994-0.048-1.457-0.047c-0.847,0.002-1.716-0.365-2.506-0.662
				c-0.401-0.15-0.82-0.235-1.146-0.505c-0.271-0.225-0.618-0.396-0.91-0.566c-0.663-0.385-1.278-0.771-1.859-1.267
				c-0.316-0.271-0.68-0.503-0.959-0.812c-0.31-0.342-0.463-0.714-0.688-1.104c-0.102-0.176-0.419-0.403-0.604-0.499"/>
			<path fill="none" stroke="#000000" stroke-width="0.001" stroke-linecap="round" stroke-linejoin="round" d="M982.715,1142.228
				c0.092,0.158-0.258,0.562-0.359,0.703c-0.192,0.268-0.33,0.467-0.579,0.667c-0.201,0.162-0.403,0.387-0.521,0.607
				c-0.122,0.228-0.358,0.48-0.576,0.652c-0.23,0.183-0.545,0.26-0.793,0.438c-0.252,0.181-0.538,0.332-0.778,0.517
				c-0.455,0.351-0.865,0.54-1.367,0.784c-0.414,0.201-0.778,0.523-1.213,0.65c-0.928,0.271-1.933,0.351-2.901,0.396
				c-0.564,0.027-1.052,0.201-1.595,0.047c-0.444-0.126-0.994-0.048-1.457-0.047c-0.847,0.002-1.716-0.365-2.506-0.662
				c-0.401-0.15-0.82-0.235-1.146-0.505c-0.271-0.225-0.618-0.396-0.91-0.566c-0.663-0.385-1.278-0.771-1.859-1.267
				c-0.316-0.271-0.68-0.503-0.959-0.812c-0.31-0.342-0.463-0.714-0.688-1.104c-0.102-0.176-0.419-0.403-0.604-0.499"/>
		</g>
	</g>
	<g>
		<g>
			<path fill="none" stroke="#000000" stroke-width="0.001" stroke-linecap="round" stroke-linejoin="round" d="M1002.921,1142.228
				c0.092,0.158-0.258,0.562-0.359,0.703c-0.192,0.268-0.33,0.467-0.579,0.667c-0.201,0.162-0.403,0.387-0.521,0.607
				c-0.122,0.228-0.358,0.48-0.576,0.652c-0.23,0.183-0.545,0.26-0.793,0.438c-0.252,0.181-0.538,0.332-0.778,0.517
				c-0.455,0.351-0.865,0.54-1.367,0.784c-0.414,0.201-0.778,0.523-1.213,0.65c-0.928,0.271-1.933,0.351-2.901,0.396
				c-0.564,0.027-1.052,0.201-1.595,0.047c-0.444-0.126-0.994-0.048-1.457-0.047c-0.847,0.002-1.716-0.365-2.506-0.662
				c-0.401-0.15-0.82-0.235-1.146-0.505c-0.271-0.225-0.618-0.396-0.91-0.566c-0.663-0.385-1.278-0.771-1.859-1.267
				c-0.316-0.271-0.68-0.503-0.959-0.812c-0.31-0.342-0.463-0.714-0.688-1.104c-0.102-0.176-0.419-0.403-0.604-0.499"/>
			<path fill="none" stroke="#000000" stroke-width="0.001" stroke-linecap="round" stroke-linejoin="round" d="M1023.749,1142.228
				c0.092,0.158-0.258,0.562-0.359,0.703c-0.192,0.268-0.33,0.467-0.579,0.667c-0.201,0.162-0.403,0.387-0.521,0.607
				c-0.122,0.228-0.358,0.48-0.576,0.652c-0.23,0.183-0.545,0.26-0.793,0.438c-0.252,0.181-0.538,0.332-0.778,0.517
				c-0.455,0.351-0.865,0.54-1.367,0.784c-0.414,0.201-0.778,0.523-1.213,0.65c-0.928,0.271-1.933,0.351-2.901,0.396
				c-0.564,0.027-1.052,0.201-1.595,0.047c-0.444-0.126-0.994-0.048-1.457-0.047c-0.847,0.002-1.716-0.365-2.506-0.662
				c-0.401-0.15-0.82-0.235-1.146-0.505c-0.271-0.225-0.618-0.396-0.91-0.566c-0.663-0.385-1.278-0.771-1.859-1.267
				c-0.316-0.271-0.68-0.503-0.959-0.812c-0.31-0.342-0.463-0.714-0.688-1.104c-0.102-0.176-0.419-0.403-0.604-0.499"/>
			<path fill="none" stroke="#000000" stroke-width="0.001" stroke-linecap="round" stroke-linejoin="round" d="M1044.577,1142.228
				c0.092,0.158-0.258,0.562-0.359,0.703c-0.192,0.268-0.33,0.467-0.579,0.667c-0.201,0.162-0.403,0.387-0.521,0.607
				c-0.122,0.228-0.358,0.48-0.576,0.652c-0.23,0.183-0.545,0.26-0.793,0.438c-0.252,0.181-0.538,0.332-0.778,0.517
				c-0.455,0.351-0.865,0.54-1.367,0.784c-0.414,0.201-0.778,0.523-1.213,0.65c-0.928,0.271-1.933,0.351-2.901,0.396
				c-0.564,0.027-1.052,0.201-1.595,0.047c-0.444-0.126-0.994-0.048-1.457-0.047c-0.847,0.002-1.716-0.365-2.506-0.662
				c-0.401-0.15-0.82-0.235-1.146-0.505c-0.271-0.225-0.618-0.396-0.91-0.566c-0.663-0.385-1.278-0.771-1.859-1.267
				c-0.316-0.271-0.68-0.503-0.959-0.812c-0.31-0.342-0.463-0.714-0.688-1.104c-0.102-0.176-0.419-0.403-0.604-0.499"/>
			<path fill="none" stroke="#000000" stroke-width="0.001" stroke-linecap="round" stroke-linejoin="round" d="M1065.405,1142.228
				c0.092,0.158-0.258,0.562-0.359,0.703c-0.192,0.268-0.33,0.467-0.579,0.667c-0.201,0.162-0.403,0.387-0.521,0.607
				c-0.122,0.228-0.358,0.48-0.576,0.652c-0.23,0.183-0.545,0.26-0.793,0.438c-0.252,0.181-0.538,0.332-0.778,0.517
				c-0.455,0.351-0.865,0.54-1.367,0.784c-0.414,0.201-0.778,0.523-1.213,0.65c-0.928,0.271-1.933,0.351-2.901,0.396
				c-0.564,0.027-1.052,0.201-1.595,0.047c-0.444-0.126-0.994-0.048-1.457-0.047c-0.847,0.002-1.716-0.365-2.506-0.662
				c-0.401-0.15-0.82-0.235-1.146-0.505c-0.271-0.225-0.618-0.396-0.91-0.566c-0.663-0.385-1.278-0.771-1.859-1.267
				c-0.316-0.271-0.68-0.503-0.959-0.812c-0.31-0.342-0.463-0.714-0.688-1.104c-0.102-0.176-0.419-0.403-0.604-0.499"/>
		</g>
		<g>
			<path fill="none" stroke="#000000" stroke-width="0.001" stroke-linecap="round" stroke-linejoin="round" d="M1086.233,1142.228
				c0.092,0.158-0.258,0.562-0.359,0.703c-0.192,0.268-0.33,0.467-0.579,0.667c-0.201,0.162-0.403,0.387-0.521,0.607
				c-0.122,0.228-0.358,0.48-0.576,0.652c-0.23,0.183-0.545,0.26-0.793,0.438c-0.252,0.181-0.538,0.332-0.778,0.517
				c-0.455,0.351-0.865,0.54-1.367,0.784c-0.414,0.201-0.778,0.523-1.213,0.65c-0.928,0.271-1.933,0.351-2.901,0.396
				c-0.564,0.027-1.052,0.201-1.595,0.047c-0.444-0.126-0.994-0.048-1.457-0.047c-0.847,0.002-1.716-0.365-2.506-0.662
				c-0.401-0.15-0.82-0.235-1.146-0.505c-0.271-0.225-0.618-0.396-0.91-0.566c-0.663-0.385-1.278-0.771-1.859-1.267
				c-0.316-0.271-0.68-0.503-0.959-0.812c-0.31-0.342-0.463-0.714-0.688-1.104c-0.102-0.176-0.419-0.403-0.604-0.499"/>
			<path fill="none" stroke="#000000" stroke-width="0.001" stroke-linecap="round" stroke-linejoin="round" d="M1107.062,1142.228
				c0.092,0.158-0.258,0.562-0.359,0.703c-0.192,0.268-0.33,0.467-0.579,0.667c-0.201,0.162-0.403,0.387-0.521,0.607
				c-0.122,0.228-0.358,0.48-0.576,0.652c-0.23,0.183-0.545,0.26-0.793,0.438c-0.252,0.181-0.538,0.332-0.778,0.517
				c-0.455,0.351-0.865,0.54-1.367,0.784c-0.414,0.201-0.778,0.523-1.213,0.65c-0.928,0.271-1.933,0.351-2.901,0.396
				c-0.564,0.027-1.052,0.201-1.595,0.047c-0.444-0.126-0.994-0.048-1.457-0.047c-0.847,0.002-1.716-0.365-2.506-0.662
				c-0.401-0.15-0.82-0.235-1.146-0.505c-0.271-0.225-0.618-0.396-0.91-0.566c-0.663-0.385-1.278-0.771-1.859-1.267
				c-0.316-0.271-0.68-0.503-0.959-0.812c-0.31-0.342-0.463-0.714-0.688-1.104c-0.102-0.176-0.419-0.403-0.604-0.499"/>
			<path fill="none" stroke="#000000" stroke-width="0.001" stroke-linecap="round" stroke-linejoin="round" d="M1127.89,1142.228
				c0.092,0.158-0.258,0.562-0.359,0.703c-0.192,0.268-0.33,0.467-0.579,0.667c-0.201,0.162-0.403,0.387-0.521,0.607
				c-0.122,0.228-0.358,0.48-0.576,0.652c-0.23,0.183-0.545,0.26-0.793,0.438c-0.252,0.181-0.538,0.332-0.778,0.517
				c-0.455,0.351-0.865,0.54-1.367,0.784c-0.414,0.201-0.778,0.523-1.213,0.65c-0.928,0.271-1.933,0.351-2.901,0.396
				c-0.564,0.027-1.052,0.201-1.595,0.047c-0.444-0.126-0.994-0.048-1.457-0.047c-0.847,0.002-1.716-0.365-2.506-0.662
				c-0.401-0.15-0.82-0.235-1.146-0.505c-0.271-0.225-0.618-0.396-0.91-0.566c-0.663-0.385-1.278-0.771-1.859-1.267
				c-0.316-0.271-0.68-0.503-0.959-0.812c-0.31-0.342-0.463-0.714-0.688-1.104c-0.102-0.176-0.419-0.403-0.604-0.499"/>
			<path fill="none" stroke="#000000" stroke-width="0.001" stroke-linecap="round" stroke-linejoin="round" d="M1148.718,1142.228
				c0.092,0.158-0.258,0.562-0.359,0.703c-0.192,0.268-0.33,0.467-0.579,0.667c-0.201,0.162-0.403,0.387-0.521,0.607
				c-0.122,0.228-0.358,0.48-0.576,0.652c-0.23,0.183-0.545,0.26-0.793,0.438c-0.252,0.181-0.538,0.332-0.778,0.517
				c-0.455,0.351-0.865,0.54-1.367,0.784c-0.414,0.201-0.778,0.523-1.213,0.65c-0.928,0.271-1.933,0.351-2.901,0.396
				c-0.564,0.027-1.052,0.201-1.595,0.047c-0.444-0.126-0.994-0.048-1.457-0.047c-0.847,0.002-1.716-0.365-2.506-0.662
				c-0.401-0.15-0.82-0.235-1.146-0.505c-0.271-0.225-0.618-0.396-0.91-0.566c-0.663-0.385-1.278-0.771-1.859-1.267
				c-0.316-0.271-0.68-0.503-0.959-0.812c-0.31-0.342-0.463-0.714-0.688-1.104c-0.102-0.176-0.419-0.403-0.604-0.499"/>
		</g>
	</g>
	<g>
		<g>
			<path fill="none" stroke="#000000" stroke-width="0.001" stroke-linecap="round" stroke-linejoin="round" d="M1169.146,1142.228
				c0.092,0.158-0.258,0.562-0.359,0.703c-0.192,0.268-0.33,0.467-0.579,0.667c-0.201,0.162-0.403,0.387-0.521,0.607
				c-0.122,0.228-0.358,0.48-0.576,0.652c-0.23,0.183-0.545,0.26-0.793,0.438c-0.252,0.181-0.538,0.332-0.778,0.517
				c-0.455,0.351-0.865,0.54-1.367,0.784c-0.414,0.201-0.778,0.523-1.213,0.65c-0.928,0.271-1.933,0.351-2.901,0.396
				c-0.564,0.027-1.052,0.201-1.595,0.047c-0.444-0.126-0.994-0.048-1.457-0.047c-0.847,0.002-1.716-0.365-2.506-0.662
				c-0.401-0.15-0.82-0.235-1.146-0.505c-0.271-0.225-0.618-0.396-0.91-0.566c-0.663-0.385-1.278-0.771-1.859-1.267
				c-0.316-0.271-0.68-0.503-0.959-0.812c-0.31-0.342-0.463-0.714-0.688-1.104c-0.102-0.176-0.419-0.403-0.604-0.499"/>
			<path fill="none" stroke="#000000" stroke-width="0.001" stroke-linecap="round" stroke-linejoin="round" d="M1189.974,1142.228
				c0.092,0.158-0.258,0.562-0.359,0.703c-0.192,0.268-0.33,0.467-0.579,0.667c-0.201,0.162-0.403,0.387-0.521,0.607
				c-0.122,0.228-0.358,0.48-0.576,0.652c-0.23,0.183-0.545,0.26-0.793,0.438c-0.252,0.181-0.538,0.332-0.778,0.517
				c-0.455,0.351-0.865,0.54-1.367,0.784c-0.414,0.201-0.778,0.523-1.213,0.65c-0.928,0.271-1.933,0.351-2.901,0.396
				c-0.564,0.027-1.052,0.201-1.595,0.047c-0.444-0.126-0.994-0.048-1.457-0.047c-0.847,0.002-1.716-0.365-2.506-0.662
				c-0.401-0.15-0.82-0.235-1.146-0.505c-0.271-0.225-0.618-0.396-0.91-0.566c-0.663-0.385-1.278-0.771-1.859-1.267
				c-0.316-0.271-0.68-0.503-0.959-0.812c-0.31-0.342-0.463-0.714-0.688-1.104c-0.102-0.176-0.419-0.403-0.604-0.499"/>
			<path fill="none" stroke="#000000" stroke-width="0.001" stroke-linecap="round" stroke-linejoin="round" d="M1210.802,1142.228
				c0.092,0.158-0.258,0.562-0.359,0.703c-0.192,0.268-0.33,0.467-0.579,0.667c-0.201,0.162-0.403,0.387-0.521,0.607
				c-0.122,0.228-0.358,0.48-0.576,0.652c-0.23,0.183-0.545,0.26-0.793,0.438c-0.252,0.181-0.538,0.332-0.778,0.517
				c-0.455,0.351-0.865,0.54-1.367,0.784c-0.414,0.201-0.778,0.523-1.213,0.65c-0.928,0.271-1.933,0.351-2.901,0.396
				c-0.564,0.027-1.052,0.201-1.595,0.047c-0.444-0.126-0.994-0.048-1.457-0.047c-0.847,0.002-1.716-0.365-2.506-0.662
				c-0.401-0.15-0.82-0.235-1.146-0.505c-0.271-0.225-0.618-0.396-0.91-0.566c-0.663-0.385-1.278-0.771-1.859-1.267
				c-0.316-0.271-0.68-0.503-0.959-0.812c-0.31-0.342-0.463-0.714-0.688-1.104c-0.102-0.176-0.419-0.403-0.604-0.499"/>
			<path fill="none" stroke="#000000" stroke-width="0.001" stroke-linecap="round" stroke-linejoin="round" d="M1231.63,1142.228
				c0.092,0.158-0.258,0.562-0.359,0.703c-0.192,0.268-0.33,0.467-0.579,0.667c-0.201,0.162-0.403,0.387-0.521,0.607
				c-0.122,0.228-0.358,0.48-0.576,0.652c-0.23,0.183-0.545,0.26-0.793,0.438c-0.252,0.181-0.538,0.332-0.778,0.517
				c-0.455,0.351-0.865,0.54-1.367,0.784c-0.414,0.201-0.778,0.523-1.213,0.65c-0.928,0.271-1.933,0.351-2.901,0.396
				c-0.564,0.027-1.052,0.201-1.595,0.047c-0.444-0.126-0.994-0.048-1.457-0.047c-0.847,0.002-1.716-0.365-2.506-0.662
				c-0.401-0.15-0.82-0.235-1.146-0.505c-0.271-0.225-0.618-0.396-0.91-0.566c-0.663-0.385-1.278-0.771-1.859-1.267
				c-0.316-0.271-0.68-0.503-0.959-0.812c-0.31-0.342-0.463-0.714-0.688-1.104c-0.102-0.176-0.419-0.403-0.604-0.499"/>
		</g>
		<g>
			<path fill="none" stroke="#000000" stroke-width="0.001" stroke-linecap="round" stroke-linejoin="round" d="M1252.458,1142.228
				c0.092,0.158-0.258,0.562-0.359,0.703c-0.192,0.268-0.33,0.467-0.579,0.667c-0.201,0.162-0.403,0.387-0.521,0.607
				c-0.122,0.228-0.358,0.48-0.576,0.652c-0.23,0.183-0.545,0.26-0.793,0.438c-0.252,0.181-0.538,0.332-0.778,0.517
				c-0.455,0.351-0.865,0.54-1.367,0.784c-0.414,0.201-0.778,0.523-1.213,0.65c-0.928,0.271-1.933,0.351-2.901,0.396
				c-0.564,0.027-1.052,0.201-1.595,0.047c-0.444-0.126-0.994-0.048-1.457-0.047c-0.847,0.002-1.716-0.365-2.506-0.662
				c-0.401-0.15-0.82-0.235-1.146-0.505c-0.271-0.225-0.618-0.396-0.91-0.566c-0.663-0.385-1.278-0.771-1.859-1.267
				c-0.316-0.271-0.68-0.503-0.959-0.812c-0.31-0.342-0.463-0.714-0.688-1.104c-0.102-0.176-0.419-0.403-0.604-0.499"/>
			<path fill="none" stroke="#000000" stroke-width="0.001" stroke-linecap="round" stroke-linejoin="round" d="M1273.286,1142.228
				c0.092,0.158-0.258,0.562-0.359,0.703c-0.192,0.268-0.33,0.467-0.579,0.667c-0.201,0.162-0.403,0.387-0.521,0.607
				c-0.122,0.228-0.358,0.48-0.576,0.652c-0.23,0.183-0.545,0.26-0.793,0.438c-0.252,0.181-0.538,0.332-0.778,0.517
				c-0.455,0.351-0.865,0.54-1.367,0.784c-0.414,0.201-0.778,0.523-1.213,0.65c-0.928,0.271-1.933,0.351-2.901,0.396
				c-0.564,0.027-1.052,0.201-1.595,0.047c-0.444-0.126-0.994-0.048-1.457-0.047c-0.847,0.002-1.716-0.365-2.506-0.662
				c-0.401-0.15-0.82-0.235-1.146-0.505c-0.271-0.225-0.618-0.396-0.91-0.566c-0.663-0.385-1.278-0.771-1.859-1.267
				c-0.316-0.271-0.68-0.503-0.959-0.812c-0.31-0.342-0.463-0.714-0.688-1.104c-0.102-0.176-0.419-0.403-0.604-0.499"/>
			<path fill="none" stroke="#000000" stroke-width="0.001" stroke-linecap="round" stroke-linejoin="round" d="M1294.114,1142.228
				c0.092,0.158-0.258,0.562-0.359,0.703c-0.192,0.268-0.33,0.467-0.579,0.667c-0.201,0.162-0.403,0.387-0.521,0.607
				c-0.122,0.228-0.358,0.48-0.576,0.652c-0.23,0.183-0.545,0.26-0.793,0.438c-0.252,0.181-0.538,0.332-0.778,0.517
				c-0.455,0.351-0.865,0.54-1.367,0.784c-0.414,0.201-0.778,0.523-1.213,0.65c-0.928,0.271-1.933,0.351-2.901,0.396
				c-0.564,0.027-1.052,0.201-1.595,0.047c-0.444-0.126-0.994-0.048-1.457-0.047c-0.847,0.002-1.716-0.365-2.506-0.662
				c-0.401-0.15-0.82-0.235-1.146-0.505c-0.271-0.225-0.618-0.396-0.91-0.566c-0.663-0.385-1.278-0.771-1.859-1.267
				c-0.316-0.271-0.68-0.503-0.959-0.812c-0.31-0.342-0.463-0.714-0.688-1.104c-0.102-0.176-0.419-0.403-0.604-0.499"/>
			<path fill="none" stroke="#000000" stroke-width="0.001" stroke-linecap="round" stroke-linejoin="round" d="M1314.942,1142.228
				c0.092,0.158-0.258,0.562-0.359,0.703c-0.192,0.268-0.33,0.467-0.579,0.667c-0.201,0.162-0.403,0.387-0.521,0.607
				c-0.122,0.228-0.358,0.48-0.576,0.652c-0.23,0.183-0.545,0.26-0.793,0.438c-0.252,0.181-0.538,0.332-0.778,0.517
				c-0.455,0.351-0.865,0.54-1.367,0.784c-0.414,0.201-0.778,0.523-1.213,0.65c-0.928,0.271-1.933,0.351-2.901,0.396
				c-0.564,0.027-1.052,0.201-1.595,0.047c-0.444-0.126-0.994-0.048-1.457-0.047c-0.847,0.002-1.716-0.365-2.506-0.662
				c-0.401-0.15-0.82-0.235-1.146-0.505c-0.271-0.225-0.618-0.396-0.91-0.566c-0.663-0.385-1.278-0.771-1.859-1.267
				c-0.316-0.271-0.68-0.503-0.959-0.812c-0.31-0.342-0.463-0.714-0.688-1.104c-0.102-0.176-0.419-0.403-0.604-0.499"/>
		</g>
	</g>
	<path fill="none" stroke="#000000" stroke-width="0.001" stroke-linecap="round" stroke-linejoin="round" d="M815.943,1142.227
		c0.456,0.133,0.697,0.787,1.021,1.146c0.377,0.419,0.821,0.691,1.231,1.102c0.871,0.871,1.854,1.771,2.979,2.271
		c1.142,0.506,2.479,0.338,3.685,0.815c1.163,0.461,2.49,0.197,3.671,0.004c1.683-0.274,3.422-0.567,4.767-1.814
		c1.101-1.021,2.859-2.082,3.479-3.439"/>
</g>
</svg>
